<?xml version="1.0" standalone="no"?>
<!DOCTYPE svg PUBLIC "-//W3C//DTD SVG 1.1//EN" "http://www.w3.org/Graphics/SVG/1.1/DTD/svg11.dtd" >
<svg xmlns="http://www.w3.org/2000/svg" xmlns:xlink="http://www.w3.org/1999/xlink" version="1.1">
<metadata>
Created by FontForge 20170731 at Wed Mar 20 08:38:25 2019
 By Aleksey,,,
Copyright (c) Phanlop Thongsuk, 1995-2007. All rights reserved.
</metadata>
<defs>
<font id="KittithadaMedium65" horiz-adv-x="0" >
  <font-face 
    font-family="Kittithada Medium 65   65)"
    font-weight="400"
    font-stretch="normal"
    units-per-em="2048"
    panose-1="2 0 5 6 0 0 0 2 0 4"
    ascent="1638"
    descent="-410"
    x-height="698"
    cap-height="965"
    bbox="-938 -629 1503 1599"
    underline-thickness="72"
    underline-position="-627"
    unicode-range="U+000D-F880"
  />
<missing-glyph horiz-adv-x="1599" 
d="M100 0v1599h1399v-1599h-1399zM201 100h1200v1399h-1200v-1399z" />
    <glyph glyph-name="saraueesp1" unicode="&#xe37;&#xe48;" 
d="M-737 922v118h325v107h109v-107h61v107h160v-225h-655zM-328 1208v185h160v-185h-160z" />
    <glyph glyph-name=".notdef" horiz-adv-x="1599" 
d="M100 0v1599h1399v-1599h-1399zM201 100h1200v1399h-1200v-1399z" />
    <glyph glyph-name=".null" 
 />
    <glyph glyph-name="nonmarkingreturn" horiz-adv-x="2048" 
 />
    <glyph glyph-name="uni000D" unicode="&#xd;" horiz-adv-x="512" 
 />
    <glyph glyph-name="space" unicode=" " horiz-adv-x="512" 
 />
    <glyph glyph-name="exclam" unicode="!" horiz-adv-x="369" 
d="M96 0v168h178v-168h-178zM102 674v291h166v-291l-43 -406h-78z" />
    <glyph glyph-name="quotedbl" unicode="&#x22;" horiz-adv-x="592" 
d="M109 584v381h137v-381h-137zM344 584v381h137v-381h-137z" />
    <glyph glyph-name="numbersign" unicode="#" horiz-adv-x="750" 
d="M45 285v100h141l23 176h-125v101h137l39 284h109l-39 -284h155l39 284h109l-39 -284h115v-101h-129l-23 -176h113v-100h-127l-41 -285h-107l41 285h-157l-41 -285h-107l39 285h-125zM293 385h158l24 176h-160z" />
    <glyph glyph-name="dollar" unicode="$" horiz-adv-x="797" 
d="M41 319h152q0 -173 172 -200v311q-3 0 -5 2h-6q-134 31 -192 72q-88 63 -88 201q0 129 90 206q79 67 201 76v107h77v-109q128 -15 203 -90q42 -42 63 -94.5t21 -118.5h-154q-9 134 -133 162v-279l41 -8q63 -15 109.5 -35t75.5 -43q86 -68 86 -198q0 -140 -97 -222
q-82 -70 -215 -79v-115h-77v115q-147 9 -230 90q-91 88 -94 249zM225 717q0 -100 140 -133v266q-56 -6 -95 -39q-45 -41 -45 -94zM442 115q158 15 158 145q0 109 -158 150v-295z" />
    <glyph glyph-name="percent" unicode="%" horiz-adv-x="1212" 
d="M68 696q0 118 53 189q59 80 170 80t170 -80q53 -71 53 -189q0 -268 -223 -268t-223 268zM188 696q0 -182 103 -182q102 0 102 182q0 183 -102 183q-103 0 -103 -183zM295 -33l518 1014h100l-514 -1014h-104zM694 250q0 60 14 106.5t40 81.5q56 80 172 80q54 0 96 -19
t71 -61q26 -35 40 -81.5t14 -106.5q0 -268 -221 -268q-226 0 -226 268zM815 250q0 -180 103 -180q102 0 102 180q0 182 -102 182q-103 0 -103 -182z" />
    <glyph glyph-name="ampersand" unicode="&#x26;" horiz-adv-x="864" 
d="M43 268q0 167 217 281q-94 118 -94 209q0 52 17.5 94.5t48.5 72.5t73 46t92 16q100 0 166 -57q72 -66 72 -172q0 -151 -170 -246l145 -180q23 73 29 129h133q-15 -137 -74 -236l183 -225h-185l-82 104q-95 -122 -272 -122q-67 0 -122 19.5t-94.5 56.5t-61 90t-21.5 120z
M195 264q0 -37 11 -67t31.5 -51t48 -32.5t60.5 -11.5q114 0 184 103l-190 241q-43 -26 -66 -41t-28 -20q-51 -45 -51 -121zM301 766q0 -40 31 -86l55 -72q111 70 111 154q0 49 -26 80.5t-71 31.5q-43 0 -71.5 -29.5t-28.5 -78.5z" />
    <glyph glyph-name="quotesingle" unicode="'" horiz-adv-x="369" 
d="M115 584v381h139v-381h-139z" />
    <glyph glyph-name="parenleft" unicode="(" horiz-adv-x="397" 
d="M82 410q0 175 46.5 329.5t143.5 292.5h125q-81 -129 -122.5 -282.5t-41.5 -339.5q0 -187 41.5 -340.5t122.5 -282.5h-125q-97 138 -143.5 292.5t-46.5 330.5z" />
    <glyph glyph-name="parenright" unicode=")" horiz-adv-x="397" 
d="M0 -213q164 257 164 623q0 365 -164 622h125q97 -138 143.5 -292.5t46.5 -329.5q0 -176 -46.5 -330.5t-143.5 -292.5h-125z" />
    <glyph glyph-name="asterisk" unicode="*" horiz-adv-x="500" 
d="M25 768l34 98l146 -63l-10 162h112l-10 -162l143 63l35 -98l-153 -47l98 -121l-86 -63l-86 137l-86 -137l-88 63l102 121z" />
    <glyph glyph-name="plus" unicode="+" horiz-adv-x="741" 
d="M51 272v140h250v250h139v-250h250v-140h-250v-249h-139v249h-250z" />
    <glyph glyph-name="comma" unicode="," horiz-adv-x="369" 
d="M94 0v182h180v-182q0 -41 -13 -76t-37 -62.5t-57 -46.5t-73 -28v82q91 21 88 131h-88z" />
    <glyph glyph-name="hyphen" unicode="-" horiz-adv-x="518" 
d="M66 295v145h387v-145h-387z" />
    <glyph glyph-name="period" unicode="." horiz-adv-x="369" 
d="M94 0v182h180v-182h-180z" />
    <glyph glyph-name="slash" unicode="/" horiz-adv-x="469" 
d="M-33 -23l387 1010h146l-387 -1010h-146z" />
    <glyph glyph-name="zero" unicode="0" horiz-adv-x="741" 
d="M49 473q0 492 322 492q325 0 325 -492q0 -203 -61 -326q-83 -165 -264 -165q-322 0 -322 491zM201 473q0 -364 170 -364q174 0 174 364q0 365 -174 365q-170 0 -170 -365z" />
    <glyph glyph-name="one" unicode="1" horiz-adv-x="741" 
d="M76 672v116q239 0 272 158h125v-946h-168v672h-229z" />
    <glyph glyph-name="two" unicode="2" horiz-adv-x="741" 
d="M49 0q-3 169 123 289l236 178q127 97 127 205q0 166 -158 166q-39 0 -69.5 -15t-51 -41t-31 -62.5t-10.5 -78.5v-18.5t2 -18.5h-154q-4 23 -4 49q0 69 24 126t67.5 98.5t103.5 64.5t131 23q152 0 231 -88q70 -76 70 -203q0 -128 -108 -236q-22 -21 -73.5 -60.5
t-135.5 -96.5q-120 -85 -140 -144h457v-137h-637z" />
    <glyph glyph-name="three" unicode="3" horiz-adv-x="741" 
d="M41 307h154q-3 -44 8 -80.5t33.5 -62.5t56 -40.5t76.5 -14.5q81 0 129.5 44.5t48.5 125.5q0 171 -244 159v117q88 -5 141 29q66 40 66 118q0 60 -39.5 98t-105.5 38q-41 0 -72 -15t-51.5 -41t-29 -61t-3.5 -74h-150q-9 136 80 225q90 93 228 93q120 0 202 -64
q93 -71 93 -186q0 -155 -134 -205v-2q81 -18 125.5 -81t44.5 -157q0 -128 -96 -209q-94 -79 -233 -79q-160 0 -244 85.5t-84 239.5z" />
    <glyph glyph-name="four" unicode="4" horiz-adv-x="741" 
d="M33 223v150l399 573h143v-602h121v-121h-121v-223h-143v223h-399zM156 344h276v399h-2z" />
    <glyph glyph-name="five" unicode="5" horiz-adv-x="741" 
d="M45 264h152q12 -155 170 -155q174 0 174 208q0 43 -11.5 79t-34 62.5t-56 41t-77.5 14.5q-108 0 -149 -86h-150l89 518h491v-137h-377l-37 -240h2q65 68 170 68q69 0 123 -23t92 -64.5t58 -99.5t20 -128t-18.5 -127t-57.5 -105q-86 -108 -247 -108q-136 0 -228 71
q-95 74 -98 211z" />
    <glyph glyph-name="six" unicode="6" horiz-adv-x="741" 
d="M43 475q0 100 20 182t58 148q94 160 276 160q117 0 197 -74q81 -72 84 -186h-152q-15 133 -137 133q-177 0 -192 -326l2 -2q59 113 202 113q68 0 122.5 -23.5t93 -65.5t59 -101t20.5 -130q0 -69 -21.5 -127t-66.5 -104q-86 -90 -223 -90q-191 0 -274 143q-68 119 -68 350
zM211 307q0 -82 43 -137q46 -61 125 -61q77 0 123 61q20 28 30.5 61.5t10.5 75.5q0 40 -11 75t-32 61.5t-51.5 41.5t-69.5 15q-41 0 -72 -15t-52.5 -41t-32.5 -61.5t-11 -75.5z" />
    <glyph glyph-name="seven" unicode="7" horiz-adv-x="741" 
d="M47 809v137h637v-129q-315 -362 -348 -817h-166q30 450 356 809h-479z" />
    <glyph glyph-name="eight" unicode="8" horiz-adv-x="741" 
d="M39 279q0 88 45.5 150t124.5 81q-131 59 -131 197q0 60 19.5 108t57 81.5t91.5 51t123 17.5q141 0 217 -68.5t76 -189.5q0 -139 -132 -197q79 -19 124.5 -81t45.5 -150q0 -68 -24.5 -123t-68.5 -93.5t-104.5 -59.5t-133.5 -21q-71 0 -131.5 21t-104.5 59.5t-69 93.5
t-25 123zM193 279q0 -82 48.5 -129.5t127.5 -47.5q39 0 72 12.5t57 35.5t37.5 55.5t13.5 73.5q0 37 -13.5 67.5t-37.5 52.5t-57 33.5t-72 11.5t-71.5 -11.5t-56 -33.5t-36 -52.5t-12.5 -67.5zM221 698q0 -32 11.5 -57.5t31 -43.5t46.5 -28t59 -10q66 0 107.5 36.5
t41.5 102.5q0 70 -41.5 108t-107.5 38q-32 0 -59 -9.5t-46.5 -28.5t-31 -46t-11.5 -62z" />
    <glyph glyph-name="nine" unicode="9" horiz-adv-x="741" 
d="M45 643q0 140 86 229q88 93 225 93q191 0 275 -142q67 -118 67 -352q0 -196 -77 -330q-96 -159 -277 -159q-114 0 -197 71q-80 73 -84 189h152q15 -133 137 -133q178 0 193 325l-2 2q-57 -112 -203 -112q-68 0 -122.5 23.5t-92.5 66t-59 101t-21 128.5zM199 639
q0 -80 41 -133q46 -60 122 -60q40 0 71.5 15t53 41t32.5 61t11 76q0 40 -11 76.5t-32.5 63.5t-53 43t-71.5 16q-39 0 -69.5 -16t-51 -43t-31.5 -63.5t-11 -76.5z" />
    <glyph glyph-name="colon" unicode=":" horiz-adv-x="369" 
d="M94 0v182h180v-182h-180zM94 502v182h180v-182h-180z" />
    <glyph glyph-name="semicolon" unicode=";" horiz-adv-x="369" 
d="M94 0v182h180v-182q0 -41 -13 -76t-37 -62.5t-57 -46.5t-73 -28v82q91 21 88 131h-88zM94 502v182h180v-182h-180z" />
    <glyph glyph-name="less" unicode="&#x3c;" horiz-adv-x="741" 
d="M51 293v98l639 303v-137l-461 -215l461 -215v-137z" />
    <glyph glyph-name="equal" unicode="=" horiz-adv-x="741" 
d="M51 137v137h639v-137h-639zM51 410v139h639v-139h-639z" />
    <glyph glyph-name="greater" unicode="&#x3e;" horiz-adv-x="741" 
d="M51 -10v137l459 215l-459 215v137l639 -303v-98z" />
    <glyph glyph-name="question" unicode="?" horiz-adv-x="741" 
d="M66 653q-1 76 21 138t63.5 105.5t101 67t133.5 23.5q62 0 115.5 -18.5t92.5 -53.5t61 -85.5t22 -114.5q0 -99 -62 -170l-112 -103q-62 -59 -62 -127v-53h-143v57q0 103 55 170q25 23 50 47.5t51 47.5q55 56 55 127q0 149 -131 149q-163 0 -160 -207h-151zM276 0v168h181
v-168h-181z" />
    <glyph glyph-name="at" unicode="@" horiz-adv-x="1081" 
d="M66 500q0 204 145 346q147 141 352 141q187 0 318 -113q135 -113 135 -282q0 -184 -119 -303q-98 -101 -201 -101q-77 0 -80 80h-2q-35 -38 -72 -58t-79 -20t-78.5 17t-63.5 46t-42 67.5t-15 82.5q0 69 21 128.5t63 113.5q82 109 213 109q102 0 152 -99l24 78h94
l-98 -356q-10 -39 -10 -60q0 -32 25 -32q64 0 120 86t56 204q0 147 -105 236q-105 90 -256 90q-172 0 -280 -117q-109 -116 -109 -288q0 -211 115 -326q104 -104 284 -104q188 0 306 133h94q-138 -222 -404 -222q-216 0 -356 134q-147 141 -147 389zM379 416
q0 -54 29.5 -88.5t78.5 -34.5q39 0 72 21t62 63q53 77 53 155q0 24 -8.5 45.5t-23 38t-34 26t-41.5 9.5q-80 0 -135 -78q-53 -77 -53 -157z" />
    <glyph glyph-name="A" unicode="A" horiz-adv-x="887" 
d="M-10 0l364 965h178l365 -965h-176l-90 256h-379l-86 -256h-176zM295 383h293l-144 418h-4z" />
    <glyph glyph-name="B" unicode="B" horiz-adv-x="940" 
d="M100 0v965h459q289 0 289 -240q0 -144 -135 -205v-2q176 -39 176 -250q0 -120 -82 -190q-90 -78 -266 -78h-441zM268 137h297q160 0 160 154q0 147 -170 147h-287v-301zM268 561h273q63 0 102 35t39 98q0 133 -150 133h-264v-266z" />
    <glyph glyph-name="C" unicode="C" horiz-adv-x="967" 
d="M51 485q0 214 119 353q125 149 338 149q83 0 154 -23t124.5 -66t86.5 -104.5t40 -138.5h-168q-39 195 -237 195q-144 0 -221 -113q-70 -100 -70 -252q0 -156 70 -256q78 -114 221 -114q108 0 172 73q62 68 72 179h161q-9 -174 -120 -283q-110 -107 -285 -107
q-207 0 -336 150q-121 145 -121 358z" />
    <glyph glyph-name="D" unicode="D" horiz-adv-x="965" 
d="M100 0v965h398q208 0 319 -140q98 -125 98 -340q0 -216 -98 -344q-111 -141 -319 -141h-398zM268 137h166q179 0 256 101q29 42 44.5 102.5t15.5 144.5q0 82 -15.5 142t-44.5 100q-75 100 -256 100h-166v-690z" />
    <glyph glyph-name="E" unicode="E" horiz-adv-x="848" 
d="M100 0v965h697v-146h-529v-250h482v-141h-482v-283h529v-145h-697z" />
    <glyph glyph-name="F" unicode="F" horiz-adv-x="788" 
d="M100 0v965h658v-146h-490v-250h437v-141h-437v-428h-168z" />
    <glyph glyph-name="G" unicode="G" horiz-adv-x="1014" 
d="M57 485q0 211 123 357q127 145 334 145q82 0 150.5 -20t123.5 -62q117 -88 136 -248h-162q-6 45 -28 81t-55.5 61t-76 38t-88.5 13q-144 0 -221 -113q-70 -100 -70 -252q0 -156 70 -256q78 -114 221 -114q129 0 197.5 70t70.5 194h-260v129h412v-508h-105l-26 106
q-102 -129 -289 -129q-213 0 -340 148q-117 138 -117 360z" />
    <glyph glyph-name="H" unicode="H" horiz-adv-x="967" 
d="M96 0v965h168v-383h436v383h168v-965h-168v436h-436v-436h-168z" />
    <glyph glyph-name="I" unicode="I" horiz-adv-x="373" 
d="M102 0v965h168v-965h-168z" />
    <glyph glyph-name="J" unicode="J" horiz-adv-x="719" 
d="M18 287v51h166v-49q0 -174 133 -174q39 0 65.5 12t43.5 35q27 42 27 139v664h163v-658q0 -78 -12.5 -135t-38.5 -94q-71 -101 -262 -101q-285 0 -285 310z" />
    <glyph glyph-name="K" unicode="K" horiz-adv-x="911" 
d="M100 0v965h168v-437l426 437h203l-377 -387l404 -578h-207l-309 457l-140 -148v-309h-168z" />
    <glyph glyph-name="L" unicode="L" horiz-adv-x="768" 
d="M100 0v965h168v-820h486v-145h-654z" />
    <glyph glyph-name="M" unicode="M" horiz-adv-x="1188" 
d="M98 0v965h236l264 -754h2l258 754h232v-965h-160v748h-2l-266 -748h-138l-264 748h-4v-748h-158z" />
    <glyph glyph-name="N" unicode="N" horiz-adv-x="967" 
d="M94 0v965h178l437 -713h2v713h159v-965h-178l-436 713h-4v-713h-158z" />
    <glyph glyph-name="O" unicode="O" horiz-adv-x="1016" 
d="M51 485q0 108 30 194.5t93 158.5q63 75 147 112t187 37q210 0 338 -149q60 -72 90.5 -158.5t30.5 -194.5q0 -213 -121 -358q-129 -150 -338 -150q-210 0 -336 150q-121 145 -121 358zM217 485q0 -156 70 -256q78 -114 221 -114q142 0 223 114q68 104 68 256t-68 250
q-79 115 -223 115t-221 -113q-70 -100 -70 -252z" />
    <glyph glyph-name="P" unicode="P" horiz-adv-x="887" 
d="M100 0v965h418q326 0 326 -303q0 -115 -60 -193q-83 -107 -264 -107h-252v-362h-168zM268 500h242q67 0 113 37q55 46 55 129q0 161 -168 161h-242v-327z" />
    <glyph glyph-name="Q" unicode="Q" horiz-adv-x="1012" 
d="M51 485q0 212 121 355q129 147 336 147t336 -147q123 -143 123 -355q0 -240 -136 -372l123 -109l-82 -92l-137 123q-100 -58 -227 -58q-209 0 -336 148q-121 142 -121 360zM217 485q0 -156 70 -256q78 -114 221 -114q63 0 108 22l-96 86l82 92l115 -102q42 51 62 119
t20 153q0 154 -68 252q-80 113 -223 113q-144 0 -221 -113q-70 -100 -70 -252z" />
    <glyph glyph-name="R" unicode="R" horiz-adv-x="942" 
d="M100 0v965h463q311 0 311 -265q0 -181 -159 -239v-2q143 -29 143 -205q0 -197 51 -254h-178q-24 40 -24 141q0 141 -37 197q-44 59 -154 59h-248v-397h-168zM268 528h277q162 0 162 152q0 147 -164 147h-275v-299z" />
    <glyph glyph-name="S" unicode="S" horiz-adv-x="864" 
d="M45 319h164q0 -204 244 -204q102 0 153 45q45 37 45 100q0 81 -82 121q-47 23 -184 51q-147 31 -209 72q-96 66 -96 201q0 137 110 215q94 67 238 67q154 0 256 -78q109 -82 109 -227h-168q-11 168 -211 168q-63 0 -113 -35q-55 -36 -55 -98q0 -78 86 -113
q29 -12 192 -47q139 -29 203 -78q92 -68 92 -198q0 -151 -119 -234q-100 -70 -260 -70q-175 0 -278 82q-114 90 -117 260z" />
    <glyph glyph-name="T" unicode="T" horiz-adv-x="793" 
d="M10 819v146h774v-146h-305v-819h-166v819h-303z" />
    <glyph glyph-name="U" unicode="U" horiz-adv-x="963" 
d="M90 348v617h166v-562q0 -66 8 -112.5t25 -75.5q50 -92 192 -92q145 0 195 92q33 58 33 188v562h168v-617q0 -92 -27.5 -161t-79 -116t-125 -70.5t-164.5 -23.5q-182 0 -282 93q-109 97 -109 278z" />
    <glyph glyph-name="V" unicode="V" horiz-adv-x="817" 
d="M-6 965h172l242 -768h2l245 768h170l-325 -965h-189z" />
    <glyph glyph-name="W" unicode="W" horiz-adv-x="1257" 
d="M8 965h170l170 -740h2l193 740h172l184 -740h2l178 740h170l-260 -965h-172l-190 735h-2l-193 -735h-176z" />
    <glyph glyph-name="X" unicode="X" horiz-adv-x="864" 
d="M-4 0l340 500l-318 465h193l221 -340l219 340h193l-316 -465l340 -500h-196l-240 375l-239 -375h-197z" />
    <glyph glyph-name="Y" unicode="Y" horiz-adv-x="864" 
d="M-8 965h188l252 -441l252 441h188l-358 -588v-377h-166v377z" />
    <glyph glyph-name="Z" unicode="Z" horiz-adv-x="844" 
d="M31 0v137l559 682h-524v146h735v-127l-561 -693h573v-145h-782z" />
    <glyph glyph-name="bracketleft" unicode="[" horiz-adv-x="393" 
d="M96 -213v1245h297v-121h-153v-1003h153v-121h-297z" />
    <glyph glyph-name="backslash" unicode="\" horiz-adv-x="469" 
d="M-33 987h146l387 -1010h-146z" />
    <glyph glyph-name="bracketright" unicode="]" horiz-adv-x="393" 
d="M0 -92h154v1003h-154v121h297v-1245h-297v121z" />
    <glyph glyph-name="asciicircum" unicode="^" horiz-adv-x="799" 
d="M104 453l246 493h99l245 -493h-137l-158 333l-157 -333h-138z" />
    <glyph glyph-name="underscore" unicode="_" horiz-adv-x="676" 
d="M0 -102h676v-82h-676v82z" />
    <glyph glyph-name="grave" unicode="`" horiz-adv-x="322" 
d="M-39 987h182l121 -190h-112z" />
    <glyph glyph-name="a" unicode="a" horiz-adv-x="739" 
d="M43 193q0 115 82 163q26 14 71 26t111 21q60 8 93.5 13.5t41.5 9.5q68 21 68 76q0 94 -139 94q-143 0 -152 -109h-151q12 230 313 230q112 0 186 -45q88 -54 88 -158v-358q0 -56 50 -56q11 0 26 4v-106q-48 -16 -98 -16q-102 0 -117 84q-83 -84 -237 -84q-100 0 -164 49
q-35 28 -53.5 68t-18.5 94zM195 199q0 -97 137 -97q64 0 110 31q62 35 62 103v114q-25 -15 -185 -43q-124 -21 -124 -108z" />
    <glyph glyph-name="b" unicode="b" horiz-adv-x="817" 
d="M84 0v965h152v-353h2q64 105 208 105q157 0 242 -109q80 -101 80 -262q0 -151 -74 -252q-81 -112 -227 -112q-167 0 -238 110h-2v-92h-143zM229 348q0 -53 14 -98t39.5 -78t62 -51.5t81.5 -18.5q94 0 147 78q43 64 43 168q0 51 -12.5 96.5t-37 79t-60 53t-80.5 19.5
q-94 0 -145.5 -65.5t-51.5 -182.5z" />
    <glyph glyph-name="c" unicode="c" horiz-adv-x="743" 
d="M47 342q0 165 86 266q91 109 254 109q128 0 213 -64q90 -70 100 -192h-151q-21 135 -160 135q-190 0 -190 -254q0 -100 43 -164q48 -76 141 -76q148 0 166 156h151q-7 -65 -32 -116t-66 -86.5t-96.5 -54.5t-122.5 -19q-78 0 -140.5 25t-107.5 79q-88 97 -88 256z" />
    <glyph glyph-name="d" unicode="d" horiz-adv-x="817" 
d="M47 354q0 91 24 159.5t72 119.5q84 84 209 84q156 0 226 -103h4v351h151v-965h-143v92h-4q-59 -110 -215 -110t-244 108q-80 104 -80 264zM199 342q0 -98 47 -166q53 -74 145 -74q94 0 148 78q23 35 35 77t12 93q0 117 -52.5 181.5t-140.5 64.5q-100 0 -151 -80
q-43 -67 -43 -174z" />
    <glyph glyph-name="e" unicode="e" horiz-adv-x="743" 
d="M47 348q0 155 92 262t242 107q152 0 244 -107q88 -97 88 -245q0 -14 -1 -28t-3 -28h-510q0 -89 45 -143q52 -64 141 -64q135 0 170 119h145q-13 -56 -42 -100.5t-70 -75t-93 -47t-110 -16.5q-80 0 -142.5 26.5t-106 74.5t-66.5 115.5t-23 149.5zM199 412h358
q-2 37 -16 70.5t-37 59t-54.5 40t-68.5 14.5t-69.5 -14t-57 -39t-39 -58.5t-16.5 -72.5z" />
    <glyph glyph-name="f" unicode="f" horiz-adv-x="438" 
d="M12 584v114h113v78q0 195 201 195q54 0 116 -13v-120q-24 5 -42 6.5t-29 1.5q-95 0 -95 -76v-72h142v-114h-142v-584h-151v584h-113z" />
    <glyph glyph-name="g" unicode="g" horiz-adv-x="793" 
d="M47 369q0 144 86 245q85 103 227 103q149 0 207 -111h2v92h152v-661q0 -313 -342 -313q-118 0 -201 47q-49 29 -76 71t-32 99h151q22 -103 168 -103q180 0 180 178v97h-2q-65 -113 -211 -113q-153 0 -235 109q-74 98 -74 260zM199 352q0 -93 43 -157q24 -38 59 -56
t80 -18q94 0 145 78q43 64 43 166q0 101 -45 161q-52 70 -143 70q-95 0 -141 -78q-41 -65 -41 -166z" />
    <glyph glyph-name="h" unicode="h" horiz-adv-x="768" 
d="M80 0v965h151v-357h2q64 109 209 109q246 0 246 -238v-479h-151v438q0 158 -138 158q-37 0 -67.5 -14t-53 -39t-35 -58.5t-12.5 -72.5v-412h-151z" />
    <glyph glyph-name="i" unicode="i" horiz-adv-x="326" 
d="M86 0v696h152v-696h-152zM86 817v148h152v-148h-152z" />
    <glyph glyph-name="j" unicode="j" horiz-adv-x="338" 
d="M-29 -147q27 -7 60 -7q67 0 67 103v747h152v-755q0 -217 -203 -217q-17 0 -36.5 1t-39.5 3v125zM98 817v148h152v-148h-152z" />
    <glyph glyph-name="k" unicode="k" horiz-adv-x="719" 
d="M84 0v965h152v-549l278 282h186l-264 -254l291 -444h-186l-209 342l-96 -96v-246h-152z" />
    <glyph glyph-name="l" unicode="l" horiz-adv-x="326" 
d="M86 0v965h152v-965h-152z" />
    <glyph glyph-name="m" unicode="m" horiz-adv-x="1161" 
d="M80 0v698h143v-96h4q73 115 215 115q151 0 191 -115q73 115 215 115q235 0 235 -234v-483h-153v420q0 86 -19 123q-27 53 -106 53q-34 0 -61 -13t-46.5 -37t-30 -57t-10.5 -73v-416h-153v449q0 147 -121 147q-62 0 -104 -47q-48 -54 -48 -135v-414h-151z" />
    <glyph glyph-name="n" unicode="n" horiz-adv-x="768" 
d="M80 0v698h143v-102l2 -2q73 123 217 123q246 0 246 -238v-479h-151v438q0 158 -138 158q-37 0 -67.5 -14t-53 -39t-35 -58.5t-12.5 -72.5v-412h-151z" />
    <glyph glyph-name="o" unicode="o" horiz-adv-x="788" 
d="M49 350q0 82 24 149.5t69 116t109.5 75t145.5 26.5q164 0 258 -103q90 -101 90 -264q0 -162 -90 -264q-95 -104 -258 -104q-81 0 -145.5 26.5t-109.5 75t-69 116t-24 150.5zM201 350q0 -99 47 -170q57 -78 149 -78q48 0 85 20t65 58q49 70 49 170q0 103 -49 170
q-52 76 -150 76q-92 0 -149 -78q-47 -68 -47 -168z" />
    <glyph glyph-name="p" unicode="p" horiz-adv-x="817" 
d="M84 -258v956h143v-94h2q62 113 217 113q157 0 242 -109q80 -101 80 -262q0 -152 -72 -252q-81 -112 -225 -112q-164 0 -233 106h-2v-346h-152zM229 348q0 -53 14 -98t39.5 -78t62 -51.5t81.5 -18.5q94 0 147 78q43 64 43 168q0 51 -12.5 96.5t-37 79t-60 53t-80.5 19.5
q-94 0 -145.5 -65.5t-51.5 -182.5z" />
    <glyph glyph-name="q" unicode="q" horiz-adv-x="817" 
d="M47 346q0 161 80 262q85 109 244 109q153 0 215 -111h4v92h143v-956h-151v346h-4q-67 -106 -234 -106q-72 0 -128.5 27.5t-96.5 84.5q-72 100 -72 252zM199 348q0 -51 11 -93.5t34 -74.5q54 -78 147 -78q195 0 195 246q0 117 -50.5 182.5t-144.5 65.5q-45 0 -81 -19.5
t-60.5 -53t-37.5 -79t-13 -96.5z" />
    <glyph glyph-name="r" unicode="r" horiz-adv-x="471" 
d="M80 0v698h141v-135h4q6 31 25.5 59t49 49.5t66 34.5t76.5 13q23 0 43 -4v-148q-14 2 -26 3t-25 1q-49 0 -87 -17t-63.5 -48.5t-39 -75t-13.5 -96.5v-334h-151z" />
    <glyph glyph-name="s" unicode="s" horiz-adv-x="692" 
d="M43 227h152q9 -125 161 -125q146 0 146 93q0 52 -70 79q-18 10 -153 37q-107 26 -152 56q-70 48 -70 143q0 106 93 162q73 45 188 45q117 0 194 -49q87 -56 99 -164h-158q-15 92 -137 92q-127 0 -127 -78q0 -47 72 -72q3 0 151 -34q108 -26 154 -60q69 -48 69 -143
q0 -118 -96 -176q-82 -51 -213 -51q-135 0 -215 59q-88 64 -88 186z" />
    <glyph glyph-name="t" unicode="t" horiz-adv-x="446" 
d="M10 584v114h115v211h151v-211h142v-114h-142v-373q0 -52 13 -72q16 -24 63 -24q40 0 66 6v-119q-25 -5 -50 -6.5t-51 -1.5q-115 0 -155 45q-37 40 -37 133v412h-115z" />
    <glyph glyph-name="u" unicode="u" horiz-adv-x="768" 
d="M80 256v442h151v-428q0 -168 134 -168q172 0 172 191v405h151v-698h-149v92h-2q-59 -110 -199 -110q-258 0 -258 274z" />
    <glyph glyph-name="v" unicode="v" horiz-adv-x="696" 
d="M12 698h162l174 -538h4l170 538h162l-250 -698h-170z" />
    <glyph glyph-name="w" unicode="w" horiz-adv-x="1038" 
d="M18 698h160l137 -524h2l129 524h154l125 -524h2l139 524h156l-215 -698h-158l-129 520h-2l-127 -520h-162z" />
    <glyph glyph-name="x" unicode="x" horiz-adv-x="715" 
d="M6 0l262 369l-241 329h170l157 -217l156 217h170l-240 -329l271 -369h-170l-187 256l-178 -256h-170z" />
    <glyph glyph-name="y" unicode="y" horiz-adv-x="696" 
d="M4 698h162l182 -524h2l176 524h164l-272 -735q-23 -66 -43 -107t-35 -61q-59 -71 -166 -71q-29 0 -56 1.5t-50 6.5v129q31 -11 73 -11q76 0 107 99l16 53z" />
    <glyph glyph-name="z" unicode="z" horiz-adv-x="668" 
d="M31 0v109l391 469h-369v120h563v-108l-395 -469h416v-121h-606z" />
    <glyph glyph-name="braceleft" unicode="{" horiz-adv-x="455" 
d="M37 348v123q24 0 47 7t40 19.5t27.5 31t10.5 42.5v277q0 103 47 145q39 39 137 39h109v-121h-74q-24 0 -38.5 -5t-22.5 -16t-10.5 -29.5t-2.5 -45.5v-262q0 -60 -39.5 -97.5t-99.5 -43.5v-2q139 -6 139 -152v-254q0 -53 12 -72q16 -24 62 -24h74v-121h-109q-98 0 -137 39
q-47 44 -47 145v269q0 25 -10 45t-27.5 34t-40 21.5t-47.5 7.5z" />
    <glyph glyph-name="bar" unicode="|" horiz-adv-x="301" 
d="M82 -23v1010h135v-1010h-135z" />
    <glyph glyph-name="braceright" unicode="}" horiz-adv-x="455" 
d="M0 -92h74q46 0 61 24q12 19 12 72v254q0 146 140 152v2q-60 6 -100 43.5t-40 97.5v262q0 27 -2.5 45.5t-10.5 29.5t-22 16t-38 5h-74v121h109q48 0 83 -9.5t57.5 -31t33 -57t10.5 -86.5v-277q0 -46 41 -75q31 -25 84 -25v-123q-26 0 -48.5 -7.5t-39.5 -21.5t-27 -34
t-10 -45v-269q0 -51 -10.5 -86.5t-33 -57t-57.5 -31t-83 -9.5h-109v121z" />
    <glyph glyph-name="asciitilde" unicode="~" horiz-adv-x="799" 
d="M92 342q58 115 172 115q69 0 160 -47q45 -23 74 -34t45 -11q42 0 116 92l52 -119q-65 -111 -170 -111q-53 0 -144 47q-45 23 -77 35.5t-52 12.5q-76 0 -129 -95z" />
    <glyph glyph-name="uni00A0" unicode="&#xa0;" horiz-adv-x="512" 
 />
    <glyph glyph-name="currency" unicode="&#xa4;" horiz-adv-x="840" 
d="M8 164l148 145q-62 83 -62 193q0 114 62 188l-148 150l76 71l145 -145q80 59 193 59q55 0 105.5 -16t82.5 -43l150 145l71 -71l-145 -150q59 -80 59 -188q0 -113 -59 -193l145 -145l-71 -76l-150 148q-15 -13 -36 -23.5t-47 -20.5q-53 -18 -105 -18q-110 0 -193 62
l-145 -148zM197 502q0 -94 63 -164q65 -68 162 -68q92 0 158 68q63 63 63 164q0 46 -16.5 87t-45.5 72t-70 49.5t-89 18.5q-96 0 -160 -67q-65 -74 -65 -160z" />
    <glyph glyph-name="FL00A9h" unicode="&#xa9;" horiz-adv-x="1081" 
d="M33 485q0 211 149 357q76 72 164.5 108.5t196.5 36.5q208 0 356 -145q150 -146 150 -357q0 -215 -150 -362q-75 -72 -162.5 -109t-193.5 -37q-108 0 -196.5 37t-164.5 109q-149 146 -149 362zM125 485q0 -186 119 -311q120 -123 299 -123q175 0 295 123q60 63 89 140
t29 171q0 180 -120 303q-119 125 -293 125q-180 0 -299 -125q-119 -121 -119 -303zM258 483q0 69 21 125.5t59.5 97t93.5 63t123 22.5q49 0 92.5 -13.5t77 -40t55.5 -64.5t29 -87h-86q-5 28 -19.5 52.5t-36.5 41.5t-50.5 27t-61.5 10q-48 0 -86.5 -17.5t-64.5 -48.5
t-40 -73.5t-14 -92.5q0 -49 15 -92t42.5 -75.5t66 -51t85.5 -18.5q66 0 109.5 37t54.5 100h86q-10 -49 -33 -88.5t-56 -67t-74 -42.5t-87 -15q-68 0 -123 23.5t-95 64.5t-61.5 98t-21.5 125z" />
    <glyph glyph-name="guillemotleft" unicode="&#xab;" horiz-adv-x="616" 
d="M68 293v151l206 168v-141l-127 -102l127 -105v-141zM332 293v151l207 168v-141l-129 -102l129 -105v-141z" />
    <glyph glyph-name="logicalnot" unicode="&#xac;" horiz-adv-x="741" 
d="M42 297v90h656v-268h-82v178h-574z" />
    <glyph glyph-name="minus" unicode="&#xad;" horiz-adv-x="741" 
d="M51 272v140h639v-140h-639z" />
    <glyph glyph-name="registered" unicode="&#xae;" horiz-adv-x="1081" 
d="M33 485q0 211 149 357q76 72 164.5 108.5t196.5 36.5q208 0 356 -145q150 -146 150 -357q0 -215 -150 -362q-75 -72 -162.5 -109t-193.5 -37q-108 0 -196.5 37t-164.5 109q-149 146 -149 362zM125 485q0 -186 119 -311q120 -123 299 -123q175 0 295 123q60 63 89 140
t29 171q0 91 -29 166.5t-89 136.5q-119 125 -295 125q-179 0 -299 -122q-119 -122 -119 -306zM344 188v590h229q207 0 207 -168q0 -143 -155 -161l168 -261h-99l-159 254h-99v-254h-92zM436 516h96q39 0 66.5 3t42.5 11q23 11 35 31.5t12 52.5q0 91 -129 91h-123v-189z" />
    <glyph glyph-name="degree" unicode="&#xb0;" horiz-adv-x="541" 
d="M66 713q0 40 15.5 77t42.5 64.5t63.5 44t78.5 16.5q43 0 80.5 -16t65 -43t43.5 -64t16 -79t-16 -79t-43.5 -64.5t-65 -43.5t-80.5 -16q-41 0 -77 15.5t-63.5 43t-43.5 64.5t-16 80zM121 713q0 -30 11.5 -57t31 -47t46 -32t56.5 -12q62 0 105 43q45 46 45 105
q0 30 -12 56.5t-32.5 46t-47.5 31t-58 11.5t-57.5 -11t-46 -30.5t-30.5 -46t-11 -57.5z" />
    <glyph glyph-name="paragraph" unicode="&#xb6;" horiz-adv-x="727" 
d="M0 858q0 153 94 229q90 66 248 66h389v-41h-102v-1356h-62v1356h-145v-1356h-55v805q-168 0 -263 62q-104 74 -104 235z" />
    <glyph glyph-name="periodcentered" unicode="&#xb7;" horiz-adv-x="338" 
d="M96 449q0 30 20.5 50.5t53.5 20.5q31 0 51.5 -21.5t20.5 -49.5q0 -31 -21.5 -52.5t-50.5 -21.5q-33 0 -53.5 20.5t-20.5 53.5z" />
    <glyph glyph-name="guillemotright" unicode="&#xbb;" horiz-adv-x="616" 
d="M80 123v141l129 105l-129 102v141l207 -168v-151zM344 123v141l127 105l-127 102v141l207 -168v-151z" />
    <glyph glyph-name="multiply" unicode="&#xd7;" horiz-adv-x="741" 
d="M37 106l235 236l-235 236l98 98l236 -236l235 236l99 -98l-236 -236l236 -236l-99 -98l-235 236l-236 -236z" />
    <glyph glyph-name="divide" unicode="&#xf7;" horiz-adv-x="741" 
d="M51 272v140h639v-140h-639zM274 66q0 21 8 38.5t21 30t30.5 20t37.5 7.5q42 0 69 -27t27 -69q0 -20 -7.5 -37.5t-20 -30.5t-30 -21t-38.5 -8q-20 0 -37.5 8t-30.5 21t-21 30.5t-8 37.5zM274 618q0 21 8 39t21 30.5t30.5 20t37.5 7.5q42 0 69 -27.5t27 -69.5
q0 -19 -7.5 -36.5t-20 -30.5t-30 -21t-38.5 -8q-20 0 -37.5 8t-30.5 21t-21 30.5t-8 36.5z" />
    <glyph glyph-name="uni0E00" unicode="&#xe00;" horiz-adv-x="205" 
 />
    <glyph glyph-name="uni0E01" unicode="&#xe01;" horiz-adv-x="852" 
d="M82 0v651q127 183 344 183q75 0 135.5 -18.5t108.5 -53.5q100 -76 100 -213v-549h-160v543q0 36 -14.5 64.5t-40 48t-59 30t-70.5 10.5q-113 0 -184 -86v-610h-160z" />
    <glyph glyph-name="uni0E02" unicode="&#xe02;" horiz-adv-x="768" 
d="M45 322q0 163 168 288l-111 135l136 86l170 -223q-205 -124 -205 -286q0 -41 12.5 -76.5t36 -62.5t56 -42.5t71.5 -15.5q33 0 60.5 12.5t47 33.5t30.5 49t11 59v540h160v-540q0 -63 -21.5 -116t-66.5 -95q-43 -42 -97.5 -62t-123.5 -20q-144 0 -240 96q-94 94 -94 240z
" />
    <glyph glyph-name="uni0E03" unicode="&#xe03;" horiz-adv-x="778" 
d="M27 737l82 92q27 -14 50 -29t40 -32l59 51h123v-266q-41 -15 -73 -39t-54.5 -55t-34.5 -66.5t-12 -73.5q0 -41 13 -76t37 -61.5t57 -41.5t73 -15q31 0 59 13t48.5 35t32.5 50.5t12 59.5v536h157v-536q0 -128 -90 -213q-89 -84 -219 -84q-69 0 -128 23t-107 71
q-97 94 -97 239q0 164 174 275v63l-45 -32q-18 21 -41 41q-57 48 -116 71z" />
    <glyph glyph-name="uni0E04" unicode="&#xe04;" horiz-adv-x="852" 
d="M82 0v545q0 124 96 207q97 82 248 82q152 0 246 -82q98 -81 98 -207v-545h-160v545q0 33 -14 60t-39 46.5t-58.5 30t-72.5 10.5t-72.5 -10.5t-57.5 -30t-38 -46.5t-14 -60v-60h235v-143h-235v-342h-162z" />
    <glyph glyph-name="uni0E05" unicode="&#xe05;" horiz-adv-x="895" 
d="M82 0v557q0 56 19 105t54.5 86.5t86 60t112.5 25.5l95 -84l96 84q122 -5 198 -86q70 -76 70 -191v-557h-162v567q0 86 -78 119l-120 -119l-134 119q-73 -30 -73 -119v-82h256v-143h-256v-342h-164z" />
    <glyph glyph-name="uni0E06" unicode="&#xe06;" horiz-adv-x="877" 
d="M14 737l82 92q28 -14 50.5 -29t39.5 -32l60 51h133v-211q0 -32 -60 -80q-57 -45 -57 -86v-145q0 -64 70 -119t143 -55q76 0 121 45q39 39 39 104v547h160v-551q0 -64 -20 -116t-57 -89t-90 -57t-118 -20q-146 0 -248 116v-102h-160v459q0 48 58 88q57 39 57 69v41
l-45 -32q-9 11 -19.5 21t-21.5 20q-57 47 -117 71z" />
    <glyph glyph-name="uni0E07" unicode="&#xe07;" horiz-adv-x="795" 
d="M-8 819h164l155 -680q64 0 115 19t87 54t55.5 84t19.5 110q0 283 -328 268v147q244 15 371 -100q119 -107 119 -315q0 -99 -31.5 -175.5t-91.5 -129t-148.5 -80t-202.5 -27.5q-23 0 -46 1t-46 3z" />
    <glyph glyph-name="uni0E08" unicode="&#xe08;" horiz-adv-x="811" 
d="M-2 670q81 81 173.5 122.5t203.5 41.5q178 0 284 -115q107 -113 107 -293q0 -188 -119 -307q-125 -125 -338 -125h-29t-30 2l-86 385h-82v143h221l82 -377q48 5 87.5 26t70.5 63q63 81 63 190q0 56 -18.5 103t-51.5 81t-79.5 53t-102.5 19q-145 0 -256 -111z" />
    <glyph glyph-name="uni0E09" unicode="&#xe09;" horiz-adv-x="815" 
d="M16 348v144h222v-242q0 -131 137 -131q73 0 137 55q66 57 66 123v248q0 33 -14.5 60.5t-39 48t-58 31.5t-71.5 11q-155 0 -200 -137h-154q21 130 129 207q101 68 225 68q140 0 238 -72q100 -76 100 -203v-459l41 -100h-196v102q-84 -116 -238 -116q-118 0 -184 63
q-74 71 -74 199v100h-66z" />
    <glyph glyph-name="uni0E0A" unicode="&#xe0a;" horiz-adv-x="780" 
d="M82 41v778h162v-680q31 -8 58 -12t50 -2q50 1 91 17t70.5 44t45.5 65t16 81q0 197 -258 274l240 228l154 -62l-160 -151q184 -90 184 -297q0 -74 -25.5 -135t-74.5 -105.5t-120.5 -69.5t-162.5 -26q-132 -3 -270 53z" />
    <glyph glyph-name="uni0E0B" unicode="&#xe0b;" horiz-adv-x="811" 
d="M0 737l82 92q49 -21 80 -61l59 51h127v-186q0 -31 -41 -84t-41 -94v-316q31 -8 60 -12t57 -2q50 1 91 17t70.5 44t45.5 65t16 81q0 197 -258 274l240 228l155 -60l-161 -153q184 -90 184 -297q0 -74 -25.5 -135t-74.5 -105.5t-120.5 -69.5t-162.5 -26q-132 -3 -270 53
v428q0 47 39 92q20 23 30.5 42t10.5 36v18l-46 -32q-8 11 -15.5 20t-18.5 19q-25 21 -53 39.5t-60 33.5z" />
    <glyph glyph-name="uni0E0C" unicode="&#xe0c;" horiz-adv-x="1368" 
d="M82 0v651q127 183 344 183q75 0 135.5 -18.5t108.5 -53.5q100 -76 100 -213v-246q0 -69 61 -127q63 -57 144 -57q69 0 110 41.5t41 113.5v545h160v-555q0 -65 -18.5 -116.5t-53 -87.5t-85.5 -55t-115 -19q-136 0 -244 116v-102h-160v543q0 36 -14.5 64.5t-40 48t-59 30
t-70.5 10.5q-113 0 -184 -86v-473h120v-137h-280z" />
    <glyph glyph-name="uni0E0D" unicode="&#xe0d;" horiz-adv-x="1368" 
d="M82 0v651q127 183 344 183q75 0 135.5 -18.5t108.5 -53.5q100 -76 100 -213v-82q0 -129 176 -129q38 0 71 9.5t57 27.5t38 43t14 57v344h160v-534q0 -127 -100 -215q-101 -86 -250 -86q-94 0 -174 23t-152 71l80 119q105 -78 236 -78q43 0 79 12.5t62 34t41.5 51
t17.5 62.5q-74 -78 -194 -78q-154 0 -238 66t-84 192v84q0 36 -14.5 64.5t-40 48t-59 30t-70.5 10.5q-113 0 -184 -86v-473h120v-137h-280z" />
    <glyph glyph-name="uni0E0E" unicode="&#xe0e;" horiz-adv-x="860" 
d="M10 0v143h82v508q127 183 344 183q76 0 136 -18.5t108 -53.5q100 -75 100 -213v-856h-159l-150 119l-154 -119h-307v143h279l186 133l146 -108v682q0 36 -14.5 64.5t-40 48t-59 30t-71.5 10.5q-113 0 -184 -86v-610h-242z" />
    <glyph glyph-name="uni0E0F" unicode="&#xe0f;" horiz-adv-x="860" 
d="M10 0v143h82v508q127 183 344 183q76 0 136 -18.5t108 -53.5q100 -75 100 -213v-856h-153l-88 88l-109 -111l-106 111l-91 -88h-223v143h176l146 119l98 -105l107 105l84 -78v666q0 36 -14.5 64.5t-40 48t-59 30t-71.5 10.5q-113 0 -184 -86v-610h-242z" />
    <glyph glyph-name="uni0E10" unicode="&#xe10;" horiz-adv-x="813" 
d="M-2 670q81 81 173.5 122.5t203.5 41.5q48 0 91 -9t83 -26l69 92l148 -72l-94 -112q94 -106 94 -281q0 -188 -119 -307q-125 -125 -338 -125h-29t-30 2l-86 385h-82v143h221l82 -377q48 5 87.5 26t70.5 63q63 81 63 190q0 56 -18.5 103t-51.5 81t-79.5 53t-102.5 19
q-145 0 -256 -111zM18 -160h170l129 94l97 -94l96 94l100 -84v99l-32 51h192v-303h-170l-88 82l-98 -107l-107 107l-86 -82h-203v143z" />
    <glyph glyph-name="uni0E11" unicode="&#xe11;" horiz-adv-x="887" 
d="M4 737l82 92q28 -14 50.5 -29t39.5 -32l60 51h133v-186q0 -42 -50 -98q-47 -53 -47 -93v-88q0 -20 -4 -54t-12 -85h4q14 42 36.5 96t51.5 123l199 389q132 3 192 -45q32 -28 49 -74t17 -112v-592h-160v594q0 61 -45 61l-328 -655h-159v453q0 48 47 92t47 71v41l-45 -32
q-9 11 -19.5 21t-21.5 20q-57 47 -117 71z" />
    <glyph glyph-name="uni0E12" unicode="&#xe12;" horiz-adv-x="1417" 
d="M49 395q3 155 92 283q45 60 96.5 98t114.5 53l113 -94l98 88q254 -27 254 -272v-248q0 -68 62 -127q63 -57 143 -57q69 0 110.5 41.5t41.5 113.5v545h159v-555q0 -65 -18.5 -116.5t-53 -87.5t-85.5 -55t-115 -19q-136 0 -244 116v-102h-162v563q0 73 -55 107l-131 -115
l-139 115q-118 -103 -121 -275q-1 -54 9.5 -100.5t31.5 -80t51.5 -52.5t69.5 -19q63 0 108 62l111 -99q-45 -58 -100.5 -87t-124.5 -29q-74 0 -133 29t-100 82t-62.5 127.5t-20.5 166.5z" />
    <glyph glyph-name="uni0E13" unicode="&#xe13;" horiz-adv-x="1368" 
d="M82 0v651q127 183 344 183q75 0 135.5 -18.5t108.5 -53.5q100 -76 100 -213v-275q0 -72 41.5 -113.5t110.5 -41.5q81 0 141 57q63 57 63 127v516h160v-819h-160v102q-107 -116 -243 -116q-65 0 -115.5 19t-85.5 55t-53.5 87.5t-18.5 116.5v279q0 36 -14.5 64.5t-40 48
t-59 30t-70.5 10.5q-113 0 -184 -86v-473h120v-137h-280z" />
    <glyph glyph-name="uni0E14" unicode="&#xe14;" horiz-adv-x="879" 
d="M47 391q3 179 121 309q122 134 293 134q243 0 336 -175v-659h-160v618q-41 78 -168 78q-111 0 -186 -94q-38 -46 -56 -98.5t-20 -112.5q-3 -103 37 -170q42 -76 123 -76q59 0 110 54l107 -105q-96 -104 -217 -104q-78 0 -138 28t-101 80t-61.5 126.5t-19.5 166.5z" />
    <glyph glyph-name="uni0E15" unicode="&#xe15;" horiz-adv-x="897" 
d="M47 395q3 155 92 283q45 60 96.5 98t114.5 53l113 -94l98 88q254 -27 254 -272v-551h-162v563q0 73 -55 107l-131 -115l-139 115q-118 -103 -121 -275q-1 -54 9.5 -100.5t31.5 -80t51.5 -52.5t69.5 -19q32 0 58.5 15.5t49.5 46.5l111 -99q-45 -58 -100.5 -87t-125.5 -29
q-74 0 -132.5 29t-99.5 82t-62.5 127.5t-20.5 166.5z" />
    <glyph glyph-name="uni0E16" unicode="&#xe16;" horiz-adv-x="852" 
d="M82 0v651q127 183 344 183q75 0 135.5 -18.5t108.5 -53.5q100 -76 100 -213v-549h-160v543q0 36 -14.5 64.5t-40 48t-59 30t-70.5 10.5q-113 0 -184 -86v-473h120v-137h-280z" />
    <glyph glyph-name="uni0E17" unicode="&#xe17;" horiz-adv-x="856" 
d="M82 0v819h160v-102q101 117 247 117q66 0 118.5 -20.5t89.5 -57.5t57 -89t20 -116v-551h-160v547q0 66 -39 104q-44 45 -120 45q-74 0 -144 -55q-69 -54 -69 -119v-522h-160z" />
    <glyph glyph-name="uni0E18" unicode="&#xe18;" horiz-adv-x="786" 
d="M53 606q0 96 94 160q98 65 218 65q127 0 221 -55q51 -32 84 -74.5t47 -99.5h-164q-37 94 -199 94q-30 0 -55.5 -6t-44 -16t-29 -24t-10.5 -29q0 -48 186 -72q326 -44 326 -281q0 -133 -111 -211q-100 -69 -258 -69q-63 0 -132.5 12.5t-147.5 38.5v297l155 55v-254
q26 -8 57 -11t68 -3q42 0 80 10t66.5 28.5t45.5 45.5t17 61q0 115 -192 138q-322 39 -322 200z" />
    <glyph glyph-name="uni0E19" unicode="&#xe19;" horiz-adv-x="852" 
d="M82 268v551h160v-547q0 -32 11 -59t31 -47t49.5 -31.5t67.5 -11.5q74 0 144 55q69 54 69 119v522h160v-819h-160v102q-101 -116 -247 -116q-65 0 -118 20t-90 57t-57 89t-20 116z" />
    <glyph glyph-name="uni0E1A" unicode="&#xe1a;" horiz-adv-x="852" 
d="M82 274v545h160v-545q0 -33 13.5 -60.5t37.5 -47t58 -30.5t75 -11t75 11t58 30.5t37.5 47t13.5 60.5v545h160v-545q0 -63 -25.5 -113.5t-76.5 -92.5q-100 -82 -242 -82q-72 0 -132.5 20t-111.5 62q-100 82 -100 206z" />
    <glyph glyph-name="uni0E1B" unicode="&#xe1b;" horiz-adv-x="852" 
d="M82 274v545h160v-545q0 -33 13.5 -60.5t37.5 -47t58 -30.5t75 -11t75 11t58 30.5t37.5 47t13.5 60.5v709h160v-709q0 -63 -25.5 -113.5t-76.5 -92.5q-100 -82 -242 -82q-72 0 -132.5 20t-111.5 62q-100 82 -100 206z" />
    <glyph glyph-name="uni0E1C" unicode="&#xe1c;" horiz-adv-x="1069" 
d="M2 819h303v-139h-102l100 -385l176 524h109l182 -526l143 526h152l-223 -819h-121l-189 547l-184 -547h-119z" />
    <glyph glyph-name="uni0E1D" unicode="&#xe1d;" horiz-adv-x="1069" 
d="M2 819h303v-139h-102l100 -385l176 524h109l182 -526l184 690h152l-264 -983h-121l-189 547l-184 -547h-119z" />
    <glyph glyph-name="uni0E1E" unicode="&#xe1e;" horiz-adv-x="1069" 
d="M2 819h162l139 -524l176 524h109l182 -526l143 526h152l-223 -819h-121l-189 547l-184 -547h-119z" />
    <glyph glyph-name="uni0E1F" unicode="&#xe1f;" horiz-adv-x="1069" 
d="M2 819h162l139 -524l176 524h109l182 -526l184 690h152l-264 -983h-121l-189 547l-184 -547h-119z" />
    <glyph glyph-name="uni0E20" unicode="&#xe20;" horiz-adv-x="862" 
d="M10 0v143h82v508q127 183 344 183q76 0 136 -18.5t108 -53.5q100 -75 100 -213v-549h-159v543q0 36 -14.5 64.5t-40 48t-59 30t-71.5 10.5q-113 0 -184 -86v-610h-242z" />
    <glyph glyph-name="uni0E21" unicode="&#xe21;" horiz-adv-x="852" 
d="M82 0v819h160v-522q0 -65 69 -119q70 -55 144 -55q76 0 120 45q39 39 39 104v547h160v-551q0 -64 -20 -116t-57 -89t-89.5 -57t-118.5 -20q-146 0 -247 116v-102h-160z" />
    <glyph glyph-name="uni0E22" unicode="&#xe22;" horiz-adv-x="846" 
d="M47 260q0 66 37 115t113 78q-27 7 -51 22t-41.5 36t-28 46.5t-10.5 54.5q0 89 77 154q76 63 189 63q38 0 74.5 -6t68.5 -20v-150q-49 31 -125 31q-24 0 -46 -5.5t-38.5 -15.5t-26.5 -23.5t-10 -29.5q0 -38 54 -63q48 -23 116 -23q20 0 39.5 1.5t36.5 6.5v-143h-69
q-195 0 -195 -127q0 -31 15.5 -56t44 -43t67.5 -28t86 -10q114 0 180 57v637h160v-684q-123 -147 -340 -147q-89 0 -158.5 19.5t-118.5 55.5t-74.5 86t-25.5 111z" />
    <glyph glyph-name="uni0E23" unicode="&#xe23;" horiz-adv-x="788" 
d="M45 279h158q3 -75 61 -117q52 -37 135 -37q37 0 71 9.5t59.5 26.5t41 40t15.5 51q0 89 -189 110q-155 16 -231 54q-105 52 -105 155q0 116 97 189q95 74 231 74q68 0 128 -18t107 -50.5t78 -78.5t41 -101h-161q-44 110 -205 110q-31 0 -59 -7.5t-49 -21t-33.5 -32.5
t-12.5 -41q0 -65 201 -86q75 -8 128.5 -21.5t88.5 -33.5q104 -59 104 -183q0 -130 -106 -211q-97 -73 -244 -73q-146 0 -241 71q-54 42 -80.5 96t-28.5 126z" />
    <glyph glyph-name="uni0E24" unicode="&#xe24;" horiz-adv-x="852" 
d="M82 0v651q127 183 344 183q75 0 135.5 -18.5t108.5 -53.5q100 -76 100 -213v-856h-160v850q0 36 -14.5 64.5t-40 48t-59 30t-70.5 10.5q-113 0 -184 -86v-473h120v-137h-280z" />
    <glyph glyph-name="uni0E25" unicode="&#xe25;" horiz-adv-x="868" 
d="M43 262q0 64 25.5 118.5t72.5 94.5t115 62t154 22q63 0 117.5 -14t99.5 -43v94q-6 21 -24.5 39.5t-44 32t-56.5 21t-62 7.5q-152 0 -200 -116h-172q36 122 143 190q100 64 240 64q127 0 225 -62q86 -56 110 -137v-635h-159v307q-64 109 -217 109q-45 0 -83 -11.5
t-65 -32.5t-42 -49t-15 -61q0 -24 9 -46.5t25 -39.5t38.5 -27t50.5 -10q57 0 108 39l80 -112q-88 -76 -201 -76q-121 0 -198 80q-74 80 -74 192z" />
    <glyph glyph-name="uni0E26" unicode="&#xe26;" horiz-adv-x="862" 
d="M10 0v143h82v508q127 183 344 183q76 0 136 -18.5t108 -53.5q100 -75 100 -213v-856h-159v850q0 36 -14.5 64.5t-40 48t-59 30t-71.5 10.5q-113 0 -184 -86v-610h-242z" />
    <glyph glyph-name="uni0E27" unicode="&#xe27;" horiz-adv-x="784" 
d="M39 287h164q47 -158 180 -158q96 0 152 90q45 76 45 191q0 58 -12.5 107t-35.5 87q-51 88 -149 88q-134 0 -180 -160h-164q15 68 45 123.5t73.5 95.5t100.5 61.5t125 21.5q166 0 264 -125q48 -60 70 -134t22 -165t-22 -166t-70 -133q-98 -125 -264 -125q-138 0 -229 86
q-88 80 -115 215z" />
    <glyph glyph-name="uni0E28" unicode="&#xe28;" horiz-adv-x="848" 
d="M80 0v545q0 124 96 207q97 82 248 82q87 0 149 -27l56 84l147 -72l-78 -94q70 -73 70 -180v-545h-160v545q0 33 -14 60t-39 46.5t-58.5 30t-72.5 10.5t-72.5 -10.5t-58 -30t-38 -46.5t-13.5 -60v-60h235v-143h-235v-342h-162z" />
    <glyph glyph-name="uni0E29" unicode="&#xe29;" horiz-adv-x="864" 
d="M82 274v545h160v-545q0 -33 13.5 -60.5t37.5 -47t58 -30.5t75 -11t75 11t58 30.5t37.5 47t13.5 60.5v86h-215v175l80 -31h135v315h160v-315h86v-144h-86v-86q0 -63 -25.5 -113.5t-76.5 -92.5q-100 -82 -242 -82q-72 0 -132.5 20t-111.5 62q-100 82 -100 206z" />
    <glyph glyph-name="uni0E2A" unicode="&#xe2a;" horiz-adv-x="868" 
d="M43 262q0 64 25.5 118.5t72.5 94.5t115 62t154 22q63 0 117.5 -14t99.5 -43v94q-6 21 -24.5 39.5t-44 32t-56.5 21t-62 7.5q-152 0 -200 -116h-172q36 122 143 190q100 64 240 64q81 0 147 -25l59 82l148 -72l-78 -88q23 -22 37 -46t22 -50v-635h-159v307
q-64 109 -217 109q-45 0 -83 -11.5t-65 -32.5t-42 -49t-15 -61q0 -24 9 -46.5t25 -39.5t38.5 -27t50.5 -10q57 0 108 39l80 -112q-88 -76 -201 -76q-121 0 -198 80q-74 80 -74 192z" />
    <glyph glyph-name="uni0E2B" unicode="&#xe2b;" horiz-adv-x="858" 
d="M82 0v819h160v-284l360 294l164 -41l-195 -159q207 -35 207 -221v-408h-157v350q0 167 -158 193l-221 -183v-360h-160z" />
    <glyph glyph-name="uni0E2C" unicode="&#xe2c;" horiz-adv-x="1069" 
d="M2 819h162l139 -524l176 524h109l182 -526l72 268q4 15 4 33q0 82 -78 82h-66v143h89q121 0 139 70l11 45h158l-26 -94q-27 -103 -141 -115q72 -35 72 -113q0 -23 -9 -51l-153 -561h-121l-189 547l-184 -547h-119z" />
    <glyph glyph-name="uni0E2D" unicode="&#xe2d;" horiz-adv-x="926" 
d="M45 410q0 35 6 82h375v-144h-213q18 -99 83.5 -156t166.5 -57q58 0 105.5 20t81.5 56.5t52.5 87t18.5 111.5q0 59 -18.5 109t-52.5 86t-81.5 56.5t-105.5 20.5q-157 0 -227 -135h-173q44 140 156 215q106 72 244 72q188 0 301 -119q117 -120 117 -305q0 -186 -117 -306
q-114 -118 -301 -118q-186 0 -303 118q-115 121 -115 306z" />
    <glyph glyph-name="uni0E2E" unicode="&#xe2e;" horiz-adv-x="926" 
d="M45 410q0 35 6 82h375v-144h-213q18 -99 83.5 -156t166.5 -57q58 0 105.5 20t81.5 56.5t52.5 87t18.5 111.5q0 59 -18.5 109t-52.5 86t-81.5 56.5t-105.5 20.5q-157 0 -227 -135h-173q44 140 156 215q106 72 244 72q91 0 174 -33l70 90l147 -72l-90 -104
q117 -117 117 -305q0 -186 -117 -306q-114 -118 -301 -118q-186 0 -303 118q-115 121 -115 306z" />
    <glyph glyph-name="uni0E2F" unicode="&#xe2f;" horiz-adv-x="799" 
d="M25 623q0 43 20 81t54.5 65.5t82 43.5t103.5 16q78 0 147 -28v-146q-61 31 -145 31q-103 0 -103 -63q0 -18 11 -32t30 -23t43 -14t51 -5q148 0 238 108v162h160v-819h-160v492q-94 -82 -238 -82q-69 0 -123 16.5t-96 48.5q-75 57 -75 148z" />
    <glyph glyph-name="uni0E30" unicode="&#xe30;" horiz-adv-x="382" 
d="M51 102v187h160v-68h129v-119h-289zM51 530v187h160v-68h129v-119h-289z" />
    <glyph glyph-name="uni0E31" unicode="&#xe31;" 
d="M-414 922v204h160v-86h444v-118h-604z" />
    <glyph glyph-name="uni0E32" unicode="&#xe32;" horiz-adv-x="604" 
d="M33 635v158q87 41 190 41q144 0 226 -91q73 -82 73 -215v-528h-160v508q0 85 -50 130.5t-132 45.5q-89 0 -147 -49z" />
    <glyph glyph-name="uni0E33" unicode="&#xe33;" horiz-adv-x="590" 
d="M-295 1034q0 27 10 49.5t28 39t42 25.5t53 9q28 0 52.5 -9t42.5 -25.5t28 -39t10 -49.5t-10 -49.5t-28 -39t-42.5 -25.5t-52.5 -9q-29 0 -53 9t-42 25.5t-28 39t-10 49.5zM-213 1034q0 -47 51 -47t51 47t-51 47t-51 -47zM33 635v158q87 41 190 41q144 0 226 -91
q73 -82 73 -215v-528h-160v508q0 85 -50 130.5t-132 45.5q-89 0 -147 -49z" />
    <glyph glyph-name="uni0E34" unicode="&#xe34;" 
d="M-737 922v118h655v-118h-655z" />
    <glyph glyph-name="uni0E35" unicode="&#xe35;" 
d="M-737 922v118h495v107h160v-225h-655z" />
    <glyph glyph-name="uni0E36" unicode="&#xe36;" 
d="M-737 922v118h456q2 51 35.5 84t87.5 33q27 0 50 -9.5t39.5 -25.5t26 -37.5t9.5 -46.5q0 -24 -9.5 -45.5t-26 -37t-39.5 -24.5t-50 -9h-579zM-201 1038q0 -43 43 -43t43 43t-43 43t-43 -43z" />
    <glyph glyph-name="uni0E37" unicode="&#xe37;" 
d="M-737 922v118h325v107h109v-107h61v107h160v-225h-655z" />
    <glyph glyph-name="uni0E38" unicode="&#xe38;" 
d="M-324 -82h242v-256h-160v133h-82v123z" />
    <glyph glyph-name="uni0E39" unicode="&#xe39;" 
d="M-520 -82h194v-135q16 -8 35 -8q49 0 49 37v106h160v-123q0 -32 -15 -57t-41.5 -43t-62 -27.5t-75.5 -9.5q-60 0 -106 15.5t-77 47.5v74h-61v123z" />
    <glyph glyph-name="uni0E3A" unicode="&#xe3a;" 
d="M-276 -184q0 21 9 39.5t24.5 32.5t35.5 22t43 8q22 0 42.5 -8t36.5 -22t25 -32.5t9 -39.5t-9 -39.5t-25 -33t-36.5 -22.5t-42.5 -8q-23 0 -43 8t-35.5 22.5t-24.5 33t-9 39.5z" />
    <glyph glyph-name="uni0E3F" unicode="&#xe3f;" horiz-adv-x="952" 
d="M106 0v965h332v129h78v-129h49q289 0 289 -240q0 -144 -135 -205v-2q176 -39 176 -250q0 -120 -82 -190q-90 -78 -266 -78h-31v-135h-78v135h-332zM274 137h164v301h-164v-301zM274 561h164v266h-164v-266zM516 137h55q160 0 160 154q0 147 -170 147h-45v-301zM516 561
h31q63 0 102 35t39 98q0 133 -149 133h-23v-266z" />
    <glyph glyph-name="uni0E40" unicode="&#xe40;" horiz-adv-x="365" 
d="M102 0v819h160v-819h-160z" />
    <glyph glyph-name="uni0E41" unicode="&#xe41;" horiz-adv-x="668" 
d="M102 0v819h160v-819h-160zM406 0v819h159v-819h-159z" />
    <glyph glyph-name="uni0E42" unicode="&#xe42;" horiz-adv-x="406" 
d="M-6 1118q0 121 176 121h270v-129h-233q-47 0 -47 -8q0 -11 33 -33q39 -30 57 -57q33 -47 33 -113v-899h-160v893q0 61 -66 121q-63 57 -63 104z" />
    <glyph glyph-name="uni0E43" unicode="&#xe43;" horiz-adv-x="406" 
d="M-88 1049q0 49 18.5 91.5t51 73.5t75.5 48.5t93 17.5q51 0 93.5 -15t73 -41.5t47.5 -61.5t17 -75q0 -50 -49 -102t-49 -98v-887h-160v907q0 60 49 103q51 40 51 73q0 66 -69 66q-84 0 -84 -100h-158z" />
    <glyph glyph-name="uni0E44" unicode="&#xe44;" horiz-adv-x="406" 
d="M-121 1167l94 103l119 -111l123 101l180 -191q-112 -87 -112 -221v-848h-160v829q0 123 94 220l-33 34l-106 -94z" />
    <glyph glyph-name="uni0E45" unicode="&#xe45;" horiz-adv-x="627" 
d="M33 635v158q87 41 190 41q73 0 132.5 -23.5t101 -64.5t64 -97t22.5 -121v-835h-160v815q0 40 -14.5 73t-40 55.5t-61 35t-77.5 12.5q-99 0 -157 -49z" />
    <glyph glyph-name="uni0E46" unicode="&#xe46;" horiz-adv-x="797" 
d="M33 410v157q0 262 243 262l97 -71l98 71q118 0 181 -68.5t63 -193.5v-874h-160v891q0 85 -55 106l-123 -102l-135 104q-49 -21 -49 -108v-31h141v-143h-301z" />
    <glyph glyph-name="uni0E47" unicode="&#xe47;" 
d="M-698 922v88q0 47 15.5 86.5t45 68t73 44.5t99.5 16h383v-103h-377q-48 0 -74 -24.5t-26 -55.5h74l108 60l105 -60h127v-120h-138l-94 55l-98 -55h-223z" />
    <glyph glyph-name="uni0E48" unicode="&#xe48;" 
d="M-242 1208v185h160v-185h-160z" />
    <glyph glyph-name="uni0E49" unicode="&#xe49;" 
d="M-397 1319v92h102q94 0 94 -80v-12h228v-111h-371v80q0 31 -27 31h-26z" />
    <glyph glyph-name="uni0E4A" unicode="&#xe4a;" 
d="M-412 1208v107q0 125 129 125h43l74 -51l70 51h39q127 0 127 -115v-16h120v-101h-239v113q0 29 -27 29l-90 -64l-92 64q-37 0 -37 -31v-16h62v-95h-179z" />
    <glyph glyph-name="uni0E4B" unicode="&#xe4b;" 
d="M-326 1286v92h93v78h143v-78h92v-92h-92v-78h-143v78h-93z" />
    <glyph glyph-name="uni0E4C" unicode="&#xe4c;" 
d="M-281 1112v43q0 117 134 117h120v-92h-59q-51 0 -51 -45v-23h-144z" />
    <glyph glyph-name="uni0E4D" unicode="&#xe4d;" 
d="M-295 1034q0 27 10 49.5t28 39t42 25.5t53 9q28 0 52.5 -9t42.5 -25.5t28 -39t10 -49.5t-10 -49.5t-28 -39t-42.5 -25.5t-52.5 -9q-29 0 -53 9t-42 25.5t-28 39t-10 49.5zM-213 1034q0 -47 51 -47t51 47t-51 47t-51 -47z" />
    <glyph glyph-name="uni0E4E" unicode="&#xe4e;" 
d="M-592 1044q0 115 168 150q-39 22 -39 80q0 39 24 72t67.5 57t104 37.5t134.5 13.5q20 0 41 -1t41 -3v-107q-25 5 -50 8t-51 3q-40 0 -73.5 -5t-59.5 -16q-59 -21 -59 -61q0 -50 94 -41v-96q-35 3 -71.5 -0.5t-73.5 -14.5q-80 -24 -80 -65q0 -37 57 -37q52 0 107 31
l49 -84q-79 -43 -162 -43q-36 0 -67 9t-53.5 25t-35 38.5t-12.5 49.5z" />
    <glyph glyph-name="uni0E4F" unicode="&#xe4f;" horiz-adv-x="983" 
d="M72 410q0 174 123 297q122 122 297 122q174 0 296 -122q123 -123 123 -297t-123 -297q-122 -123 -296 -123q-176 0 -297 123q-123 123 -123 297zM133 410q0 -148 105 -254q106 -105 254 -105q147 0 251 105q107 107 107 254q0 148 -107 252q-103 106 -251 106t-254 -106
q-105 -105 -105 -252zM236 410q0 107 73 180q76 76 183 76t180 -76q76 -73 76 -180t-76 -183q-73 -73 -180 -73t-183 73q-73 76 -73 183z" />
    <glyph glyph-name="uni0E50" unicode="&#xe50;" horiz-adv-x="836" 
d="M51 313q0 134 105 230q54 48 118.5 72t143.5 24q155 0 262 -96q104 -95 104 -230q0 -136 -104 -231q-54 -48 -119 -71t-143 -23q-156 0 -262 96q-105 95 -105 229zM209 313q0 -39 15.5 -73.5t43 -60t65.5 -40t83 -14.5t83.5 14.5t66.5 40t43.5 60t15.5 73.5t-15.5 73.5
t-43.5 60t-66.5 40.5t-83.5 15t-83 -15t-65.5 -40.5t-43 -60t-15.5 -73.5z" />
    <glyph glyph-name="uni0E51" unicode="&#xe51;" horiz-adv-x="885" 
d="M51 332q0 134 119 223q112 84 264 84q173 0 285 -88q117 -89 117 -236q0 -170 -142 -288q-126 -108 -313 -136l-74 123q161 16 258 86q111 77 111 195q0 45 -18.5 83.5t-51.5 66.5t-78.5 43.5t-99.5 15.5q-46 0 -86 -14t-69.5 -37.5t-46.5 -55t-17 -65.5q0 -95 80 -125
q-19 18 -19 65q0 30 12.5 56t34 45.5t50.5 31t63 11.5t63.5 -11.5t51.5 -31.5t34.5 -46.5t12.5 -56.5q0 -43 -19 -80t-53 -64t-82 -42.5t-106 -15.5q-62 0 -114 19.5t-89 54.5t-57.5 83.5t-20.5 106.5zM369 272q0 -20 18 -37.5t43 -17.5t43.5 17.5t18.5 37.5q0 54 -62 54
q-61 0 -61 -54z" />
    <glyph glyph-name="uni0E52" unicode="&#xe52;" horiz-adv-x="1233" 
d="M-154 786l123 91q182 -164 256 -361q59 -162 86 -385h695v297q0 78 -84 78q-55 0 -82 -43v-270h-148v270q-24 49 -96 49q-75 0 -96 -59q33 1 61.5 -9.5t49 -29t32.5 -44t12 -55.5q0 -28 -12 -52.5t-32.5 -43t-49 -29t-61.5 -10.5t-61.5 10.5t-49.5 29t-33 43t-12 52.5v99
q0 49 19 90.5t52 71.5t78.5 46.5t98.5 16.5q107 0 174 -64q58 64 162 64q46 0 88.5 -14.5t74.5 -41t51 -63t19 -80.5v-440h-993q-14 148 -36 265t-54 208q-29 82 -86.5 160t-145.5 153zM457 317q0 -49 55 -49t55 49q0 50 -55 50t-55 -50z" />
    <glyph glyph-name="uni0E53" unicode="&#xe53;" horiz-adv-x="1022" 
d="M72 147v265q0 98 86 163q78 60 188 60q128 0 189 -70q60 70 178 70q48 0 91.5 -14.5t75.5 -41t51 -63t19 -80.5v-436h-159v426q0 66 -89 66q-62 0 -90 -37v-455h-155v457q-35 35 -103 35q-49 0 -83.5 -26t-34.5 -71v-94h2q34 0 64.5 -12.5t52.5 -33.5t35 -49t13 -59
q0 -33 -13 -61.5t-35 -50t-52.5 -33.5t-64.5 -12q-35 0 -65 12t-52.5 33.5t-35.5 50t-13 61.5zM182 147q0 -57 60 -57q63 0 63 57q0 58 -63 58q-60 0 -60 -58z" />
    <glyph glyph-name="uni0E54" unicode="&#xe54;" horiz-adv-x="946" 
d="M47 299q-3 138 111 233q57 48 125.5 71.5t146.5 23.5h264q82 0 82 217h164q3 -160 -49 -254q-58 -109 -178 -109h-283q-45 0 -85 -13.5t-69.5 -37.5t-46.5 -57.5t-16 -73.5q3 -79 66 -121q55 -41 135 -41q62 0 98 10q-47 47 -47 113q0 31 13.5 59t36.5 48.5t53.5 32.5
t64.5 12t64.5 -12t53 -32t35.5 -47t13 -57q0 -28 -6.5 -52t-20.5 -44q111 -27 178 -80l-96 -113q-46 26 -90.5 40t-87.5 14q-40 0 -117 -19q-42 -8 -80 -12t-73 -4q-75 0 -136 18.5t-110 57.5q-110 83 -113 229zM569 264q0 -53 66 -53q63 0 63 53q0 55 -63 55q-66 0 -66 -55
z" />
    <glyph glyph-name="uni0E55" unicode="&#xe55;" horiz-adv-x="946" 
d="M47 299q-3 107 74 190q35 39 81 65.5t103 43.5q-22 31 -22 72q0 34 15 63.5t41 52t61 35.5t75 13t75 -12t61.5 -34t41.5 -52t15 -66q0 -20 -17 -43h45q77 0 80 217h164q2 -79 -11.5 -142.5t-39.5 -111.5q-58 -109 -176 -109h-267q-93 0 -161 -47q-75 -54 -72 -135
q3 -79 66 -121q55 -41 135 -41q62 0 98 10q-47 47 -47 113q0 31 13.5 59t36.5 48.5t53.5 32.5t64.5 12t64.5 -12t53 -32t35.5 -47t13 -57q0 -25 -6.5 -49t-20.5 -47q110 -21 178 -80l-96 -113q-46 26 -90.5 40t-87.5 14q-40 0 -117 -19q-42 -8 -80 -12t-73 -4
q-75 0 -136 18.5t-110 57.5q-110 83 -113 229zM406 672q0 -62 69 -62q72 0 72 62q0 61 -72 61q-69 0 -69 -61zM569 264q0 -55 66 -55q63 0 63 55q0 58 -63 58q-66 0 -66 -58z" />
    <glyph glyph-name="uni0E56" unicode="&#xe56;" horiz-adv-x="893" 
d="M-106 754l124 90q156 -98 220 -260q100 55 223 55q168 0 276 -90q54 -45 81.5 -102t27.5 -130q0 -143 -117 -237q-115 -94 -289 -94q-156 0 -254 80q-88 70 -88 165q0 31 13.5 58.5t36 47t53 31t65.5 11.5q34 0 64 -11.5t52.5 -31.5t36 -46.5t13.5 -56.5q0 -59 -47 -100
q8 -2 21.5 -2h33.5q49 0 93 14t76.5 38.5t51.5 58.5t19 75q0 38 -17.5 70t-48 55.5t-71 36.5t-86.5 13q-117 0 -217 -76l-121 28q-37 182 -225 310zM199 231q0 -55 63 -55q66 0 66 55q0 56 -66 56q-63 0 -63 -56z" />
    <glyph glyph-name="uni0E57" unicode="&#xe57;" horiz-adv-x="1272" 
d="M72 147v265q0 98 86 163q78 60 188 60q128 0 189 -70q60 70 178 70q48 0 91.5 -14.5t75.5 -41t51 -63t19 -80.5v-295q15 0 30 5.5t26.5 15t18.5 23.5t7 32v385q0 152 148 242l139 -92q-28 -9 -50.5 -26t-38 -38t-24 -45t-8.5 -47v-379q0 -53 -28.5 -96t-81 -73t-128 -45
t-169.5 -11v434q0 66 -89 66q-62 0 -90 -37v-455h-155v457q-35 35 -103 35q-49 0 -83.5 -26t-34.5 -71v-94h2q34 0 64.5 -12.5t52.5 -33.5t35 -49t13 -59q0 -33 -13 -61.5t-35 -50t-52.5 -33.5t-64.5 -12q-35 0 -65 12t-52.5 33.5t-35.5 50t-13 61.5zM182 147q0 -57 60 -57
q63 0 63 57q0 58 -63 58q-60 0 -60 -58z" />
    <glyph glyph-name="uni0E58" unicode="&#xe58;" horiz-adv-x="981" 
d="M47 301q0 79 33.5 140.5t99.5 109.5q124 88 318 88q136 0 231 -18q26 48 42 104t24 119l159 -23q-30 -213 -153 -366q-76 21 -146.5 32t-136.5 11q-68 0 -124 -14.5t-96 -41t-62.5 -62.5t-22.5 -79q0 -108 94 -147l142 127l190 -148l23 12q-66 40 -66 113q0 31 13 58
t35.5 47.5t52.5 32.5t65 12q34 0 65 -12.5t53.5 -33.5t36 -49t13.5 -59q0 -102 -123 -184q-42 -29 -89 -51t-104 -39l-161 120l-123 -120q-120 30 -197 110q-86 92 -86 211zM700 258q0 -53 62 -53q61 0 61 53q0 23 -18 40t-43 17t-43.5 -17t-18.5 -40z" />
    <glyph glyph-name="uni0E59" unicode="&#xe59;" horiz-adv-x="1067" 
d="M47 324q0 138 105 227q103 88 258 88q129 0 229 -76q66 84 172 84q76 0 100 -24q25 89 7 211h167q2 -17 3.5 -35.5t1.5 -36.5q0 -223 -125 -342l-76 18q-2 25 -23.5 42t-50.5 16q-49 -3 -67 -43q57 -79 95 -189.5t60 -255.5l-168 -20q-65 501 -325 501q-43 0 -79 -12
t-62.5 -34t-41 -53t-14.5 -68q0 -93 57 -150q0 31 13 57.5t35.5 46.5t52.5 31.5t65 11.5q36 0 66.5 -12.5t53 -33.5t35.5 -49.5t13 -59.5q0 -38 -18.5 -70t-49 -55t-70.5 -36t-83 -13q-146 0 -242 100q-94 100 -94 234zM373 166q0 -20 19 -36.5t44 -16.5q64 0 64 53
q0 57 -64 57q-63 0 -63 -57z" />
    <glyph glyph-name="uni0E5A" unicode="&#xe5a;" horiz-adv-x="1061" 
d="M25 623q0 43 20 81t54.5 65.5t82 43.5t103.5 16q78 0 147 -28v-146q-61 31 -145 31q-103 0 -103 -63q0 -18 11 -32t30 -23t43 -14t51 -5q148 0 238 108v162h160v-241q64 27 102 79v162h160v-819h-160v492q-18 -17 -44 -31t-58 -27v-434h-160v492q-94 -82 -238 -82
q-69 0 -123 16.5t-96 48.5q-75 57 -75 148z" />
    <glyph glyph-name="uni0E5B" unicode="&#xe5b;" horiz-adv-x="1540" 
d="M61 414q0 75 19 139t57 115q77 104 193 104q48 0 89 -18.5t73 -57.5q67 -76 67 -188q0 -44 -11 -81t-31.5 -64t-48 -42.5t-60.5 -15.5q-29 0 -53.5 11t-43 30.5t-29 45.5t-10.5 57q0 30 11 56.5t29 46.5t42.5 32t51.5 12h10q-23 66 -84 66q-31 0 -57.5 -19t-46 -52
t-31 -78.5t-11.5 -98.5q0 -117 49 -182.5t130 -65.5q51 0 94 25t76.5 70.5t56.5 110.5t35 146q12 94 69 94q56 0 103 -135q9 115 61 115q37 0 90 -107q9 70 49 70q39 0 91 -94q21 65 57 65q35 0 65 -65q33 38 50 35l178 -17q63 -6 63 -45t-63 -45l-168 -16q-23 -54 -55 -54
q-7 0 -14 6t-14 15.5t-14 21t-14 21.5q-27 -86 -65 -86q-10 0 -18.5 8.5t-16.5 22t-16 29t-17 30.5q-27 -113 -74 -113q-11 0 -20 11t-16.5 27.5t-14.5 37t-14 39.5q-40 -139 -103 -139q-23 0 -45 51l-28 74q-31 -126 -115 -213q-103 -103 -246 -103q-65 0 -118.5 26
t-91.5 72.5t-59.5 112t-21.5 144.5zM358 453q0 -52 48 -52q49 0 49 52q0 51 -49 51q-48 0 -48 -51z" />
    <glyph glyph-name="uni2000" unicode="&#x2000;" horiz-adv-x="799" 
 />
    <glyph glyph-name="uni2001" unicode="&#x2001;" horiz-adv-x="1599" 
 />
    <glyph glyph-name="uni2002" unicode="&#x2002;" horiz-adv-x="799" 
 />
    <glyph glyph-name="uni2003" unicode="&#x2003;" horiz-adv-x="1599" 
 />
    <glyph glyph-name="uni2004" unicode="&#x2004;" horiz-adv-x="533" 
 />
    <glyph glyph-name="uni2005" unicode="&#x2005;" horiz-adv-x="399" 
 />
    <glyph glyph-name="uni2006" unicode="&#x2006;" horiz-adv-x="266" 
 />
    <glyph glyph-name="uni2007" unicode="&#x2007;" horiz-adv-x="266" 
 />
    <glyph glyph-name="uni2008" unicode="&#x2008;" horiz-adv-x="199" 
 />
    <glyph glyph-name="uni2009" unicode="&#x2009;" horiz-adv-x="319" 
 />
    <glyph glyph-name="uni200A" unicode="&#x200a;" horiz-adv-x="88" 
 />
    <glyph glyph-name="zerowidthnonjoiner" unicode="&#x200c;" 
 />
    <glyph glyph-name="zerowidthjoiner" unicode="&#x200d;" 
 />
    <glyph glyph-name="uni2010" unicode="&#x2010;" horiz-adv-x="518" 
d="M66 295v145h387v-145h-387z" />
    <glyph glyph-name="uni2011" unicode="&#x2011;" horiz-adv-x="518" 
d="M66 295v145h387v-145h-387z" />
    <glyph glyph-name="figuredash" unicode="&#x2012;" horiz-adv-x="518" 
d="M66 295v145h387v-145h-387z" />
    <glyph glyph-name="endash" unicode="&#x2013;" horiz-adv-x="741" 
d="M51 272v140h639v-140h-639z" />
    <glyph glyph-name="emdash" unicode="&#x2014;" horiz-adv-x="1483" 
d="M51 272v140h1381v-140h-1381z" />
    <glyph glyph-name="quoteleft" unicode="&#x2018;" horiz-adv-x="369" 
d="M102 584v182q0 73 50 129q23 25 52 42t64 28v-78q-80 -29 -80 -121h80v-182h-166z" />
    <glyph glyph-name="quoteright" unicode="&#x2019;" horiz-adv-x="369" 
d="M102 584v78q82 12 82 120h-82v183h166v-183q0 -40 -11.5 -74t-33.5 -59.5t-52.5 -42t-68.5 -22.5z" />
    <glyph glyph-name="quotedblleft" unicode="&#x201c;" horiz-adv-x="592" 
d="M80 584v182q0 74 49 129q23 25 52.5 42t64.5 28v-78q-80 -29 -80 -121h80v-182h-166zM344 584v182q0 74 49 129q23 25 52.5 42t64.5 28v-78q-80 -29 -80 -121h80v-182h-166z" />
    <glyph glyph-name="quotedblright" unicode="&#x201d;" horiz-adv-x="592" 
d="M80 584v78q82 30 82 120h-82v183h166v-183q0 -152 -166 -198zM344 584v78q82 30 82 120h-82v183h166v-183q0 -152 -166 -198z" />
    <glyph glyph-name="bullet" unicode="&#x2022;" horiz-adv-x="758" 
d="M72 410q0 127 90 217t217 90t217 -90q90 -92 90 -217q0 -127 -90 -217q-88 -91 -217 -91t-217 91q-90 90 -90 217z" />
    <glyph glyph-name="ellipsis" unicode="&#x2026;" horiz-adv-x="1106" 
d="M94 0v182h180v-182h-180zM463 0v182h180v-182h-180zM831 0v182h181v-182h-181z" />
    <glyph glyph-name="uni202F" unicode="&#x202f;" horiz-adv-x="319" 
 />
    <glyph glyph-name="uni205F" unicode="&#x205f;" horiz-adv-x="399" 
 />
    <glyph glyph-name="uni25FC" unicode="&#x25fc;" horiz-adv-x="700" 
d="M0 0v700h700v-700h-700z" />
    <glyph glyph-name="thothannobasethai" unicode="&#xf700;" horiz-adv-x="813" 
d="M-2 670q81 81 173.5 122.5t203.5 41.5q48 0 91 -9t83 -26l69 92l148 -72l-94 -112q94 -106 94 -281q0 -188 -119 -307q-125 -125 -338 -125h-29t-30 2l-86 385h-82v143h221l82 -377q48 5 87.5 26t70.5 63q63 81 63 190q0 56 -18.5 103t-51.5 81t-79.5 53t-102.5 19
q-145 0 -256 -111z" />
    <glyph glyph-name="saraileftthai" unicode="&#xf701;" 
d="M-938 922v118h614v-118h-614z" />
    <glyph glyph-name="saraiileftthai" unicode="&#xf702;" 
d="M-938 922v118h455v107h159v-225h-614z" />
    <glyph glyph-name="saraueleftthai" unicode="&#xf703;" 
d="M-938 922v118h410q2 51 35 84t87 33q27 0 50 -9.5t39.5 -25.5t26 -37.5t9.5 -46.5q0 -24 -9.5 -45.5t-26 -37t-39.5 -24.5t-50 -9h-532zM-449 1038q0 -43 43 -43q44 0 44 43t-44 43q-43 0 -43 -43z" />
    <glyph glyph-name="saraueeleftthai" unicode="&#xf704;" 
d="M-938 922v118h285v107h108v-107h62v107h159v-225h-614z" />
    <glyph glyph-name="maieklowleftthai" unicode="&#xf705;" 
d="M-504 922v225h160v-225h-160z" />
    <glyph glyph-name="maitholowleftthai" unicode="&#xf706;" 
d="M-543 1044v103h113q106 0 106 -88v-15h334v-122h-493v90q0 32 -31 32h-29z" />
    <glyph glyph-name="maitrilowleftthai" unicode="&#xf707;" 
d="M-772 922v116q0 69 40 104.5t103 35.5h47l82 -56l78 56h45q139 0 139 -127v-19h216v-110h-347v125q0 32 -30 32l-101 -71l-102 71q-41 0 -41 -35v-18h70v-104h-199z" />
    <glyph glyph-name="maichattawalowleftthai" unicode="&#xf708;" 
d="M-668 1008v104h103v86h159v-86h103v-104h-103v-86h-159v86h-103z" />
    <glyph glyph-name="thanthakhatlowleftthai" unicode="&#xf709;" 
d="M-483 971v47q0 129 149 129h133v-103h-65q-58 0 -58 -49v-24h-159z" />
    <glyph glyph-name="maieklowrightthai" unicode="&#xf70a;" 
d="M-242 922v225h160v-225h-160z" />
    <glyph glyph-name="maitholowrightthai" unicode="&#xf70b;" 
d="M-420 1044v103h113q106 0 106 -88v-15h252v-122h-411v90q0 32 -31 32h-29z" />
    <glyph glyph-name="maitrilowrightthai" unicode="&#xf70c;" 
d="M-684 922v116q0 69 40 104.5t103 35.5h47l82 -56l78 56h45q139 0 139 -127v-19h136v-110h-267v125q0 32 -30 32l-101 -71l-102 71q-41 0 -41 -35v-18h70v-104h-199z" />
    <glyph glyph-name="maichattawalowrightthai" unicode="&#xf70d;" 
d="M-446 1008v104h102v86h160v-86h102v-104h-102v-86h-160v86h-102z" />
    <glyph glyph-name="thanthakhatlowrightthai" unicode="&#xf70e;" 
d="M-317 922v47q0 129 149 129h133v-103h-65q-58 0 -58 -49v-24h-159z" />
    <glyph glyph-name="yoyingnobasethai" unicode="&#xf70f;" horiz-adv-x="1362" 
d="M82 0v651q127 183 344 183q75 0 135.5 -18.5t108.5 -53.5q100 -76 100 -213v-283q0 -35 13 -61t36.5 -44t55 -27t69.5 -9q39 0 72 9t57 27t37.5 44t13.5 61v553h156v-555q0 -64 -25 -115.5t-69.5 -87.5t-106.5 -55.5t-135 -19.5q-146 0 -239 75q-95 77 -95 203v279
q0 36 -14.5 64.5t-40 48t-59 30t-70.5 10.5q-113 0 -184 -86v-473h120v-137h-280z" />
    <glyph glyph-name="maihanakatleftthai" unicode="&#xf710;" 
d="M-631 922v204h160v-86h485v-118h-645z" />
    <glyph glyph-name="nikhahitleftthai" unicode="&#xf711;" 
d="M-557 1034q0 27 10 49.5t28 39t42 25.5t53 9q28 0 52.5 -9t42.5 -25.5t28 -39t10 -49.5t-10 -49.5t-28 -39t-42.5 -25.5t-52.5 -9q-29 0 -53 9t-42 25.5t-28 39t-10 49.5zM-475 1034q0 -47 51 -47t51 47t-51 47t-51 -47z" />
    <glyph glyph-name="maitaikhuleftthai" unicode="&#xf712;" 
d="M-858 922v88q0 47 15.5 86.5t45 68t73 44.5t99.5 16h383v-103h-376q-48 0 -74.5 -24.5t-26.5 -55.5h74l108 60l105 -60h127v-120h-137l-95 55l-98 -55h-223z" />
    <glyph glyph-name="maiekupperleftthai" unicode="&#xf713;" 
d="M-483 1208v185h159v-185h-159z" />
    <glyph glyph-name="maithoupperleftthai" unicode="&#xf714;" 
d="M-594 1319v92h102q95 0 95 -80v-12h227v-111h-371v80q0 31 -26 31h-27z" />
    <glyph glyph-name="maitriupperleftthai" unicode="&#xf715;" 
d="M-629 1208v107q0 125 129 125h43l74 -51l70 51h39q127 0 127 -115v-16h120v-101h-239v113q0 29 -27 29l-90 -64l-92 64q-37 0 -37 -31v-16h61v-95h-178z" />
    <glyph glyph-name="maichattawaupperleftthai" unicode="&#xf716;" 
d="M-567 1286v92h92v78h143v-78h92v-92h-92v-78h-143v78h-92z" />
    <glyph glyph-name="thanthakhatupperleftthai" unicode="&#xf717;" 
d="M-522 1112v43q0 117 133 117h121v-92h-60q-51 0 -51 -45v-23h-143z" />
    <glyph glyph-name="saraulowthai" unicode="&#xf718;" 
d="M-324 -369h242v-256h-160v133h-82v123z" />
    <glyph glyph-name="sarauulowthai" unicode="&#xf719;" 
d="M-520 -369h194v-135q16 -8 35 -8q49 0 49 37v106h160v-123q0 -32 -15 -57t-41.5 -43t-62 -27.5t-75.5 -9.5q-122 0 -183 64v73h-61v123z" />
    <glyph glyph-name="phinthulowthai" unicode="&#xf71a;" 
d="M-307 -471q0 21 9 39.5t24.5 32.5t35.5 22t43 8q22 0 42.5 -8t36.5 -22t25 -32.5t9 -39.5t-9 -39.5t-25 -32.5t-36.5 -22t-42.5 -8q-23 0 -43 8t-35.5 22t-24.5 32.5t-9 39.5z" />
    <glyph glyph-name="lochula.short" unicode="&#xf71d;" 
 />
    <glyph glyph-name="fongmanfunnuthai" unicode="&#xf880;" 
 />
    <glyph glyph-name="uni0E33_1" horiz-adv-x="604" 
d="M-557 1034q0 27 10 49.5t28 39t42 25.5t53 9q28 0 52.5 -9t42.5 -25.5t28 -39t10 -49.5t-10 -49.5t-28 -39t-42.5 -25.5t-52.5 -9q-29 0 -53 9t-42 25.5t-28 39t-10 49.5zM-475 1034q0 -47 51 -47t51 47t-51 47t-51 -47zM33 635v158q87 41 190 41q144 0 226 -91
q73 -82 73 -215v-528h-160v508q0 85 -50 130.5t-132 45.5q-89 0 -147 -49z" />
    <glyph glyph-name="uni0E4E_1" 
d="M-641 1044q0 115 168 150q-39 22 -39 80q0 39 24 72t67.5 57t104 37.5t134.5 13.5q20 0 41 -1t41 -3v-107q-25 5 -50 8t-51 3q-40 0 -73.5 -5t-59.5 -16q-59 -21 -59 -61q0 -50 94 -41v-96q-35 3 -71.5 -0.5t-73.5 -14.5q-80 -24 -80 -65q0 -37 57 -37q52 0 107 31
l49 -84q-79 -43 -162 -43q-36 0 -67 9t-53.5 25t-35 38.5t-12.5 49.5z" />
    <glyph glyph-name="F881" 
 />
    <glyph glyph-name="F882" 
 />
    <glyph glyph-name="saraueesp2" 
d="M-938 922v118h285v107h108v-107h62v107h159v-225h-614zM-569 1208v185h159v-185h-159z" />
    <glyph glyph-name="saraisp" 
d="M-872 922v118h655v-118h-655z" />
    <glyph glyph-name="saraiisp" 
d="M-872 922v118h495v107h160v-225h-655z" />
    </font>
</defs>
</svg>
