<?xml version="1.0" standalone="no"?>
<!DOCTYPE svg PUBLIC "-//W3C//DTD SVG 1.1//EN" "http://www.w3.org/Graphics/SVG/1.1/DTD/svg11.dtd" >
<svg xmlns="http://www.w3.org/2000/svg" xmlns:xlink="http://www.w3.org/1999/xlink" version="1.1">
<metadata>
Created by FontForge 20170731 at Wed Mar 20 08:38:25 2019
 By Aleksey,,,
Copyright (c) Phanlop Thongsuk, 1995-2007. All rights reserved.
</metadata>
<defs>
<font id="KittithadaBold75Italic" horiz-adv-x="0" >
  <font-face 
    font-family="Kittithada Bold 75   75)"
    font-weight="400"
    font-style="italic"
    font-stretch="normal"
    units-per-em="2048"
    panose-1="2 0 5 6 0 0 0 2 0 4"
    ascent="1638"
    descent="-410"
    x-height="698"
    cap-height="965"
    bbox="-878 -655 1532.99 1599"
    underline-thickness="72"
    underline-position="-627"
    unicode-range="U+000D-F880"
  />
<missing-glyph horiz-adv-x="1599" 
d="M100 0v1599h1399v-1599h-1399zM201 100h1200v1399h-1200v-1399z" />
    <glyph glyph-name="saraueesp1" unicode="&#xe37;&#xe48;" 
d="M-675 922l25 143h305l18 102h109l-18 -102h61l18 102h200l-43 -245h-675zM-228 1229l36 205h200l-36 -205h-200z" />
    <glyph glyph-name=".notdef" horiz-adv-x="1599" 
d="M100 0v1599h1399v-1599h-1399zM201 100h1200v1399h-1200v-1399z" />
    <glyph glyph-name=".null" 
 />
    <glyph glyph-name="nonmarkingreturn" horiz-adv-x="2048" 
 />
    <glyph glyph-name="uni000D" unicode="&#xd;" horiz-adv-x="512" 
 />
    <glyph glyph-name="space" unicode=" " horiz-adv-x="512" 
 />
    <glyph glyph-name="exclam" unicode="!" horiz-adv-x="369" 
d="M0 0l36 209h211l-36 -209h-211zM107 289l22 409l47 267h199l-47 -267l-127 -409h-94z" />
    <glyph glyph-name="quotedbl" unicode="&#x22;" horiz-adv-x="616" 
d="M124 530l77 435h145l-77 -435h-145zM373 530l77 435h144l-77 -435h-144z" />
    <glyph glyph-name="numbersign" unicode="#" horiz-adv-x="750" 
d="M12 268l21 121h125l55 168h-111l21 121h125l86 268h129l-86 -268h141l82 268h129l-82 -268h99l-21 -121h-115l-53 -168h97l-21 -121h-115l-84 -268h-129l84 268h-137l-86 -268h-129l86 268h-111zM287 389h141l53 168h-139z" />
    <glyph glyph-name="dollar" unicode="$" horiz-adv-x="799" 
d="M9 322h184q-26 -149 112 -177l47 265l-27 8q-258 70 -222 278q23 130 130 209q98 74 220 80l19 107h78l-19 -107q295 -30 247 -307h-186q15 118 -90 139l-41 -231q8 -2 23 -5.5t40 -11.5q63 -17 106 -41t69 -53q58 -70 37 -188q-23 -131 -119 -213q-54 -45 -118.5 -68.5
t-145.5 -28.5l-20 -114h-78l21 117q-142 12 -214 94q-83 91 -53 248zM291 713q-11 -65 96 -105l37 213q-117 -12 -133 -108zM382 141q144 13 164 121q8 45 -22.5 76t-97.5 51z" />
    <glyph glyph-name="percent" unicode="%" horiz-adv-x="1253" 
d="M125 698q10 58 33 107.5t58 84.5t81 55t102 20q215 0 167 -273q-45 -254 -268 -254q-220 0 -173 260zM213 -31l729 1008h115l-727 -1008h-117zM259 694q-27 -155 59 -155q88 0 115 155q30 170 -52 170q-92 0 -122 -170zM692 248q10 58 33 106t57 82t79 53t100 19
q218 0 170 -266q-21 -117 -85 -185q-71 -75 -182 -75q-219 0 -172 266zM825 246q-29 -164 57 -164q45 0 73.5 40t43.5 122q29 164 -56 164q-90 0 -118 -162z" />
    <glyph glyph-name="ampersand" unicode="&#x26;" horiz-adv-x="915" 
d="M10 270q16 91 82 160.5t181 120.5q-70 108 -54 205q16 95 101 157q88 64 188 64q55 0 100.5 -15.5t75.5 -45.5t42.5 -73t2.5 -98q-27 -153 -213 -241l97 -152q16 23 30 51.5t25 63.5h163q-36 -136 -132 -238l151 -229h-230l-63 96q-131 -114 -289 -114q-67 0 -120 20
t-87.5 57.5t-48.5 90.5t-2 120zM187 266q-4 -25 3.5 -48t23.5 -40.5t39.5 -28t50.5 -10.5q85 0 177 86l-130 201q-146 -65 -164 -160zM390 762q-9 -55 52 -144q109 66 123 138q3 18 -1.5 35t-14 29.5t-24 20t-32.5 7.5t-35 -6.5t-31 -18t-24 -27.5t-13 -34z" />
    <glyph glyph-name="quotesingle" unicode="'" horiz-adv-x="373" 
d="M128 530l77 435h145l-77 -435h-145z" />
    <glyph glyph-name="parenleft" unicode="(" horiz-adv-x="410" 
d="M51 87.5q-17 151.5 13 324.5q60 340 285 616h158q-193 -274 -253 -616q-30 -173 -22 -326t57 -291h-158q-63 141 -80 292.5z" />
    <glyph glyph-name="parenright" unicode=")" horiz-adv-x="410" 
d="M-116 -205q191 274 251 617q30 172 22 325t-56 291h158q63 -140 80 -292t-13 -324q-30 -173 -101.5 -324.5t-183.5 -292.5h-157z" />
    <glyph glyph-name="asterisk" unicode="*" horiz-adv-x="551" 
d="M76 743l66 121l137 -67l20 168h129l-40 -168l165 67l20 -121l-170 -45l85 -125l-121 -77l-63 143l-115 -145l-96 79l136 125z" />
    <glyph glyph-name="plus" unicode="+" horiz-adv-x="741" 
d="M18 268l25 146h246l44 245h145l-44 -245h248l-25 -146h-248l-44 -248h-145l44 248h-246z" />
    <glyph glyph-name="comma" unicode="," horiz-adv-x="367" 
d="M-44 -225l17 98q22 4 42 16t36 29t27 38t14 44h-90l36 209h203l-36 -209q-8 -45 -30.5 -83.5t-55.5 -67.5t-75 -48t-88 -26z" />
    <glyph glyph-name="hyphen" unicode="-" horiz-adv-x="543" 
d="M40 287l29 164h401l-29 -164h-401z" />
    <glyph glyph-name="period" unicode="." horiz-adv-x="367" 
d="M2 0l36 209h203l-36 -209h-203z" />
    <glyph glyph-name="slash" unicode="/" horiz-adv-x="494" 
d="M-100 -23l552 1010h152l-554 -1010h-150z" />
    <glyph glyph-name="zero" unicode="0" horiz-adv-x="741" 
d="M31 477q86 488 428 488q346 0 260 -488q-89 -495 -434 -495q-343 0 -254 495zM219 477q-60 -338 94 -338q155 0 215 338q57 330 -97 330q-155 0 -212 -330z" />
    <glyph glyph-name="one" unicode="1" horiz-adv-x="741" 
d="M126 616l25 142q242 -3 304 188h153l-166 -946h-188l108 616h-236z" />
    <glyph glyph-name="two" unicode="2" horiz-adv-x="741" 
d="M-53 0q23 168 168 289q10 8 77 52t195 126q75 48 115.5 94.5t48.5 91.5q12 69 -16.5 108.5t-88.5 39.5q-86 0 -140 -70q-47 -59 -56 -145h-180q20 165 130 272q55 54 124 80.5t151 26.5q131 0 211 -78q80 -83 57 -217q-11 -63 -42.5 -118t-85.5 -101q-23 -23 -75.5 -57.5
t-133.5 -82.5q-134 -80 -187 -145h443l-29 -166h-686z" />
    <glyph glyph-name="three" unicode="3" horiz-adv-x="741" 
d="M-1 176.5q-13 62.5 2 142.5h178q-26 -180 132 -180q33 0 62.5 11t53 30.5t39.5 47t22 61.5q18 94 -50 123q-36 16 -138 16l24 135q194 -15 218 119q5 28 -1.5 51.5t-21.5 39.5t-38 25t-50 9q-69 0 -114.5 -45.5t-58.5 -120.5h-178q15 73 49.5 133t84 102.5t112 65.5
t133.5 23q121 0 201 -68q86 -74 65 -195q-27 -154 -167 -192v-4q36 -9 63.5 -28.5t44.5 -47t23 -62.5t-1 -75q-26 -146 -141 -227q-116 -84 -262 -84q-79 0 -139 22.5t-97 66t-50 106z" />
    <glyph glyph-name="four" unicode="4" horiz-adv-x="741" 
d="M-19 217l31 176l500 553h170l-100 -571h123l-28 -158h-123l-38 -217h-180l38 217h-393zM164 375h238l56 321h-4z" />
    <glyph glyph-name="five" unicode="5" horiz-adv-x="741" 
d="M-6 279h188q-5 -63 29.5 -101.5t97.5 -38.5q36 0 68.5 14.5t58 39.5t43 58t23.5 71q14 78 -19.5 128t-109.5 50q-90 0 -156 -76h-170l174 522h527l-28 -158h-388l-67 -215l1 -2q84 72 197 72q67 0 116 -24t78.5 -67t38.5 -101.5t-3 -128.5q-25 -148 -144 -244
q-117 -96 -264 -96q-143 0 -224 75q-90 79 -67 222z" />
    <glyph glyph-name="six" unicode="6" horiz-adv-x="741" 
d="M32 471q34 200 143 336q126 158 310 158q61 0 110.5 -17.5t83.5 -50.5t50.5 -81t12.5 -109h-180q1 48 -26.5 81t-78.5 33q-91 0 -159 -104q-26 -38 -43.5 -84.5t-28.5 -100.5l2 -2q91 105 231 105q62 0 111 -22.5t80 -63.5t42.5 -97.5t-0.5 -123.5q-26 -146 -135 -248
q-54 -51 -118 -74.5t-136 -23.5q-192 0 -257 155q-52 123 -14 334zM205.5 248.5q5.5 -31.5 21 -56t41 -39t59.5 -14.5q64 0 114 56q45 47 57 116q7 37 3.5 70t-17 57.5t-37.5 39t-58 14.5q-36 0 -66.5 -13.5t-54.5 -37.5t-40 -56.5t-22 -69.5q-6 -35 -0.5 -66.5z" />
    <glyph glyph-name="seven" unicode="7" horiz-adv-x="741" 
d="M102 0q101 429 440 768h-434l31 178h635l-29 -166q-81 -60 -151.5 -149t-136.5 -209q-115 -217 -154 -422h-201z" />
    <glyph glyph-name="eight" unicode="8" horiz-adv-x="741" 
d="M-16 276q35 191 218 234l1 2q-131 41 -104 195q11 60 44.5 108.5t90.5 83.5q51 32 107.5 49t119.5 17q156 0 228 -93q58 -72 42 -161q-27 -148 -173 -201q169 -43 136 -231q-13 -72 -49.5 -127t-99.5 -97q-55 -37 -119.5 -55t-136.5 -18q-149 0 -235 71q-96 80 -70 223z
M175 287q-6 -37 2 -67t27 -51t47.5 -32.5t63.5 -11.5q34 0 66 11.5t57.5 32.5t43 50.5t23.5 65.5q6 33 -2 60.5t-26.5 48t-46 31.5t-61.5 11q-36 0 -69 -10.5t-58.5 -29.5t-43 -47t-23.5 -62zM268 690q-11 -62 29 -94q34 -31 93 -31q30 0 57 8.5t49 24t37 39t20 53.5
q24 131 -120 131q-61 0 -107 -34.5t-58 -96.5z" />
    <glyph glyph-name="nine" unicode="9" horiz-adv-x="741" 
d="M5 240h180q0 -48 27.5 -81.5t77.5 -33.5q93 0 159 104q50 78 71 185l-1 2q-92 -105 -232 -105q-62 0 -110.5 22.5t-79.5 63.5t-42.5 97t0.5 124q27 149 134 246q55 51 119 76t136 25q192 0 257 -156q53 -128 15 -334q-34 -199 -143 -336q-127 -157 -311 -157
q-62 0 -111 17t-83 50t-50.5 81t-12.5 110zM248 635q-12 -73 14 -123q28 -57 96 -57q37 0 67.5 13.5t53.5 37.5t39 56t23 69q6 34 0.5 66t-21 56.5t-41 39t-59.5 14.5q-32 0 -60.5 -14t-51 -38t-38.5 -55t-22 -65z" />
    <glyph glyph-name="colon" unicode=":" horiz-adv-x="367" 
d="M2 0l36 209h203l-36 -209h-203zM86 479l36 207h203l-36 -207h-203z" />
    <glyph glyph-name="semicolon" unicode=";" horiz-adv-x="367" 
d="M-44 -225l17 98q22 4 42 16t36 29t27 38t14 44h-90l36 209h203l-36 -209q-8 -45 -30.5 -83.5t-55.5 -67.5t-75 -48t-88 -26zM86 479l36 207h203l-36 -207h-203z" />
    <glyph glyph-name="less" unicode="&#x3c;" horiz-adv-x="741" 
d="M17 262l28 160l687 272l-27 -155l-487 -197l417 -197l-27 -155z" />
    <glyph glyph-name="equal" unicode="=" horiz-adv-x="741" 
d="M-7 125l25 143h639l-25 -143h-639zM43 414l26 145h639l-26 -145h-639z" />
    <glyph glyph-name="greater" unicode="&#x3e;" horiz-adv-x="741" 
d="M-31 -10l27 155l486 197l-416 197l27 155l591 -272l-28 -160z" />
    <glyph glyph-name="question" unicode="?" horiz-adv-x="741" 
d="M78 657q13 73 47.5 134t84.5 104.5t113.5 67.5t135.5 24q166 0 244 -86q61 -73 43 -174q-20 -110 -95 -182q-1 -2 -34 -26t-99 -75q-72 -49 -84 -116l-7 -39h-181l11 61q17 91 83 154l119 96q31 26 49.5 53t23.5 56q19 120 -95 120q-33 0 -61 -13t-49.5 -36t-35.5 -54.5
t-18 -68.5h-195zM176 0l36 209h211l-36 -209h-211z" />
    <glyph glyph-name="at" unicode="@" horiz-adv-x="1081" 
d="M54 483q38 215 213 359q176 145 390 145q191 0 309 -115q118 -113 87 -297q-33 -185 -180 -299q-116 -92 -206 -92q-96 0 -86 76h-2q-60 -78 -160 -78q-85 0 -138 68q-49 70 -33 164q24 134 122 235q106 109 234 109q118 0 142 -94l32 73h113l-147 -350q-39 -88 -4 -88
q59 0 122 72q64 73 82 176q27 156 -63 248q-86 86 -245 86q-171 0 -298 -115q-124 -112 -156 -287q-33 -192 61 -295q89 -98 270 -98q180 0 309 111h113q-184 -220 -451 -220q-226 0 -344 132q-128 140 -86 374zM389 432q-10 -54 13.5 -87.5t71.5 -33.5q70 0 130 68
q58 61 72 135q4 25 -1 46t-16 37t-28.5 25t-38.5 9q-70 0 -131 -64q-29 -32 -47.5 -66t-24.5 -69z" />
    <glyph glyph-name="A" unicode="A" horiz-adv-x="911" 
d="M-90 0l530 965h215l187 -965h-217l-37 215h-348l-113 -215h-217zM317 373h246l-56 356h-2z" />
    <glyph glyph-name="B" unicode="B" horiz-adv-x="942" 
d="M12 0l170 965h443q275 0 275 -186q0 -25 -5 -54q-24 -136 -164 -201q135 -40 135 -180q0 -29 -6 -63q-24 -138 -141 -213q-101 -68 -242 -68h-465zM250 166h231q152 0 174 127q3 19 3 35q0 102 -131 102h-231zM322 573h215q126 0 147 117q2 14 2 26q0 85 -117 85h-207z
" />
    <glyph glyph-name="C" unicode="C" horiz-adv-x="991" 
d="M55 479q39 219 191 365q150 143 368 143q82 0 145 -22.5t114 -67.5q92 -87 92 -229q0 -15 -1 -31h-201v5q0 34 -12 64q-13 32 -37 54.5t-58 35.5t-74 13q-66 0 -120 -25.5t-99 -76.5q-36 -45 -61.5 -102t-37.5 -126q-8 -47 -8 -88q0 -19 2 -35q6 -54 26 -100
q52 -100 183 -100q192 0 256 211h201q-24 -90 -70.5 -162t-110 -123t-142 -78t-166.5 -27q-214 0 -317 148q-73 99 -73 241q0 53 10 113z" />
    <glyph glyph-name="D" unicode="D" horiz-adv-x="991" 
d="M12 0l170 965h414q196 0 288 -119q71 -90 71 -232q0 -59 -12 -127q-38 -218 -165 -348q-139 -139 -350 -139h-416zM252 178h191q100 0 175 66q86 74 113 223q9 54 9 99q0 220 -225 220h-156z" />
    <glyph glyph-name="E" unicode="E" horiz-adv-x="868" 
d="M12 0l170 965h721l-32 -179h-512l-36 -206h469l-29 -164h-469l-42 -238h512l-31 -178h-721z" />
    <glyph glyph-name="F" unicode="F" horiz-adv-x="791" 
d="M12 0l170 965h670l-32 -179h-461l-39 -223h404l-29 -164h-404l-70 -399h-209z" />
    <glyph glyph-name="G" unicode="G" horiz-adv-x="1014" 
d="M55 479q39 219 191 365q150 143 368 143q156 0 250 -88q93 -85 93 -222q0 -15 -1 -30h-199q-3 162 -175 162q-66 0 -120 -25.5t-99 -76.5q-36 -45 -61.5 -102t-37.5 -126q-8 -47 -8 -88q0 -18 2 -35q5 -55 26 -100q52 -100 183 -100q211 0 265 209h-213l28 157h403
l-92 -522h-133l-4 109q-123 -132 -286 -132q-225 0 -325 148q-66 95 -66 232q0 57 11 122z" />
    <glyph glyph-name="H" unicode="H" horiz-adv-x="991" 
d="M12 0l170 965h209l-66 -371h389l66 371h209l-170 -965h-209l73 416h-389l-73 -416h-209z" />
    <glyph glyph-name="I" unicode="I" horiz-adv-x="397" 
d="M14 0l170 965h209l-170 -965h-209z" />
    <glyph glyph-name="J" unicode="J" horiz-adv-x="748" 
d="M-14 276l15 84h189l-8 -45q-5 -29 -5 -53q0 -106 104 -106q115 0 143 157l115 652h206l-117 -662q-57 -326 -377 -326q-131 0 -204 70q-67 60 -67 165q0 30 6 64z" />
    <glyph glyph-name="K" unicode="K" horiz-adv-x="967" 
d="M12 0l170 965h209l-71 -400l446 400h262l-439 -381l304 -584h-262l-206 428l-152 -131l-52 -297h-209z" />
    <glyph glyph-name="L" unicode="L" horiz-adv-x="793" 
d="M12 0l170 965h209l-139 -787h467l-31 -178h-676z" />
    <glyph glyph-name="M" unicode="M" horiz-adv-x="1212" 
d="M12 0l170 965h293l107 -666h2l331 666h295l-170 -965h-196l120 686h-2l-354 -686h-166l-112 680h-2l-119 -680h-197z" />
    <glyph glyph-name="N" unicode="N" horiz-adv-x="991" 
d="M12 0l170 965h209l284 -650h2l115 650h197l-170 -965h-211l-283 647h-2l-114 -647h-197z" />
    <glyph glyph-name="O" unicode="O" horiz-adv-x="1038" 
d="M55 479q39 219 191 365q150 143 368 143q109 0 187.5 -36.5t132.5 -108.5q70 -102 71 -244q0 -56 -12 -119q-37 -215 -185 -354q-81 -75 -172.5 -111.5t-200.5 -36.5q-214 0 -317 148q-73 99 -73 241q0 53 10 113zM258 356q6 -54 26 -100q52 -100 183 -100q132 0 219 100
q74 89 98 223q9 50 9 94q0 78 -28 134q-53 102 -183 102q-66 0 -120 -25.5t-99 -76.5q-36 -45 -61.5 -102t-37.5 -126q-8 -47 -8 -88q0 -18 2 -35z" />
    <glyph glyph-name="P" unicode="P" horiz-adv-x="887" 
d="M12 0l170 965h426q167 0 238 -99q45 -60 45 -145q0 -33 -7 -70q-23 -131 -114 -215q-107 -98 -273 -98h-217l-59 -338h-209zM309 502h166q180 0 206 149q4 20 4 37q0 113 -157 113h-166z" />
    <glyph glyph-name="Q" unicode="Q" horiz-adv-x="1038" 
d="M55 479q39 219 191 365q150 143 368 143q109 0 187.5 -36.5t132.5 -108.5q70 -102 70 -244q0 -56 -11 -119q-38 -215 -186 -356l100 -109l-116 -104l-114 123q-110 -56 -242 -56q-214 0 -317 148q-73 99 -73 241q0 53 10 113zM258 356q5 -55 26 -100q52 -100 183 -100
q71 0 88 12l-75 84l114 104l94 -100q37 43 60.5 98.5t35.5 124.5q9 50 9 94q0 78 -28 134q-53 102 -183 102q-66 0 -120 -25.5t-99 -76.5q-36 -45 -61.5 -102t-37.5 -126q-8 -47 -8 -88q0 -18 2 -35z" />
    <glyph glyph-name="R" unicode="R" horiz-adv-x="963" 
d="M12 0l170 965h512q65 0 113.5 -20.5t79.5 -56.5t42 -85q6 -26 5 -53q0 -25 -4 -52q-33 -180 -195 -241v-2q105 -27 105 -173q0 -25 -3 -53l-15 -116q-1 -19 -1 -34q-1 -20 1 -35q2 -27 11 -44h-206q-5 19 -6.5 46t2.5 63l9 122v10q0 71 -28 103q-30 34 -104 33h-213
l-66 -377h-209zM314 528h231q146 0 170 138q3 19 3 35q0 100 -125 100h-231z" />
    <glyph glyph-name="S" unicode="S" horiz-adv-x="864" 
d="M9 322h200q-4 -21 -4 -39q-1 -22 5 -41q10 -35 39 -58q52 -43 139 -43q186 0 207 121q2 9 2 17q0 55 -68 88q-16 8 -59.5 20t-118.5 31q-247 62 -247 232q0 22 4 46q24 138 148 217q57 38 121.5 56t136.5 18q161 0 251 -72q81 -63 80 -175q0 -29 -5 -62h-203q1 12 1 23
q0 122 -163 122q-58 0 -102 -26q-53 -33 -62 -84q-1 -7 -1 -13q0 -44 53 -69q20 -11 70.5 -26.5t131.5 -35.5q69 -17 117 -41t77 -53q47 -52 48 -132q0 -27 -6 -56q-24 -140 -139 -221q-122 -89 -311 -89q-171 0 -265 84q-85 72 -85 187q0 35 8 74z" />
    <glyph glyph-name="T" unicode="T" horiz-adv-x="813" 
d="M74 786l32 179h783l-32 -179h-289l-138 -786h-207l138 786h-287z" />
    <glyph glyph-name="U" unicode="U" horiz-adv-x="987" 
d="M72 365l106 600h209l-106 -600q-6 -34 -6 -62q0 -147 166 -147q55 0 95 12t68 37.5t46 65t28 94.5l106 600h207l-106 -600q-69 -388 -476 -388q-347 0 -347 283q0 49 10 105z" />
    <glyph glyph-name="V" unicode="V" horiz-adv-x="844" 
d="M80 965h217l93 -680h2l335 680h217l-487 -965h-236z" />
    <glyph glyph-name="W" unicode="W" horiz-adv-x="1257" 
d="M94 965h209l32 -660h3l280 660h201l43 -664h2l270 664h209l-424 -965h-211l-43 659h-4l-272 -659h-215z" />
    <glyph glyph-name="X" unicode="X" horiz-adv-x="889" 
d="M-88 0l423 506l-227 459h236l135 -308l246 308h235l-388 -459l245 -506h-235l-158 344l-277 -344h-235z" />
    <glyph glyph-name="Y" unicode="Y" horiz-adv-x="887" 
d="M78 965h231l156 -400l293 400h231l-457 -596l-65 -369h-209l65 373z" />
    <glyph glyph-name="Z" unicode="Z" horiz-adv-x="868" 
d="M-49 0l29 168l625 618h-484l32 179h760l-30 -168l-625 -619h529l-31 -178h-805z" />
    <glyph glyph-name="bracketleft" unicode="[" horiz-adv-x="444" 
d="M-25 -205l218 1233h352l-27 -149h-161l-164 -932h161l-27 -152h-352z" />
    <glyph glyph-name="backslash" unicode="\" horiz-adv-x="494" 
d="M78 987h151l196 -1010h-152z" />
    <glyph glyph-name="bracketright" unicode="]" horiz-adv-x="444" 
d="M-116 -205l27 152h161l164 932h-162l27 149h350l-218 -1233h-349z" />
    <glyph glyph-name="asciicircum" unicode="^" horiz-adv-x="799" 
d="M65 426l332 520h176l151 -520h-162l-102 379l-234 -379h-161z" />
    <glyph glyph-name="underscore" unicode="_" horiz-adv-x="676" 
d="M-113 -190l16 88h675l-16 -88h-675z" />
    <glyph glyph-name="grave" unicode="`" horiz-adv-x="344" 
d="M26 977h213l93 -193h-133z" />
    <glyph glyph-name="a" unicode="a" horiz-adv-x="764" 
d="M-4 190q32 180 271 213q78 11 118 16t42 7q71 18 80 70q2 11 2 21q0 73 -108 73q-114 0 -145 -109h-186q51 236 359 236q275 0 275 -164q0 -19 -4 -41l-69 -391q-8 -45 -8 -74q0 -35 12 -47h-193q-6 13 -6 34q0 15 3 34q-94 -86 -247 -86q-51 0 -91.5 13t-67 39.5
t-36.5 65.5q-5 21 -5 44q0 22 4 46zM186 199q-2 -12 -2 -22q0 -68 101 -68q153 0 182 161l13 72q-28 -22 -103 -31q-45 -8 -75.5 -14t-44.5 -12q-60 -25 -71 -86z" />
    <glyph glyph-name="b" unicode="b" horiz-adv-x="817" 
d="M-8 0l170 965h188l-62 -347h4q83 99 235 99q116 0 179 -88q52 -74 52 -182q0 -45 -9 -97q-32 -180 -141 -280q-48 -45 -102.5 -66.5t-114.5 -21.5q-160 0 -202 104h-2l-15 -86h-180zM235 348q-6 -36 -6 -66q0 -52 18 -87q31 -70 113 -70q77 0 135 70q25 31 42.5 69
t25.5 84q6 33 6 63q0 13 -1 27q-4 42 -19.5 71.5t-43 46.5t-66.5 17q-41 0 -74.5 -17t-59 -47t-43.5 -71.5t-27 -89.5z" />
    <glyph glyph-name="c" unicode="c" horiz-adv-x="768" 
d="M30 340q15 82 51.5 151.5t90.5 119.5t124 78t153 28q67 0 119 -17t91 -49q73 -63 73 -167q0 -16 -2 -33h-186q2 122 -120 122q-85 0 -140 -73q-48 -64 -63 -154q-6 -35 -6 -66q0 -46 14 -81q30 -74 112 -74q131 0 176 141h184q-21 -68 -57.5 -121t-86 -89t-111 -55
t-131.5 -19q-153 0 -234 100q-58 77 -58 182q0 36 7 76z" />
    <glyph glyph-name="d" unicode="d" horiz-adv-x="817" 
d="M20 214q-3 24 -4 50q0 43 9 92q14 76 44 137.5t78 112.5q102 111 247 111q142 0 192 -96h2l61 344h186l-170 -965h-178l15 88h-2q-82 -106 -232 -106q-148 0 -211 114q-29 54 -37 118zM208 266q4 -38 18 -69q34 -72 115 -72q165 0 206 227q7 42 7 76q0 145 -134 145
q-168 0 -208 -223q-5 -31 -6 -58z" />
    <glyph glyph-name="e" unicode="e" horiz-adv-x="768" 
d="M18 198q-6 31 -6 66q0 40 8 84q28 160 144 264q121 105 273 105q172 0 242 -127q39 -69 40 -160q0 -59 -17 -127h-502q-3 -23 -3 -44q0 -134 144 -134q27 0 51.5 7.5t45.5 20.5t36.5 30t24.5 36h176q-101 -237 -368 -237q-80 0 -140.5 26.5t-98 74t-50.5 115.5zM221 424
h312q1 11 1 20q0 60 -26 92q-30 37 -100 37q-79 0 -135 -53q-38 -40 -52 -96z" />
    <glyph glyph-name="f" unicode="f" horiz-adv-x="455" 
d="M20 571l23 127h113l9 56q8 47 31 86t58 66.5t81.5 43t102.5 15.5q34 0 61 -1t47 -3l-25 -144q-23 2 -42 3t-36 1q-76 0 -89 -78l-8 -45h135l-23 -127h-135l-100 -571h-190l100 571h-113z" />
    <glyph glyph-name="g" unicode="g" horiz-adv-x="817" 
d="M-16 -41h188q7 -96 126 -96q155 0 187 174l16 88h-4q-78 -105 -228 -105q-147 0 -205 103q-27 46 -34 107q-3 22 -3 46q0 44 9 95q13 73 44 136.5t77.5 110t106 73t130.5 26.5q149 0 188 -105h4l16 86h180l-116 -653q-54 -309 -416 -309q-60 0 -107.5 12.5t-84.5 38.5
q-76 53 -76 143q0 14 2 29zM220 296q3 -35 15 -63q28 -67 109 -67q76 0 133 59q50 53 65 133q7 40 7 73q0 142 -133 142q-38 0 -69.5 -15t-56 -42t-41 -63t-23.5 -78q-6 -34 -6 -62v-17z" />
    <glyph glyph-name="h" unicode="h" horiz-adv-x="793" 
d="M-8 0l170 965h188l-62 -351h4q82 103 223 103q139 0 189 -78q24 -39 24 -108q0 -44 -10 -101l-75 -430h-191l69 395q6 34 6 61q0 111 -98 111q-149 0 -185 -200l-64 -367h-188z" />
    <glyph glyph-name="i" unicode="i" horiz-adv-x="346" 
d="M-2 0l123 698h190l-123 -698h-190zM139 805l29 160h190l-29 -160h-190z" />
    <glyph glyph-name="j" unicode="j" horiz-adv-x="389" 
d="M-149 -240l28 158q30 -6 52 -6q83 0 93 61l128 725h190l-129 -729q-11 -59 -30.5 -100t-52.5 -66.5t-82.5 -37t-120.5 -11.5q-46 0 -76 6zM170 805l29 160h190l-29 -160h-190z" />
    <glyph glyph-name="k" unicode="k" horiz-adv-x="768" 
d="M8 0l170 965h191l-92 -519l286 252h223l-306 -256l212 -442h-227l-134 305l-94 -84l-38 -221h-191z" />
    <glyph glyph-name="l" unicode="l" horiz-adv-x="346" 
d="M-2 0l170 965h190l-170 -965h-190z" />
    <glyph glyph-name="m" unicode="m" horiz-adv-x="1210" 
d="M-4 0l123 698h180l-17 -94h2q83 113 233 113q148 0 181 -115q70 115 231 115q214 0 214 -182q0 -31 -6 -68l-82 -467h-191l70 399q8 46 8 76q0 26 -6 41q-15 51 -88 51q-129 0 -159 -174l-69 -393h-190l69 395q11 63 11 95q0 14 -2 22q-13 55 -94 55q-48 0 -92 -35
q-51 -46 -64 -122l-72 -410h-190z" />
    <glyph glyph-name="n" unicode="n" horiz-adv-x="793" 
d="M-8 0l123 698h180l-17 -96h4q79 115 233 115q212 0 212 -199q0 -40 -9 -88l-75 -430h-191l69 395q6 34 6 61q0 111 -98 111q-150 0 -184 -198l-65 -369h-188z" />
    <glyph glyph-name="o" unicode="o" horiz-adv-x="817" 
d="M30 195q-6 32 -6 68q0 40 8 85q15 84 52.5 152t92.5 116t125.5 74.5t151.5 26.5q80 0 141.5 -26.5t100 -74.5t52.5 -116q7 -33 6 -69q0 -39 -7 -83q-15 -83 -52.5 -150.5t-93 -115.5t-126 -74t-151.5 -26t-142 25.5t-99.5 72.5t-52.5 115zM221 348q-7 -42 -7 -76
q0 -147 136 -147q170 0 209 223q7 42 7 76q0 149 -137 149q-169 0 -208 -225z" />
    <glyph glyph-name="p" unicode="p" horiz-adv-x="817" 
d="M-52 -246l167 944h180l-16 -88h2q83 107 228 107q155 0 217 -113q39 -67 39 -163q0 -46 -9 -99q-14 -75 -43 -137t-77 -113q-101 -110 -247 -110q-144 0 -192 96h-4l-57 -324h-188zM235 348q-7 -42 -7 -76q0 -147 136 -147q166 0 205 223q6 34 6 63q0 52 -18 91
q-35 71 -116 71q-167 0 -206 -225z" />
    <glyph glyph-name="q" unicode="q" horiz-adv-x="817" 
d="M23 344q29 156 124 260q101 113 251 113q152 0 194 -107h2l16 88h178l-167 -944h-186l58 326h-4q-83 -98 -235 -98q-113 0 -183 79q-58 71 -58 184q0 46 10 99zM212 348q-7 -42 -7 -77q0 -146 134 -146q168 0 207 221q6 36 6 66q0 51 -16 88q-17 37 -44.5 55t-69.5 18
q-86 0 -144 -69q-50 -59 -66 -156z" />
    <glyph glyph-name="r" unicode="r" horiz-adv-x="518" 
d="M-8 0l123 698h180l-23 -129h2q87 146 239 146q11 0 22.5 -1t23.5 -3l-32 -179q-21 7 -63 7q-190 0 -230 -228l-54 -311h-188z" />
    <glyph glyph-name="s" unicode="s" horiz-adv-x="715" 
d="M-1 231h178q-1 -12 -1 -23q0 -99 125 -99q124 0 141 90q1 5 1 9q0 33 -39 54q-18 9 -50.5 18.5t-80.5 18.5q-213 41 -213 172q0 15 3 31q20 110 122 168q45 23 96.5 35t114.5 12q269 0 269 -192q0 -14 -1 -29h-180v10q0 84 -112 84q-106 0 -116 -66q-1 -5 -1 -10
q0 -38 56 -59q14 -7 49.5 -15.5t92.5 -19.5q185 -39 185 -162q0 -16 -3 -33q-23 -126 -131 -190q-95 -53 -226 -53q-138 0 -211 55q-71 53 -71 150q0 21 3 44z" />
    <glyph glyph-name="t" unicode="t" horiz-adv-x="471" 
d="M28 571l23 127h115l37 211h188l-37 -211h142l-23 -127h-142l-61 -346q-3 -17 -3 -30q0 -32 16 -41q14 -11 53 -11q34 0 63 7l-27 -152q-51 -6 -116 -6q-189 0 -189 131q0 18 4 39l72 409h-115z" />
    <glyph glyph-name="u" unicode="u" horiz-adv-x="793" 
d="M39 268l76 430h188l-71 -401q-6 -31 -5 -57q0 -107 99 -107q149 0 184 197l65 368h191l-123 -698h-180l15 86h-4q-83 -104 -232 -104q-141 0 -189 79q-24 38 -24 106q0 44 10 101z" />
    <glyph glyph-name="v" unicode="v" horiz-adv-x="696" 
d="M49 698h193l63 -485h2l234 485h192l-356 -698h-215z" />
    <glyph glyph-name="w" unicode="w" horiz-adv-x="1087" 
d="M51 698h199l45 -475l203 475h182l35 -475h2l207 475h198l-338 -698h-198l-38 473h-4l-200 -473h-199z" />
    <glyph glyph-name="x" unicode="x" horiz-adv-x="717" 
d="M-80 0l317 369l-171 329h210l92 -184l158 184h211l-287 -329l187 -369h-211l-109 225l-186 -225h-211z" />
    <glyph glyph-name="y" unicode="y" horiz-adv-x="696" 
d="M-64 -240l29 162q20 -5 36.5 -7.5t33.5 -2.5q111 0 126 86q5 24 -1 45l-125 655h198l74 -473h2l234 473h205l-424 -786q-87 -158 -274 -158q-60 0 -114 6z" />
    <glyph glyph-name="z" unicode="z" horiz-adv-x="694" 
d="M-49 0l25 145l440 410h-348l26 143h588l-26 -143l-439 -410h392l-25 -145h-633z" />
    <glyph glyph-name="braceleft" unicode="{" horiz-adv-x="477" 
d="M2 352l21 119q20 0 41 6.5t41 20.5q51 34 62 94l45 254q16 102 96 149q28 17 60 25t67 8h143l-27 -151h-67q-79 0 -95 -99l-36 -205q-25 -138 -160 -159v-4q44 -5 74 -33q43 -40 31 -115l-39 -217q-17 -98 61 -98h67l-27 -152h-143q-73 0 -115 33q-60 46 -44 149l47 265
q11 56 -30 86q-32 24 -73 24z" />
    <glyph glyph-name="bar" unicode="|" horiz-adv-x="301" 
d="M78 -23v1010h143v-1010h-143z" />
    <glyph glyph-name="braceright" unicode="}" horiz-adv-x="477" 
d="M-116 -205l27 152h67q77 0 94 98l39 217q12 74 72 115q37 28 85 33v4q-128 21 -102 159l36 205q16 99 -60 99h-68l27 151h143q73 0 115 -33q32 -23 42 -60.5t2 -88.5l-45 -254q-11 -61 28 -94q16 -14 35 -20.5t39 -6.5l-21 -119q-43 0 -83 -24q-50 -32 -60 -86l-47 -265
q-16 -102 -96 -149q-28 -17 -60 -25t-67 -8h-142z" />
    <glyph glyph-name="asciitilde" unicode="~" horiz-adv-x="799" 
d="M68 344q43 57 88.5 86t99.5 29q63 0 144 -45q42 -23 73 -34t51 -11q70 0 132 96l34 -125q-45 -60 -92.5 -88.5t-95.5 -28.5q-62 0 -146 45q-83 47 -117 47q-79 0 -138 -98z" />
    <glyph glyph-name="uni00A0" unicode="&#xa0;" horiz-adv-x="512" 
 />
    <glyph glyph-name="currency" unicode="&#xa4;" horiz-adv-x="840" 
d="M8 164l148 145q-62 83 -62 193q0 114 62 188l-148 150l76 71l145 -145q80 59 193 59q55 0 105.5 -16t82.5 -43l150 145l71 -71l-145 -150q59 -80 59 -188q0 -113 -59 -193l145 -145l-71 -76l-150 148q-15 -13 -36 -23.5t-47 -20.5q-53 -18 -105 -18q-110 0 -193 62
l-145 -148zM197 502q0 -94 63 -164q65 -68 162 -68q92 0 158 68q63 63 63 164q0 46 -16.5 87t-45.5 72t-70 49.5t-89 18.5q-96 0 -160 -67q-65 -74 -65 -160z" />
    <glyph glyph-name="FL00A9h" unicode="&#xa9;" horiz-adv-x="1081" 
d="M28 483q39 225 219 367q176 137 388 137t337 -137q131 -143 92 -367q-20 -112 -74 -204t-147 -164q-174 -138 -387 -138q-211 0 -338 138q-131 144 -90 368zM165 483q-30 -170 58 -284q89 -113 253 -113q159 0 290 113t161 284q30 169 -63 283q-91 115 -248 115
q-162 0 -293 -115q-128 -116 -158 -283zM273 485q12 67 42 123t74.5 96t101.5 62t124 22q48 0 87.5 -14t66.5 -41t41 -66t12 -89h-105q-3 102 -121 102q-37 0 -69 -14t-56.5 -39.5t-41.5 -61t-25 -78.5q-7 -41 -1.5 -76t21.5 -61.5t43 -41.5t63 -15q125 0 156 106h109
q-16 -50 -45 -89.5t-66.5 -67.5t-82 -43t-90.5 -15q-65 0 -114 23t-80.5 63t-43 95t-0.5 120z" />
    <glyph glyph-name="guillemotleft" unicode="&#xab;" horiz-adv-x="592" 
d="M25 276l32 183l239 170l-29 -166l-137 -94l103 -99l-29 -164zM296 276l32 183l239 170l-29 -166l-137 -94l103 -99l-29 -164z" />
    <glyph glyph-name="logicalnot" unicode="&#xac;" horiz-adv-x="741" 
d="M42 297v90h656v-268h-82v178h-574z" />
    <glyph glyph-name="minus" unicode="&#xad;" horiz-adv-x="741" 
d="M18 268l25 146h639l-25 -146h-639z" />
    <glyph glyph-name="registered" unicode="&#xae;" horiz-adv-x="1081" 
d="M28 483q39 225 219 367q176 137 388 137t337 -137q131 -143 92 -367q-20 -112 -74 -204t-147 -164q-174 -138 -387 -138q-211 0 -338 138q-131 144 -90 368zM165 483q-30 -170 58 -284q89 -113 253 -113q159 0 290 113t161 284q30 169 -63 283q-91 115 -248 115
q-162 0 -293 -115q-128 -116 -158 -283zM295 201l100 567h213q221 0 191 -168q-24 -142 -173 -151l105 -248h-117l-95 241h-71l-42 -241h-111zM464 530h100q111 0 125 80q12 70 -103 70h-96z" />
    <glyph glyph-name="degree" unicode="&#xb0;" horiz-adv-x="541" 
d="M66 713q0 40 15.5 77t42.5 64.5t63.5 44t78.5 16.5q43 0 80.5 -16t65 -43t43.5 -64t16 -79t-16 -79t-43.5 -64.5t-65 -43.5t-80.5 -16q-41 0 -77 15.5t-63.5 43t-43.5 64.5t-16 80zM121 713q0 -30 11.5 -57t31 -47t46 -32t56.5 -12q62 0 105 43q45 46 45 105
q0 30 -12 56.5t-32.5 46t-47.5 31t-58 11.5t-57.5 -11t-46 -30.5t-30.5 -46t-11 -57.5z" />
    <glyph glyph-name="paragraph" unicode="&#xb6;" horiz-adv-x="727" 
d="M0 858q0 153 94 229q90 66 248 66h389v-41h-102v-1356h-62v1356h-145v-1356h-55v805q-168 0 -263 62q-104 74 -104 235z" />
    <glyph glyph-name="periodcentered" unicode="&#xb7;" horiz-adv-x="338" 
d="M96 449q0 30 20.5 50.5t53.5 20.5q31 0 51.5 -21.5t20.5 -49.5q0 -31 -21.5 -52.5t-50.5 -21.5q-33 0 -53.5 20.5t-20.5 53.5z" />
    <glyph glyph-name="guillemotright" unicode="&#xbb;" horiz-adv-x="592" 
d="M-7 106l29 164l139 99l-105 94l29 166l179 -170l-32 -183zM264 106l29 164l138 99l-104 94l29 166l179 -170l-32 -183z" />
    <glyph glyph-name="multiply" unicode="&#xd7;" horiz-adv-x="741" 
d="M-9 125l255 217l-179 217l121 103l179 -218l258 220l83 -105l-257 -217l180 -219l-120 -103l-180 220l-256 -220z" />
    <glyph glyph-name="divide" unicode="&#xf7;" horiz-adv-x="741" 
d="M18 268l25 146h639l-25 -146h-639zM188 59q4 24 17 44.5t31 36t40 24t45 8.5q48 0 74 -32.5t18 -80.5q-4 -23 -16 -43t-30 -35.5t-40 -24.5t-46 -9q-23 0 -41.5 9t-31.5 24.5t-18.5 35.5t-1.5 43zM288 625q4 24 17 44.5t31 35.5t40 23.5t44 8.5q48 0 74.5 -32t18.5 -80
q-4 -23 -16 -43t-30 -36t-40 -25t-46 -9q-23 0 -41.5 9t-31.5 25t-18.5 36t-1.5 43z" />
    <glyph glyph-name="uni0E00" unicode="&#xe00;" horiz-adv-x="205" 
 />
    <glyph glyph-name="uni0E01" unicode="&#xe01;" horiz-adv-x="872" 
d="M2 0l117 666q156 168 384 168q78 0 139.5 -19t102 -55.5t57.5 -89.5t5 -121l-96 -549h-201l94 535q10 60 -28.5 95.5t-108.5 35.5q-101 0 -158 -60l-106 -606h-201z" />
    <glyph glyph-name="uni0E02" unicode="&#xe02;" horiz-adv-x="805" 
d="M18 324q13 83 78 157q29 34 61.5 60t69.5 43l-93 135l187 115l146 -246q-224 -101 -252 -264q-12 -68 17 -115q37 -55 110 -55q28 0 53 9.5t44.5 26t32.5 38.5t18 46l96 545h201l-95 -536q-21 -127 -131 -213q-108 -84 -249 -84q-152 0 -237 96q-83 95 -57 242z" />
    <glyph glyph-name="uni0E03" unicode="&#xe03;" horiz-adv-x="815" 
d="M28 324q13 82 78 157q29 34 61.5 60t69.5 43l15 80l-84 -54q-14 24 -32 37q-42 41 -94 60l124 122q18 -11 32.5 -24.5t23.5 -30.5l65 45h180l-46 -258q-170 -93 -196 -237q-12 -70 18 -115q36 -55 110 -55q28 0 52.5 9.5t43.5 26t32.5 38.5t18.5 46l96 545h201l-95 -536
q-21 -127 -131 -213q-107 -84 -248 -84q-153 0 -237 96q-84 94 -58 242z" />
    <glyph glyph-name="uni0E04" unicode="&#xe04;" horiz-adv-x="893" 
d="M2 0l95 539q11 66 46 117.5t93 93.5q120 84 277 84q156 0 246 -84q89 -83 67 -211l-95 -539h-201l97 551q8 51 -30.5 83t-113.5 32q-37 0 -68.5 -8.5t-55.5 -24t-39.5 -36.5t-19.5 -46l-12 -68h225l-29 -164h-225l-56 -319h-201z" />
    <glyph glyph-name="uni0E05" unicode="&#xe05;" horiz-adv-x="918" 
d="M2 0l96 549q21 116 101 188q87 84 224 97l88 -84l119 84q66 -7 112.5 -30t75.5 -65q55 -77 34 -190l-96 -549h-201l97 553q14 77 -51 98l-118 -94l-99 94q-70 -21 -84 -98l-12 -70h249l-29 -164h-249l-56 -319h-201z" />
    <glyph glyph-name="uni0E06" unicode="&#xe06;" horiz-adv-x="885" 
d="M12 0l79 449q7 43 75 88q32 21 51 40.5t22 36.5l9 50l-84 -54q-14 24 -32 37q-42 41 -94 60l124 122q36 -22 56 -55l65 45h187l-38 -215q-7 -39 -73 -86q-63 -43 -69 -80l-26 -147q-11 -58 38 -98q49 -43 111 -43q30 0 56.5 9t47 25t34 37.5t18.5 46.5l97 551h201
l-101 -575q-11 -60 -40 -109t-77 -84q-86 -65 -189 -65q-161 0 -230 116l-17 -102h-201z" />
    <glyph glyph-name="uni0E07" unicode="&#xe07;" horiz-adv-x="811" 
d="M56 819h201l35 -647q110 -3 181 66q66 60 84 163q43 250 -230 238l32 182q16 2 31 2h29q416 0 341 -422q-17 -94 -62.5 -170t-116 -129.5t-163 -82.5t-203.5 -29q-26 0 -54.5 1.5t-57.5 6.5z" />
    <glyph glyph-name="uni0E08" unicode="&#xe08;" horiz-adv-x="827" 
d="M32 674q97 81 200 120.5t220 39.5q179 0 270 -115q90 -113 59 -293q-33 -186 -175 -307q-149 -125 -373 -125h-30.5t-31.5 2l-14 344h-90l29 164h254l10 -332q38 7 74.5 31t67 59t52 77.5t29.5 86.5q17 99 -33 164q-57 72 -166 72q-143 0 -253 -113z" />
    <glyph glyph-name="uni0E09" unicode="&#xe09;" horiz-adv-x="842" 
d="M2 305l29 164h258l-37 -209q-18 -106 88 -106q65 0 125 45q61 46 70 98l40 225q10 63 -25 103.5t-107 40.5q-135 0 -189 -117h-189q46 138 172 217q57 34 117.5 51t126.5 17q145 0 228 -74q91 -79 68 -209l-83 -469l14 -82h-225l17 102q-96 -116 -241 -116
q-110 0 -162 57q-65 68 -44 195l12 67h-63z" />
    <glyph glyph-name="uni0E0A" unicode="&#xe0a;" horiz-adv-x="809" 
d="M9 45l137 774h201l-116 -655q16 -6 38.5 -9t52.5 -1q43 1 80.5 15.5t66.5 38.5t48.5 56.5t25.5 69.5q37 208 -200 258l290 237l173 -75l-180 -140q151 -95 117 -288q-26 -149 -142 -238q-121 -97 -309 -100q-69 -2 -140 13t-143 44z" />
    <glyph glyph-name="uni0E0B" unicode="&#xe0b;" horiz-adv-x="838" 
d="M21 707l125 122q17 -11 31.5 -24.5t23.5 -30.5l66 45h180l-36 -203q-8 -45 -51 -90q-42 -42 -48 -77l-51 -285q17 -6 39.5 -9t52.5 -1q43 1 80.5 15.5t66.5 38.5t48.5 56.5t25.5 69.5q34 190 -159 258l247 237l174 -75l-171 -148q142 -91 109 -280q-26 -146 -143 -238
q-121 -97 -308 -100q-70 -2 -140.5 13t-142.5 44l72 408q7 43 56 84q23 21 37.5 40.5t17.5 36.5l9 50l-84 -54q-11 19 -32 37q-43 40 -95 60z" />
    <glyph glyph-name="uni0E0C" unicode="&#xe0c;" horiz-adv-x="1362" 
d="M2 0l117 666q156 168 384 168q78 0 139.5 -19t102 -55.5t57.5 -89.5t5 -121l-43 -244q-12 -70 35 -115q43 -40 103 -40q123 0 144 120l97 549h201l-102 -577q-11 -62 -37.5 -109.5t-64 -80t-84.5 -49.5t-99 -17q-154 0 -229 116l-17 -102h-201l94 535q10 60 -28.5 95.5
t-108.5 35.5q-101 0 -158 -60l-78 -442h127l-28 -164h-328z" />
    <glyph glyph-name="uni0E0D" unicode="&#xe0d;" horiz-adv-x="1364" 
d="M2 0l117 666q156 168 384 168q78 0 139.5 -19t102 -55.5t57.5 -89.5t5 -121l-10 -57q-20 -111 130 -111q63 0 107.5 31.5t53.5 85.5l57 321h201l-94 -530q-11 -65 -47 -121t-90.5 -97t-125 -64t-150.5 -23q-190 0 -323 73l109 154q45 -32 95.5 -49t107.5 -17
q183 0 222 134q-82 -58 -199 -58q-302 0 -257 256l10 58q10 60 -28.5 95.5t-108.5 35.5q-101 0 -158 -60l-78 -442h127l-28 -164h-328z" />
    <glyph glyph-name="uni0E0E" unicode="&#xe0e;" horiz-adv-x="893" 
d="M-114 -307l29 164h282l216 129l99 -88l112 637q10 60 -28 95.5t-108 35.5q-101 0 -159 -60l-106 -606h-283l28 164h82l89 502q156 168 385 168q78 0 139.5 -19t102 -55.5t57 -89.5t4.5 -121l-151 -856h-184l-118 110l-163 -110h-325z" />
    <glyph glyph-name="uni0E0F" unicode="&#xe0f;" horiz-adv-x="893" 
d="M-114 -307l29 164h198l146 106l73 -98l107 98l71 -72l114 644q10 60 -28 95.5t-108 35.5q-101 0 -159 -60l-106 -606h-283l28 164h82l89 502q156 168 385 168q78 0 139.5 -19t102 -55.5t57 -89.5t4.5 -121l-151 -856h-193l-66 74l-121 -107l-84 107l-91 -74h-235z" />
    <glyph glyph-name="uni0E10" unicode="&#xe10;" horiz-adv-x="834" 
d="M-107 -307l28 164h206l120 84l75 -86l105 88l63 -64l14 80l-21 57h230l-57 -323h-197l-60 67l-109 -98l-84 100l-87 -69h-226zM32 674q97 81 200 120.5t220 39.5q97 0 162 -33l79 90l178 -74l-128 -129q64 -108 38 -262q-33 -186 -175 -307q-149 -125 -373 -125h-30.5
t-31.5 2l-14 344h-90l29 164h254l10 -332q38 7 74.5 31t67 59t52 77.5t29.5 86.5q17 99 -33 164q-57 72 -166 72q-143 0 -253 -113z" />
    <glyph glyph-name="uni0E11" unicode="&#xe11;" horiz-adv-x="922" 
d="M30 707l124 122q36 -22 56 -55l65 45h180l-36 -203q-9 -48 -57 -92q-46 -40 -52 -75l-9 -50q-3 -17 -11.5 -51.5t-22.5 -85.5h4q16 32 45.5 84.5t71.5 124.5l232 352q75 2 126.5 -9.5t81 -40t38 -75t-3.5 -114.5l-102 -584h-201l103 586q6 39 -7 39l-403 -625h-219
l79 453q4 21 18.5 42.5t41.5 41.5q53 42 59 77l9 50l-84 -54q-11 19 -32 37q-22 20 -45 35t-49 25z" />
    <glyph glyph-name="uni0E12" unicode="&#xe12;" horiz-adv-x="1405" 
d="M22.5 226.5q-9.5 74.5 7.5 166.5q30 156 143 281q119 122 255 155l90 -84l99 76q275 -21 229 -280l-42 -236q-12 -69 36 -115q43 -40 103 -40q123 0 144 120l97 549h201l-102 -577q-11 -62 -37.5 -109.5t-64 -80t-84.5 -49.5t-99 -17q-153 0 -230 116l-17 -102h-200
l97 555q12 67 -36 82l-125 -100l-102 98q-61 -45 -99 -104.5t-53 -137.5q-20 -95 3 -153q22 -66 89 -66q49 0 102 45l92 -133q-105 -96 -232 -96q-76 0 -132 28.5t-89.5 81t-43 127z" />
    <glyph glyph-name="uni0E13" unicode="&#xe13;" horiz-adv-x="1362" 
d="M2 0l117 666q156 168 384 168q78 0 139.5 -19t102 -55.5t57.5 -89.5t5 -121l-49 -279q-21 -120 101 -120q31 0 62.5 11t58.5 31.5t46.5 49t25.5 63.5l91 514h201l-144 -819h-201l17 102q-114 -116 -270 -116q-104 0 -156 63q-59 69 -38 193l52 293q10 60 -28.5 95.5
t-108.5 35.5q-101 0 -158 -60l-78 -442h127l-28 -164h-328z" />
    <glyph glyph-name="uni0E14" unicode="&#xe14;" horiz-adv-x="899" 
d="M21.5 225.5q-8.5 74.5 8.5 167.5q35 183 179 309q145 132 323 132q251 0 319 -183l-114 -651h-201l106 602q-24 55 -134 55q-100 0 -178 -82q-39 -40 -62.5 -85.5t-34.5 -96.5q-10 -48 -8 -86t13 -67q25 -66 95 -66q57 0 107 41l83 -139q-104 -86 -226 -86q-83 0 -141 28
t-92 80.5t-42.5 127z" />
    <glyph glyph-name="uni0E15" unicode="&#xe15;" horiz-adv-x="913" 
d="M22.5 226.5q-9.5 74.5 7.5 166.5q30 156 143 281q119 122 255 155l90 -84l99 76q275 -21 229 -280l-95 -541h-200l97 555q12 67 -36 82l-125 -100l-102 98q-61 -45 -99 -104.5t-53 -137.5q-20 -95 3 -153q22 -66 89 -66q49 0 102 45l92 -133q-105 -96 -232 -96
q-76 0 -132 28.5t-89.5 81t-43 127z" />
    <glyph glyph-name="uni0E16" unicode="&#xe16;" horiz-adv-x="872" 
d="M2 0l117 666q156 168 384 168q78 0 139.5 -19t102 -55.5t57.5 -89.5t5 -121l-96 -549h-201l94 535q10 60 -28.5 95.5t-108.5 35.5q-101 0 -158 -60l-78 -442h127l-28 -164h-328z" />
    <glyph glyph-name="uni0E17" unicode="&#xe17;" horiz-adv-x="874" 
d="M2 0l144 819h201l-18 -102q109 117 270 117q106 0 167 -64q71 -74 48 -195l-101 -575h-201l97 551q8 51 -23 85t-91 34t-127 -43q-63 -44 -72 -99l-93 -528h-201z" />
    <glyph glyph-name="uni0E18" unicode="&#xe18;" horiz-adv-x="797" 
d="M1 43l51 287l205 51l-39 -217q44 -10 96 -10q34 0 67.5 8t61 23t46 36.5t23.5 48.5q17 98 -144 113q-323 35 -292 213q18 102 137 170q113 65 250 65q67 0 122.5 -17.5t95.5 -50.5t62 -79.5t22 -103.5h-204q-8 86 -145 86q-54 0 -92 -16.5t-43 -41.5q-8 -41 161 -63
q312 -40 268 -285q-12 -69 -48.5 -121.5t-100.5 -87.5q-55 -32 -123.5 -47.5t-153.5 -15.5q-151 0 -283 55z" />
    <glyph glyph-name="uni0E19" unicode="&#xe19;" horiz-adv-x="874" 
d="M45 244l101 575h201l-97 -551q-5 -25 1 -46.5t21 -37.5t38.5 -25t53.5 -9q61 0 125 43q63 42 74 98l93 528h201l-144 -819h-201l17 102q-110 -116 -270 -116q-104 0 -167 65q-70 70 -47 193z" />
    <glyph glyph-name="uni0E1A" unicode="&#xe1a;" horiz-adv-x="872" 
d="M51 281l95 538h201l-95 -538q-22 -127 131 -127q154 0 176 127l95 538h201l-95 -538q-12 -66 -46.5 -120t-87 -93t-122 -60.5t-151.5 -21.5t-144 21.5t-101 60.5t-54 93t-3 120z" />
    <glyph glyph-name="uni0E1B" unicode="&#xe1b;" horiz-adv-x="872" 
d="M51 281l95 538h201l-95 -538q-22 -127 131 -127q154 0 176 127l122 690h201l-122 -690q-12 -66 -46.5 -120t-87 -93t-122 -60.5t-151.5 -21.5t-144 21.5t-101 60.5t-54 93t-3 120z" />
    <glyph glyph-name="uni0E1C" unicode="&#xe1c;" horiz-adv-x="1098" 
d="M64 819h334l-29 -162h-101l26 -329l257 491h121l87 -491l220 491h181l-374 -819h-141l-87 518l-267 -518h-140z" />
    <glyph glyph-name="uni0E1D" unicode="&#xe1d;" horiz-adv-x="1098" 
d="M64 819h334l-29 -162h-101l26 -329l257 491h121l87 -491l286 643h181l-442 -971h-139l-88 516l-266 -516h-140z" />
    <glyph glyph-name="uni0E1E" unicode="&#xe1e;" horiz-adv-x="1098" 
d="M64 819h190l40 -491l257 491h121l87 -491l220 491h181l-374 -819h-141l-87 518l-267 -518h-140z" />
    <glyph glyph-name="uni0E1F" unicode="&#xe1f;" horiz-adv-x="1098" 
d="M64 819h190l40 -491l257 491h121l87 -491l286 643h181l-442 -971h-139l-88 516l-266 -516h-140z" />
    <glyph glyph-name="uni0E20" unicode="&#xe20;" horiz-adv-x="893" 
d="M-60 0l28 164h82l89 502q156 168 385 168q78 0 139.5 -19t102 -55.5t57 -89.5t4.5 -121l-96 -549h-201l94 535q10 60 -28 95.5t-108 35.5q-101 0 -159 -60l-106 -606h-283z" />
    <glyph glyph-name="uni0E21" unicode="&#xe21;" horiz-adv-x="874" 
d="M2 0l144 819h201l-93 -528q-11 -58 38 -98q49 -43 111 -43q30 0 56.5 9t47 25t34 37.5t18.5 46.5l97 551h201l-101 -575q-11 -60 -40 -109t-77 -84q-86 -65 -190 -65q-160 0 -229 116l-17 -102h-201z" />
    <glyph glyph-name="uni0E22" unicode="&#xe22;" horiz-adv-x="860" 
d="M8 268q24 138 184 181q-130 33 -109 153q16 92 110 160q94 67 211 67q88 0 157 -28l-30 -166q-23 15 -51.5 23t-63.5 8q-115 0 -127 -68t132 -68q44 0 94 11l-31 -174h-90q-164 0 -182 -103q-5 -25 5 -45.5t32 -34.5t53.5 -22t70.5 -8q95 0 159 43l110 622h200l-119 -674
q-154 -157 -380 -157q-91 0 -158 20t-112 62q-87 77 -65 198z" />
    <glyph glyph-name="uni0E23" unicode="&#xe23;" horiz-adv-x="805" 
d="M3 289h196q-12 -131 151 -131q30 0 59 7.5t53 20.5t40 31t20 39q12 71 -143 86q-338 38 -305 221q21 118 137 195q54 38 117 57t132 19q315 0 323 -261h-201q-2 19 -14 36t-32 29.5t-46 20t-56 7.5t-56.5 -6.5t-47 -17t-33.5 -25t-16 -29.5q-9 -49 164 -70
q145 -17 209 -57q94 -58 73 -182q-24 -134 -150 -218q-113 -75 -265 -75t-239 75q-91 84 -70 228z" />
    <glyph glyph-name="uni0E24" unicode="&#xe24;" horiz-adv-x="872" 
d="M2 0l117 666q156 168 384 168q78 0 139.5 -19t102 -55.5t57.5 -89.5t5 -121l-151 -856h-201l149 842q10 60 -28.5 95.5t-108.5 35.5q-101 0 -158 -60l-78 -442h127l-28 -164h-328z" />
    <glyph glyph-name="uni0E25" unicode="&#xe25;" horiz-adv-x="887" 
d="M8 270q11 62 46.5 114t91 89t129 57.5t160.5 20.5q54 0 99 -9.5t80 -29.5l14 82q-23 72 -145 72q-141 0 -195 -105h-213q25 66 69.5 117t111.5 88q119 68 264 68q136 0 228 -62q40 -29 62.5 -63t25.5 -76l-111 -633h-201l51 291q-45 80 -178 80q-36 0 -68 -7.5t-56.5 -22
t-40.5 -34t-20 -43.5q-7 -37 18.5 -61.5t70.5 -24.5q57 0 104 29l79 -144q-100 -73 -238 -73q-65 0 -114 22t-80 60t-42.5 89t-1.5 109z" />
    <glyph glyph-name="uni0E26" unicode="&#xe26;" horiz-adv-x="893" 
d="M-60 0l28 164h82l89 502q156 168 385 168q78 0 139.5 -19t102 -55.5t57 -89.5t4.5 -121l-151 -856h-201l149 842q10 60 -28 95.5t-108 35.5q-101 0 -159 -60l-106 -606h-283z" />
    <glyph glyph-name="uni0E27" unicode="&#xe27;" horiz-adv-x="801" 
d="M16 317h197q12 -155 132 -155q84 0 138 76q49 67 68 172q9 54 8 98t-15 76q-29 75 -109 75q-127 0 -187 -157h-199q25 79 66 141t94 104.5t117.5 64.5t137.5 22q86 0 148 -29.5t99 -85t47.5 -134t-6.5 -175.5q-17 -98 -55.5 -176t-94.5 -133.5t-129 -85t-159 -29.5
q-147 0 -225 84t-73 247z" />
    <glyph glyph-name="uni0E28" unicode="&#xe28;" horiz-adv-x="893" 
d="M2 0l95 539q11 66 46 117.5t93 93.5q120 84 277 84q80 0 136 -21l73 78l178 -74l-110 -104q52 -78 36 -174l-95 -539h-201l97 551q8 51 -30.5 83t-113.5 32q-37 0 -68.5 -8.5t-55.5 -24t-39.5 -36.5t-19.5 -46l-12 -68h225l-29 -164h-225l-56 -319h-201z" />
    <glyph glyph-name="uni0E29" unicode="&#xe29;" horiz-adv-x="893" 
d="M51 281l95 538h201l-95 -538q-22 -127 131 -127q154 0 176 127l14 81h-203l33 185l78 -21h121l52 293h201l-52 -293h90l-29 -164h-90l-14 -81q-12 -66 -46.5 -120t-87 -93t-122 -60.5t-151.5 -21.5t-144 21.5t-101 60.5t-54 93t-3 120z" />
    <glyph glyph-name="uni0E2A" unicode="&#xe2a;" horiz-adv-x="891" 
d="M8 270q11 62 46.5 114t91 89t129 57.5t160.5 20.5q54 0 99 -9.5t80 -29.5l14 82q-23 72 -145 72q-141 0 -195 -105h-213q25 66 69.5 117t111.5 88q119 68 264 68q42 0 74.5 -6t58.5 -17l71 80l178 -70l-102 -104q31 -44 36 -84l-111 -633h-201l51 291q-45 80 -178 80
q-36 0 -68 -7.5t-56.5 -22t-40.5 -34t-20 -43.5q-7 -37 18.5 -61.5t70.5 -24.5q57 0 104 29l79 -144q-100 -73 -238 -73q-65 0 -114 22t-80 60t-42.5 89t-1.5 109z" />
    <glyph glyph-name="uni0E2B" unicode="&#xe2b;" horiz-adv-x="868" 
d="M2 0l144 819h197l-42 -239l353 249l191 -51l-218 -157q181 -41 150 -213l-71 -408h-194l62 352q26 143 -104 158l-208 -152l-63 -358h-197z" />
    <glyph glyph-name="uni0E2C" unicode="&#xe2c;" horiz-adv-x="1098" 
d="M64 819h199l43 -467l241 467h129l83 -471l90 213q4 8 6.5 14.5t4.5 14.5q11 65 -57 65h-47l29 164h76q97 0 122 55l42 89h203l-66 -146q-41 -86 -148 -115q51 -32 39 -106q-2 -11 -5.5 -22.5t-8.5 -22.5l-253 -551h-147l-84 502l-258 -502h-146z" />
    <glyph glyph-name="uni0E2D" unicode="&#xe2d;" horiz-adv-x="946" 
d="M33 410q2 14 6 29t9 32h414l-29 -164h-195q28 -133 183 -133q51 0 96 17t80.5 48.5t59.5 74.5t33 96q9 51 0.5 94t-32.5 74t-63 48t-91 17q-139 0 -217 -111h-217q156 302 468 302q190 0 288 -119q49 -60 66.5 -135.5t0.5 -169.5q-33 -185 -175 -306q-139 -118 -330 -118
t-290 118q-98 119 -65 306z" />
    <glyph glyph-name="uni0E2E" unicode="&#xe2e;" horiz-adv-x="946" 
d="M33 410q2 14 6 29t9 32h414l-29 -164h-195q28 -133 183 -133q51 0 96 17t80.5 48.5t59.5 74.5t33 96q9 51 0.5 94t-32.5 74t-63 48t-91 17q-139 0 -217 -111h-217q156 302 468 302q95 0 164 -31l82 88l179 -72l-122 -125q40 -57 53.5 -127t-1.5 -157q-33 -185 -175 -306
q-139 -118 -330 -118t-290 118q-98 119 -65 306z" />
    <glyph glyph-name="uni0E2F" unicode="&#xe2f;" horiz-adv-x="817" 
d="M50 610q8 47 36 87t70 69.5t95 46t112 16.5q79 0 160 -34l-27 -154q-51 27 -129 27q-107 0 -117 -58q-11 -57 99 -57q60 0 114.5 21.5t105.5 64.5l32 180h198l-144 -819h-198l80 457q-112 -70 -230 -70q-141 0 -211 70q-61 64 -46 153z" />
    <glyph glyph-name="uni0E30" unicode="&#xe30;" horiz-adv-x="422" 
d="M-12 102l41 228h201l-15 -84h129l-26 -144h-330zM57 489l40 228h201l-15 -84h129l-25 -144h-330z" />
    <glyph glyph-name="uni0E31" unicode="&#xe31;" 
d="M-398 922l43 245h200l-18 -102h444l-25 -143h-644z" />
    <glyph glyph-name="uni0E32" unicode="&#xe32;" horiz-adv-x="623" 
d="M59 602l32 184q52 23 103.5 35.5t105.5 12.5q75 0 128 -23t84.5 -64.5t41 -98.5t-2.5 -126l-92 -522h-191l88 504q27 147 -127 147q-42 0 -85 -12t-85 -37z" />
    <glyph glyph-name="uni0E33" unicode="&#xe33;" horiz-adv-x="621" 
d="M-223 1047q5 28 20.5 52.5t38 43t51 29t59.5 10.5t56 -10.5t41 -29t22.5 -43t1.5 -52.5q-5 -29 -20 -53.5t-37.5 -43t-51 -29t-59.5 -10.5q-32 0 -56.5 10.5t-41 29t-23 43t-1.5 53.5zM-133 1047q-4 -20 10 -36t37 -16q22 0 40.5 16t22.5 36t-9.5 35.5t-36.5 15.5
t-41.5 -15.5t-22.5 -35.5zM59 602l32 184q52 23 103.5 35.5t105.5 12.5q75 0 128 -23t84.5 -64.5t41 -98.5t-2.5 -126l-92 -522h-191l88 504q27 147 -127 147q-42 0 -85 -12t-85 -37z" />
    <glyph glyph-name="uni0E34" unicode="&#xe34;" 
d="M-675 922l25 143h675l-25 -143h-675z" />
    <glyph glyph-name="uni0E35" unicode="&#xe35;" 
d="M-675 922l25 143h475l18 102h200l-43 -245h-675z" />
    <glyph glyph-name="uni0E36" unicode="&#xe36;" 
d="M-675 922l25 143h441q15 51 57.5 84t97.5 33q30 0 53.5 -10t38.5 -28t21 -42t1 -51q-5 -28 -19.5 -51.5t-35.5 -41t-47.5 -27t-56.5 -9.5h-576zM-127 1051q-9 -52 42 -52q50 0 59 52q9 51 -42 51q-50 0 -59 -51z" />
    <glyph glyph-name="uni0E37" unicode="&#xe37;" 
d="M-675 922l25 143h305l18 102h109l-18 -102h61l18 102h200l-43 -245h-675z" />
    <glyph glyph-name="uni0E38" unicode="&#xe38;" 
d="M-481 -205l22 123h283l-49 -276h-201l27 153h-82z" />
    <glyph glyph-name="uni0E39" unicode="&#xe39;" 
d="M-718 -205l22 123h237l-25 -141q19 -10 39 -10q41 0 47 32l21 119h201l-25 -143q-12 -68 -95 -109q-72 -35 -166 -35q-75 0 -126 20t-82 58l15 86h-63z" />
    <glyph glyph-name="uni0E3A" unicode="&#xe3a;" 
d="M-431 -205q4 25 18.5 47t35.5 39t47 27t54 10q27 0 49.5 -10t37.5 -27t21.5 -39t2.5 -47q-4 -24 -18.5 -46.5t-35.5 -39.5t-47 -27t-53 -10q-28 0 -50.5 10t-37.5 27t-21.5 39.5t-2.5 46.5z" />
    <glyph glyph-name="uni0E3F" unicode="&#xe3f;" horiz-adv-x="942" 
d="M12 0l170 965h338l22 127h78l-22 -127h27q313 0 270 -240q-24 -136 -164 -201q163 -48 129 -243q-24 -138 -141 -213q-101 -68 -242 -68h-49l-25 -137h-78l25 137h-338zM250 166h129l46 264h-129zM322 573h129l40 228h-129zM457 166h24q152 0 174 127q24 137 -128 137
h-24zM529 573h8q126 0 147 117q19 111 -115 111z" />
    <glyph glyph-name="uni0E40" unicode="&#xe40;" horiz-adv-x="406" 
d="M22 0l144 819h201l-144 -819h-201z" />
    <glyph glyph-name="uni0E41" unicode="&#xe41;" horiz-adv-x="750" 
d="M22 0l144 819h201l-144 -819h-201zM366 0l144 819h201l-144 -819h-201z" />
    <glyph glyph-name="uni0E42" unicode="&#xe42;" horiz-adv-x="446" 
d="M43 0l157 895q10 57 -45 117q-54 58 -45 100q21 127 218 127h291l-27 -154h-211q-58 0 -59 -12q-1 -3 7 -10.5t19 -18t23 -23t19 -24.5q22 -40 13 -94l-159 -903h-201z" />
    <glyph glyph-name="uni0E43" unicode="&#xe43;" horiz-adv-x="446" 
d="M14 1036q10 56 37.5 101.5t68 77t90.5 48.5t105 17q56 0 99.5 -16t72 -44t40 -66t4.5 -81q-9 -48 -67 -98q-57 -50 -66 -96l-154 -879h-201l158 899q10 58 68 105q58 43 63 73q10 58 -48 58q-74 0 -92 -99h-178z" />
    <glyph glyph-name="uni0E44" unicode="&#xe44;" horiz-adv-x="406" 
d="M-21 1151l135 119l104 -113l140 100l172 -213q-140 -92 -160 -208l-147 -836h-201l144 817q19 114 156 221l-22 27l-140 -107z" />
    <glyph glyph-name="uni0E45" unicode="&#xe45;" horiz-adv-x="643" 
d="M59 602l32 184q52 23 103.5 35.5t105.5 12.5q153 0 226 -91q68 -90 45 -221l-147 -829h-190l143 811q6 34 -2.5 61.5t-28 46.5t-50 29t-67.5 10q-42 0 -85 -12t-85 -37z" />
    <glyph glyph-name="uni0E46" unicode="&#xe46;" horiz-adv-x="840" 
d="M20 385l31 174q23 129 102.5 199.5t205.5 70.5l86 -77l117 77q260 0 212 -270l-153 -866h-201l158 895q12 69 -31 76l-127 -89l-109 89q-47 -8 -59 -76l-7 -41h136l-29 -162h-332z" />
    <glyph glyph-name="uni0E47" unicode="&#xe47;" 
d="M-615 922l16 88q8 47 30.5 86.5t57.5 68t81 44.5t102 16h382l-19 -103h-376q-48 0 -78.5 -24.5t-35.5 -55.5h74l119 60l94 -60h126l-21 -120h-137l-84 55l-108 -55h-223z" />
    <glyph glyph-name="uni0E48" unicode="&#xe48;" 
d="M-146 1229l36 205h200l-36 -205h-200z" />
    <glyph glyph-name="uni0E49" unicode="&#xe49;" 
d="M-255 1339l19 111h111q103 0 88 -88l-1 -4h228l-23 -129h-388l16 90q5 20 -15 20h-35z" />
    <glyph glyph-name="uni0E4A" unicode="&#xe4a;" 
d="M-309 1229l17 98q22 123 161 123h45l63 -49l73 49h45q133 0 114 -111l-3 -12h105l-17 -98h-258l17 94q3 13 -9 23l-88 -64l-79 64q-7 -5 -10.5 -10t-5.5 -13l-10 -57l12 -37h-172z" />
    <glyph glyph-name="uni0E4B" unicode="&#xe4b;" 
d="M-205 1307l20 112h92l13 78h159l-13 -78h92l-20 -112h-92l-14 -78h-159l14 78h-92z" />
    <glyph glyph-name="uni0E4C" unicode="&#xe4c;" 
d="M-184 1147l10 57q22 129 167 129h146l-22 -121h-60q-51 0 -58 -43l-4 -22h-179z" />
    <glyph glyph-name="uni0E4D" unicode="&#xe4d;" 
d="M-223 1047q5 28 20.5 52.5t38 43t51 29t59.5 10.5t56 -10.5t41 -29t22.5 -43t1.5 -52.5q-5 -29 -20 -53.5t-37.5 -43t-51 -29t-59.5 -10.5q-32 0 -56.5 10.5t-41 29t-23 43t-1.5 53.5zM-133 1047q-4 -20 10 -36t37 -16q22 0 40.5 16t22.5 36t-9.5 35.5t-36.5 15.5
t-41.5 -15.5t-22.5 -35.5z" />
    <glyph glyph-name="uni0E4E" unicode="&#xe4e;" 
d="M-464 1057q5 28 24 53.5t47.5 44.5t63.5 31.5t72 15.5q-50 23 -39 76q7 39 34 72.5t71 57.5t102.5 38t128.5 14q28 0 55.5 -1.5t55.5 -6.5l-21 -119q-50 15 -108 15q-35 0 -66 -5t-55.5 -14.5t-40 -23t-18.5 -29.5q-6 -40 75 -31l-19 -106q-64 6 -135 -13
q-82 -21 -88 -59q-6 -33 51 -33q50 0 106 29l40 -98q-87 -43 -176 -43q-40 0 -72 9.5t-53.5 27t-31 42.5t-3.5 56z" />
    <glyph glyph-name="uni0E4F" unicode="&#xe4f;" horiz-adv-x="983" 
d="M64 410q30 173 175 297q143 122 319 122q173 0 274 -122t71 -297q-32 -176 -176 -297q-143 -123 -317 -123q-176 0 -276 123q-101 126 -70 297zM125 410q-27 -146 60 -254q88 -105 235 -105q148 0 270 105q64 54 101 116.5t51 137.5q25 148 -63 252q-84 106 -232 106
q-149 0 -273 -106q-123 -105 -149 -252zM228 410q18 106 105 180q88 76 196 76q107 0 167 -76q62 -74 44 -180q-20 -107 -108 -183q-85 -73 -193 -73q-107 0 -170 73q-30 39 -40.5 84t-0.5 99z" />
    <glyph glyph-name="uni0E50" unicode="&#xe50;" horiz-adv-x="836" 
d="M26 315q24 135 144 232q119 98 281 98q161 0 247 -98q85 -94 61 -232q-12 -69 -46 -125t-94 -104q-121 -100 -284 -100q-164 0 -248 100q-85 94 -61 229zM221 315q-6 -32 1.5 -60t26.5 -50t48 -34.5t66 -12.5t70.5 12.5t60.5 34.5t45 50t24 60q6 31 -2 59.5t-27.5 50
t-49 34t-65.5 12.5q-38 0 -71 -12.5t-59.5 -34t-44 -50t-23.5 -59.5z" />
    <glyph glyph-name="uni0E51" unicode="&#xe51;" horiz-adv-x="891" 
d="M29 332q24 138 159 227q66 43 135.5 64.5t147.5 21.5q171 0 269 -92q100 -87 75 -238q-28 -163 -190 -284q-149 -112 -346 -140l-54 121q78 9 145.5 32.5t119 59t84.5 82t43 101.5q7 42 -1.5 77t-31 60t-58 39t-82.5 14q-40 0 -77.5 -11.5t-67.5 -32t-50 -47t-25 -56.5
q-11 -60 14 -80q3 31 19 58.5t41 47.5t56.5 31.5t65.5 11.5q33 0 59.5 -11.5t44.5 -30.5t26 -45t3 -54q-7 -41 -30.5 -76t-60 -60.5t-84 -40.5t-101.5 -15q-118 0 -194 73q-75 76 -54 193zM340 256q-9 -49 46 -49t64 49q8 47 -47 47t-63 -47z" />
    <glyph glyph-name="uni0E52" unicode="&#xe52;" horiz-adv-x="1161" 
d="M13 764l177 117q140 -97 112 -256l-69 -389q-15 -82 76 -82h521l47 270q11 54 -29 68l-141 -101l-123 101q-50 0 -57 -39q54 -7 77.5 -45t14.5 -89q-5 -28 -21.5 -52.5t-40.5 -43t-54.5 -29t-63.5 -10.5t-59 10.5t-43.5 29t-24.5 43t-2 52.5l17 99q10 56 39 100.5t71 74
t95 43.5t111 9l89 -78l118 78q121 6 182 -61q56 -65 38 -166l-73 -418h-792q-205 0 -176 156l79 450q8 46 -13 86q-24 53 -82 72zM416 322q-7 -46 41 -46q51 0 58 46q9 45 -42 45q-48 0 -57 -45z" />
    <glyph glyph-name="uni0E53" unicode="&#xe53;" horiz-adv-x="952" 
d="M30 160l39 221q42 237 318 264l108 -84l140 84q264 -24 222 -264l-67 -381h-196l64 365q14 77 -51 98l-139 -94l-119 94q-70 -21 -84 -98l-7 -41q33 -3 59.5 -17.5t44 -36.5t25 -50.5t1.5 -59.5q-6 -35 -25.5 -65.5t-48 -54t-64 -37t-72.5 -13.5q-39 0 -69.5 13t-50 35.5
t-27 54t-1.5 67.5zM151 160q-10 -58 46 -58q67 0 77 58q10 57 -56 57q-57 0 -67 -57z" />
    <glyph glyph-name="uni0E54" unicode="&#xe54;" horiz-adv-x="961" 
d="M25 307q22 144 155 240q125 92 286 92h232q24 0 43.5 15t32.5 46q19 42 37 144h195q-62 -371 -307 -371h-262q-39 0 -75.5 -11.5t-66 -33.5t-49.5 -52.5t-26 -68.5q-5 -33 4.5 -59.5t29.5 -45t49 -28.5t63 -10q26 0 48 1.5t40 6.5q-27 41 -17 102q6 31 24.5 59t45 48.5
t59 32.5t66.5 12q35 0 63 -12t46.5 -32t27 -46.5t3.5 -56.5q-10 -60 -47 -101q116 -21 167 -72l-136 -135q-92 56 -166 56q-30 0 -112 -17q-39 -8 -77 -12t-73 -4q-147 0 -234 78q-93 85 -69 235zM547 279q-9 -50 50 -50q57 0 66 50q9 51 -48 51q-59 0 -68 -51z" />
    <glyph glyph-name="uni0E55" unicode="&#xe55;" horiz-adv-x="961" 
d="M25 309q9 53 34.5 101.5t65.5 88t93 68t116 41.5q-16 26 -8 68q6 34 25.5 64t49 52.5t67 35t79.5 12.5q87 0 132 -43t33 -115q-5 -29 -18 -45h14q104 0 140 207h191q-15 -83 -46 -151.5t-74.5 -117t-98 -75.5t-115.5 -27h-239q-46 0 -89 -11.5t-77 -32.5t-56 -51.5
t-26 -68.5q-5 -33 4.5 -60t30 -45.5t49.5 -29t64 -10.5q26 0 48 1.5t40 6.5q-27 41 -17 102q6 31 24.5 59t45 48.5t59 32.5t66.5 12q35 0 63 -12t46.5 -32t27 -46.5t3.5 -56.5q-10 -60 -47 -101l81 -16q28 -9 49 -21.5t38 -27.5l-137 -142q-92 56 -166 56q-30 0 -112 -17
q-39 -8 -77 -12t-73 -4q-146 0 -231 80q-96 85 -72 235zM455 678q-9 -55 53 -55q65 0 74 55q10 55 -54 55q-63 0 -73 -55zM547 279q-9 -50 50 -50q57 0 66 50q9 51 -48 51q-59 0 -68 -51z" />
    <glyph glyph-name="uni0E56" unicode="&#xe56;" horiz-adv-x="897" 
d="M-57 735l172 109q136 -98 173 -254q100 55 214 55q164 0 254 -92q91 -87 66 -234q-25 -144 -159 -239q-66 -48 -141.5 -71t-160.5 -23q-149 0 -234 75q-80 74 -64 164q6 34 25 64.5t47 53t62.5 35.5t71.5 13t66.5 -13t49 -34.5t28 -50.5t3.5 -60q-8 -44 -35 -77h10
q42 0 82 12t72 33.5t54 51.5t28 66q6 34 -3 63.5t-31 51t-55 33.5t-75 12q-54 0 -106.5 -18t-107.5 -53l-127 30q-2 51 -14 92t-35 76q-17 27 -49.5 59t-80.5 70zM182 233q-9 -49 49 -49q59 0 68 49q8 50 -51 50q-58 0 -66 -50z" />
    <glyph glyph-name="uni0E57" unicode="&#xe57;" horiz-adv-x="1186" 
d="M30 160l39 221q42 237 318 264l88 -84l119 84q264 -24 222 -264l-40 -227q22 0 38 2.5t27.5 9.5t18.5 20.5t11 34.5l72 404q14 81 64.5 144.5t138.5 111.5l135 -117q-62 -18 -106 -72q-18 -21 -29.5 -42.5t-15.5 -43.5l-71 -405q-8 -46 -30.5 -83t-56.5 -63.5
t-77.5 -40.5t-93.5 -14h-248l64 365q14 77 -51 98l-118 -94l-99 94q-70 -21 -84 -98l-7 -41q33 -3 59.5 -17.5t44 -36.5t25 -50.5t1.5 -59.5q-6 -35 -25.5 -65.5t-48 -54t-64 -37t-72.5 -13.5q-39 0 -69.5 13t-50 35.5t-27 54t-1.5 67.5zM151 160q-10 -58 46 -58q67 0 77 58
q10 57 -56 57q-57 0 -67 -57z" />
    <glyph glyph-name="uni0E58" unicode="&#xe58;" horiz-adv-x="987" 
d="M25 307q26 152 176 248q144 90 332 90q60 0 112 -3t97 -11q26 38 51 93t46 124l183 -27q-69 -224 -226 -381q-75 20 -142 30.5t-130 10.5q-61 0 -113.5 -13.5t-93 -36.5t-66 -55t-31.5 -69q-15 -79 46 -119l161 123l155 -145l17 8q-35 22 -22 94q5 28 22 54.5t42 46
t56 31.5t65 12t62 -10.5t47 -29.5t28 -45t4 -57q-17 -134 -213 -219l-162 -71l-133 114l-135 -112q-60 15 -107 42.5t-78 69.5q-72 92 -50 213zM681 262q-9 -49 46 -49t64 49q9 51 -46 51q-23 0 -42 -15.5t-22 -35.5z" />
    <glyph glyph-name="uni0E59" unicode="&#xe59;" horiz-adv-x="1008" 
d="M25 330q24 140 143 227q115 88 271 88q122 0 197 -63q67 75 173 75q66 0 107 -26q19 42 29 91t10 109h190q-1 -14 -3 -26.5t-4 -26.5q-42 -233 -196 -368l-60 18q-7 28 -23 41.5t-45 13.5q-52 0 -72 -32q79 -148 75 -439l-190 -20q5 112 0.5 195.5t-21.5 140.5
q-43 151 -188 151q-38 0 -71 -12t-59 -32t-43.5 -48t-23.5 -59q-9 -55 10 -105q12 27 32 49.5t45 38t54 24.5t60 9q37 0 67 -13.5t49.5 -36.5t28 -53t2.5 -63q-7 -40 -31.5 -73.5t-60.5 -58t-80 -38.5t-90 -14q-147 0 -228 100q-78 103 -54 236zM333 174q-9 -49 49 -49
q57 0 66 49q9 53 -48 53q-58 0 -67 -53z" />
    <glyph glyph-name="uni0E5A" unicode="&#xe5a;" horiz-adv-x="1057" 
d="M50 610q8 47 36 87t70 69.5t95 46t112 16.5q79 0 160 -34l-27 -154q-51 27 -129 27q-107 0 -117 -58q-11 -57 99 -57q60 0 114.5 21.5t105.5 64.5l32 180h198l-44 -248q30 11 59 28t56 40l32 180h137l-144 -819h-137l80 457q-25 -16 -52.5 -28t-59.5 -23l-71 -406h-198
l80 457q-112 -70 -230 -70q-141 0 -211 70q-61 64 -46 153z" />
    <glyph glyph-name="uni0E5B" unicode="&#xe5b;" horiz-adv-x="1577" 
d="M53 414q29 155 127 262q51 54 104 80t113 26q52 0 92 -20.5t65.5 -57t35 -87t-0.5 -109.5q-8 -46 -27 -85t-46 -67.5t-59.5 -44.5t-66.5 -16q-31 0 -55.5 11.5t-40.5 32t-22.5 49t-0.5 61.5q5 31 21 59.5t39.5 50t52 34.5t58.5 13h-4q-8 45 -62 45q-30 0 -58 -17.5
t-51.5 -49t-41 -75.5t-26.5 -97q-9 -50 -3 -93t24 -75t47 -50t67 -18q93 0 182 96q90 96 134 248q30 103 98 103q49 0 77 -97l1 2q12 74 77 74q40 0 76 -88q22 51 58 51q44 0 78 -82q31 54 62 54q14 0 28.5 -15.5t33.5 -44.5q35 32 54 29l175 -17q73 -6 64 -55
q-7 -46 -84 -55l-162 -17q-38 -53 -73 -53q-21 0 -42 51q-45 -73 -83 -73q-25 0 -50 73q-26 -48 -49 -72t-46 -24q-17 0 -28.5 23t-21.5 69q-59 -116 -122 -116q-54 0 -62 116q-55 -130 -161 -215q-116 -92 -249 -92q-135 0 -206 101q-68 103 -40 264zM368 453
q-9 -52 38 -52q49 0 58 52q9 51 -40 51q-47 0 -56 -51z" />
    <glyph glyph-name="uni2000" unicode="&#x2000;" horiz-adv-x="799" 
 />
    <glyph glyph-name="uni2001" unicode="&#x2001;" horiz-adv-x="1599" 
 />
    <glyph glyph-name="uni2002" unicode="&#x2002;" horiz-adv-x="799" 
 />
    <glyph glyph-name="uni2003" unicode="&#x2003;" horiz-adv-x="1599" 
 />
    <glyph glyph-name="uni2004" unicode="&#x2004;" horiz-adv-x="533" 
 />
    <glyph glyph-name="uni2005" unicode="&#x2005;" horiz-adv-x="399" 
 />
    <glyph glyph-name="uni2006" unicode="&#x2006;" horiz-adv-x="266" 
 />
    <glyph glyph-name="uni2007" unicode="&#x2007;" horiz-adv-x="266" 
 />
    <glyph glyph-name="uni2008" unicode="&#x2008;" horiz-adv-x="199" 
 />
    <glyph glyph-name="uni2009" unicode="&#x2009;" horiz-adv-x="319" 
 />
    <glyph glyph-name="uni200A" unicode="&#x200a;" horiz-adv-x="88" 
 />
    <glyph glyph-name="zerowidthnonjoiner" unicode="&#x200c;" 
 />
    <glyph glyph-name="zerowidthjoiner" unicode="&#x200d;" 
 />
    <glyph glyph-name="uni2010" unicode="&#x2010;" horiz-adv-x="543" 
d="M40 287l29 164h401l-29 -164h-401z" />
    <glyph glyph-name="uni2011" unicode="&#x2011;" horiz-adv-x="543" 
d="M40 287l29 164h401l-29 -164h-401z" />
    <glyph glyph-name="figuredash" unicode="&#x2012;" horiz-adv-x="543" 
d="M40 287l29 164h401l-29 -164h-401z" />
    <glyph glyph-name="endash" unicode="&#x2013;" horiz-adv-x="741" 
d="M18 268l25 146h639l-25 -146h-639z" />
    <glyph glyph-name="emdash" unicode="&#x2014;" horiz-adv-x="1483" 
d="M18 268l25 146h1381l-25 -146h-1381z" />
    <glyph glyph-name="quoteleft" unicode="&#x2018;" horiz-adv-x="336" 
d="M85 530l36 207q8 46 29.5 85.5t52 69t69.5 48.5t82 25l-16 -88q-96 -35 -114 -138h90l-37 -209h-192z" />
    <glyph glyph-name="quoteright" unicode="&#x2019;" horiz-adv-x="336" 
d="M85 530l15 88q97 34 115 138h-90l37 209h192l-37 -207q-8 -47 -29 -86t-52 -68.5t-69.5 -48.5t-81.5 -25z" />
    <glyph glyph-name="quotedblleft" unicode="&#x201c;" horiz-adv-x="623" 
d="M85 530l36 207q8 46 29.5 85.5t52 69t69.5 48.5t82 25l-16 -88q-96 -35 -114 -138h90l-37 -209h-192zM371 530l36 207q8 46 29.5 85.5t52.5 69t70 48.5t82 25l-16 -88q-96 -35 -114 -138h90l-37 -209h-193z" />
    <glyph glyph-name="quotedblright" unicode="&#x201d;" horiz-adv-x="623" 
d="M85 530l15 88q97 34 115 138h-90l37 209h192l-37 -207q-8 -47 -29 -86t-52 -68.5t-69.5 -48.5t-81.5 -25zM371 530l15 88q98 35 116 138h-91l37 209h193l-37 -207q-8 -47 -29.5 -86t-52 -68.5t-69.5 -48.5t-82 -25z" />
    <glyph glyph-name="bullet" unicode="&#x2022;" horiz-adv-x="758" 
d="M64 410q23 128 128 217q105 90 233 90q126 0 201 -90q36 -45 49.5 -99.5t2.5 -117.5q-22 -126 -128 -217t-234 -91q-127 0 -200 91q-38 45 -50.5 99.5t-1.5 117.5z" />
    <glyph glyph-name="ellipsis" unicode="&#x2026;" horiz-adv-x="1102" 
d="M2 0l36 209h203l-36 -209h-203zM369 0l36 209h202l-36 -209h-202zM735 0l36 209h203l-36 -209h-203z" />
    <glyph glyph-name="uni202F" unicode="&#x202f;" horiz-adv-x="319" 
 />
    <glyph glyph-name="uni205F" unicode="&#x205f;" horiz-adv-x="399" 
 />
    <glyph glyph-name="uni25FC" unicode="&#x25fc;" horiz-adv-x="700" 
d="M0 0v700h700v-700h-700z" />
    <glyph glyph-name="thothannobasethai" unicode="&#xf700;" horiz-adv-x="834" 
d="M32 674q97 81 200 120.5t220 39.5q97 0 162 -33l79 90l178 -74l-128 -129q64 -108 38 -262q-33 -186 -175 -307q-149 -125 -373 -125h-30.5t-31.5 2l-14 344h-90l29 164h254l10 -332q38 7 74.5 31t67 59t52 77.5t29.5 86.5q17 99 -33 164q-57 72 -166 72
q-143 0 -253 -113z" />
    <glyph glyph-name="saraileftthai" unicode="&#xf701;" 
d="M-875 922l25 143h614l-25 -143h-614z" />
    <glyph glyph-name="saraiileftthai" unicode="&#xf702;" 
d="M-875 922l25 143h413l18 102h201l-43 -245h-614z" />
    <glyph glyph-name="saraueleftthai" unicode="&#xf703;" 
d="M-878 922l25 143h379q16 51 58 84t99 33q30 0 53 -10t38.5 -28t21.5 -42t1 -51q-5 -28 -19.5 -51.5t-36 -41t-48 -27t-56.5 -9.5h-515zM-392 1051q-9 -52 43 -52q51 0 60 52q9 51 -42 51q-52 0 -61 -51z" />
    <glyph glyph-name="saraueeleftthai" unicode="&#xf704;" 
d="M-875 922l25 143h243l18 102h109l-18 -102h61l18 102h201l-43 -245h-614z" />
    <glyph glyph-name="maieklowleftthai" unicode="&#xf705;" 
d="M-482 922l43 245h200l-43 -245h-200z" />
    <glyph glyph-name="maitholowleftthai" unicode="&#xf706;" 
d="M-491 1044l21 123h123q118 0 100 -98l-1 -4h365l-25 -143h-546l18 100q3 22 -16 22h-39z" />
    <glyph glyph-name="maitrilowleftthai" unicode="&#xf707;" 
d="M-748 922l19 110q24 135 178 135h49l71 -53l82 53h50q149 0 128 -123l-3 -12h237l-19 -110h-409l18 104q4 16 -7 27l-101 -72l-88 72q-13 -7 -16 -25l-12 -65l14 -41h-191z" />
    <glyph glyph-name="maichattawalowleftthai" unicode="&#xf708;" 
d="M-631 1008l22 125h102l15 86h201l-15 -86h102l-22 -125h-102l-15 -86h-201l15 86h-102z" />
    <glyph glyph-name="thanthakhatlowleftthai" unicode="&#xf709;" 
d="M-475 962l11 64q26 143 188 143h161l-24 -133h-65q-59 0 -66 -49l-5 -25h-200z" />
    <glyph glyph-name="maieklowrightthai" unicode="&#xf70a;" 
d="M-200 922l43 245h200l-43 -245h-200z" />
    <glyph glyph-name="maitholowrightthai" unicode="&#xf70b;" 
d="M-366 1044l21 123h123q118 0 100 -98l-1 -4h250l-25 -143h-431l18 100q3 22 -16 22h-39z" />
    <glyph glyph-name="maitrilowrightthai" unicode="&#xf70c;" 
d="M-609 922l19 110q24 135 177 135h50l70 -53l83 53h49q149 0 128 -123l-3 -12h114l-19 -110h-285l18 104q4 16 -8 27l-101 -72l-87 72q-13 -7 -16 -25l-12 -65l13 -41h-190z" />
    <glyph glyph-name="maichattawalowrightthai" unicode="&#xf70d;" 
d="M-369 1008l22 125h102l15 86h180l-15 -86h102l-22 -125h-101l-15 -86h-181l15 86h-102z" />
    <glyph glyph-name="thanthakhatlowrightthai" unicode="&#xf70e;" 
d="M-275 922l11 63q26 143 185 143h162l-23 -133h-65q-58 0 -67 -49l-4 -24h-199z" />
    <glyph glyph-name="yoyingnobasethai" unicode="&#xf70f;" horiz-adv-x="1378" 
d="M2 0l117 666q156 168 384 168q78 0 139.5 -19t102 -55.5t57.5 -89.5t5 -121l-47 -270q-5 -29 2.5 -52t25 -39t43.5 -25t58 -9q33 0 63.5 9t54.5 25t40.5 39t21.5 52l95 540h196l-97 -549q-23 -129 -138 -207q-116 -77 -266 -77q-149 0 -238 77q-87 78 -64 207l47 265
q10 60 -28.5 95.5t-108.5 35.5q-101 0 -158 -60l-78 -442h127l-28 -164h-328z" />
    <glyph glyph-name="maihanakatleftthai" unicode="&#xf710;" 
d="M-568 922l43 245h200l-18 -102h464l-25 -143h-664z" />
    <glyph glyph-name="nikhahitleftthai" unicode="&#xf711;" 
d="M-487 1047q5 28 20.5 52.5t38 43t51 29t60.5 10.5q31 0 56 -10.5t41 -29t22.5 -43t1.5 -52.5q-5 -29 -20 -53.5t-37.5 -43t-51 -29t-60.5 -10.5t-56.5 10.5t-41 29t-23 43t-1.5 53.5zM-397 1047q-4 -20 10 -36t37 -16t41.5 16t22.5 36t-9.5 35.5t-36.5 15.5t-42 -15.5
t-23 -35.5z" />
    <glyph glyph-name="maitaikhuleftthai" unicode="&#xf712;" 
d="M-794 922l16 88q8 47 30.5 86.5t57.5 68t81.5 44.5t102.5 16h383l-19 -103h-377q-48 0 -78.5 -24.5t-35.5 -55.5h73l120 60l93 -60h127l-21 -120h-137l-84 55l-108 -55h-224z" />
    <glyph glyph-name="maiekupperleftthai" unicode="&#xf713;" 
d="M-408 1229l36 205h201l-36 -205h-201z" />
    <glyph glyph-name="maithoupperleftthai" unicode="&#xf714;" 
d="M-476 1339l19 111h111q104 0 89 -88l-1 -4h227l-23 -129h-389l16 90q5 20 -14 20h-35z" />
    <glyph glyph-name="maitriupperleftthai" unicode="&#xf715;" 
d="M-494 1229l17 98q22 123 161 123h46l63 -49l74 49h45q132 0 113 -111l-3 -12h104l-17 -98h-257l17 94q2 8 -0.5 13t-7.5 10l-89 -64l-79 64q-7 -5 -10.5 -10t-5.5 -13l-10 -57l11 -37h-172z" />
    <glyph glyph-name="maichattawaupperleftthai" unicode="&#xf716;" 
d="M-478 1307l20 112h92l13 78h181l-13 -78h92l-20 -112h-92l-14 -78h-181l14 78h-92z" />
    <glyph glyph-name="thanthakhatupperleftthai" unicode="&#xf717;" 
d="M-446 1147l10 57q22 129 168 129h145l-22 -121h-59q-51 0 -58 -43l-4 -22h-180z" />
    <glyph glyph-name="saraulowthai" unicode="&#xf718;" 
d="M-531 -492l21 123h283l-48 -276h-201l27 153h-82z" />
    <glyph glyph-name="sarauulowthai" unicode="&#xf719;" 
d="M-768 -492l21 123h237l-24 -141q19 -10 39 -10q41 0 47 33l20 118h201l-25 -143q-6 -35 -29 -62t-66 -47q-72 -34 -165 -34q-146 0 -208 77l15 86h-63z" />
    <glyph glyph-name="phinthulowthai" unicode="&#xf71a;" 
d="M-514 -492q4 25 18 47t35 39t47 27t54 10t50.5 -10t37.5 -27t21.5 -39t2.5 -47q-5 -24 -19.5 -46.5t-35 -39t-46.5 -26.5t-54 -10t-50.5 10t-38 26.5t-21.5 39t-1 46.5z" />
    <glyph glyph-name="lochula.short" unicode="&#xf71d;" 
 />
    <glyph glyph-name="fongmanfunnuthai" unicode="&#xf880;" 
 />
    <glyph glyph-name="uni0E33_1" horiz-adv-x="623" 
d="M-487 1047q5 28 20.5 52.5t38 43t51 29t60.5 10.5q31 0 56 -10.5t41 -29t22.5 -43t1.5 -52.5q-5 -29 -20 -53.5t-37.5 -43t-51 -29t-60.5 -10.5t-56.5 10.5t-41 29t-23 43t-1.5 53.5zM-397 1047q-4 -20 10 -36t37 -16t41.5 16t22.5 36t-9.5 35.5t-36.5 15.5t-42 -15.5
t-23 -35.5zM59 602l32 184q52 23 103.5 35.5t105.5 12.5q75 0 128 -23t84.5 -64.5t41 -98.5t-2.5 -126l-92 -522h-191l88 504q27 147 -127 147q-42 0 -85 -12t-85 -37z" />
    <glyph glyph-name="uni0E4E_1" 
d="M-595 1057q5 28 24 53.5t47.5 44.5t63.5 31.5t72 15.5q-50 23 -39 76q7 39 34 72.5t71 57.5t102.5 38t129.5 14q27 0 54 -1.5t56 -6.5l-21 -119q-50 15 -107 15q-35 0 -66 -5t-56 -14.5t-40.5 -23t-18.5 -29.5q-6 -40 75 -31l-19 -106q-64 6 -135 -13q-82 -21 -88 -59
q-6 -33 51 -33q52 0 105 29l41 -98q-89 -43 -176 -43q-40 0 -72 9.5t-53.5 27t-31 42.5t-3.5 56z" />
    <glyph glyph-name="F881" 
 />
    <glyph glyph-name="F882" 
 />
    <glyph glyph-name="saraueesp2" 
d="M-875 922l25 143h243l18 102h109l-18 -102h61l18 102h201l-43 -245h-614zM-490 1229l36 205h201l-36 -205h-201z" />
    <glyph glyph-name="saraisp" 
d="M-824 922l25 143h676l-25 -143h-676z" />
    <glyph glyph-name="saraiisp" 
d="M-822 922l25 143h475l18 102h201l-43 -245h-676z" />
    </font>
</defs>
</svg>
