<svg width="186px" height="46px" viewBox="0 0 186 46" version="1.1" xmlns="http://www.w3.org/2000/svg" xmlns:xlink="http://www.w3.org/1999/xlink"><path d="M52.0912,3.8276 L7.4842,3.8276 C7.2122,3.8266 6.9452,3.9476 6.7702,4.1506 L0.0882,11.9606 C-0.1068,12.1876 0.0412,12.6666 0.3452,12.6686 L44.9522,12.6686 C45.2242,12.6696 45.4912,12.5486 45.6652,12.3456 L52.3482,4.5356 C52.5422,4.3076 52.3952,3.8286 52.0912,3.8276" fill="#EC1D24"></path> <path d="M10.0072,8.1298 L10.2692,7.2318 L8.2172,7.2328 L7.9552,8.1298 L10.0072,8.1298 Z M10.9522,10.2228 L9.3982,10.2228 L9.7432,9.0338 L7.6932,9.0338 L7.3452,10.2238 L5.7902,10.2238 L6.7462,6.9418 L7.8512,6.3398 L11.1532,6.3398 L11.9082,6.9398 L10.9522,10.2228 Z" fill="#FFFFFF"></path> <polygon fill="#FFFFFF" points="16.2416 10.2221 11.8876 10.2221 13.0176 6.3391 14.5676 6.3391 13.6976 9.3251 16.5036 9.3241"></polygon> <polygon fill="#FFFFFF" points="21.1752 10.2211 16.8212 10.2221 17.9512 6.3381 19.5012 6.3381 18.6312 9.3241 21.4372 9.3231"></polygon> <polygon fill="#FFFFFF" points="24.6361 8.975 22.1931 8.975 22.3681 8.375 24.8111 8.374"></polygon> <polygon fill="#FFFFFF" points="30.4632 10.2197 28.9082 10.2197 27.2742 8.1277 26.6642 10.2197 25.1792 10.2207 26.3112 6.3367 27.5502 6.3367 29.4452 8.5757 30.0982 6.3357 31.5952 6.3357"></polygon> <polygon fill="#FFFFFF" points="36.7005 10.2182 31.4165 10.2192 32.5475 6.3352 37.7565 6.3352 37.4965 7.2272 34.1525 7.2282 33.9775 7.8282 36.8245 7.8282 35.6675 8.6082 33.7505 8.6092 33.5425 9.3212 36.9625 9.3212"></polygon> <polygon fill="#FFFFFF" points="44.6449 10.2167 37.4959 10.2177 38.6259 6.3347 40.1879 6.3347 39.3179 9.3197 40.5569 9.3197 41.4259 6.3337 42.9819 6.3337 42.1119 9.3197 43.3509 9.3187 44.2199 6.3337 45.7759 6.3327"></polygon> <path d="M62.0785,0.0781 C61.8325,0.0501 59.5345,0.0411 59.1685,0.0781 C58.7825,0.1161 58.6525,0.2891 58.6525,0.7201 L58.6525,12.2241 C58.6525,12.7451 58.9885,12.7311 59.3295,12.7501 C59.5575,12.7641 61.7575,12.7661 62.0055,12.7471 C62.5225,12.7111 62.5485,12.4241 62.5505,11.9431 C62.5555,11.1191 62.5505,1.5011 62.5505,0.6771 C62.5505,0.2871 62.4625,0.1201 62.0785,0.0781" class="svg-brand" fill="#fff"></path> <path d="M77.516,6.8837 C76.412,6.2367 70.639,4.2267 69.45,3.7147 C69.117,3.5727 69.02,3.4097 69.065,3.2007 C69.12,2.9477 69.449,2.9537 69.591,2.9507 C69.718,2.9477 70.908,2.9627 78.085,2.9887 C78.488,2.9907 78.673,2.8817 78.719,2.4387 C78.742,2.2157 78.731,0.9197 78.726,0.7797 C78.708,0.2797 78.635,0.0747 78.108,0.0727 C77.517,0.0717 70.467,0.0427 68.253,0.1287 C65.771,0.2257 65.037,1.4777 64.861,2.7567 C64.69,4.0077 65.125,5.1897 66.242,5.9207 C67.306,6.6157 70.978,7.8307 74.365,9.1427 C74.911,9.3537 74.957,9.5627 74.872,9.7517 C74.814,9.8807 74.568,9.9037 74.243,9.9077 C73.399,9.9147 66.193,9.7917 65.763,9.8037 C65.237,9.8197 65.14,9.9847 65.127,10.5747 C65.124,10.7157 65.126,11.7737 65.128,11.9287 C65.134,12.4787 65.222,12.6847 65.735,12.6907 C68.787,12.7227 74.05,12.7527 75.164,12.7127 C76.933,12.6517 77.907,12.3287 78.585,11.3547 C79.344,10.2677 79.453,8.0187 77.516,6.8837" class="svg-brand" fill="#fff"></path> <path d="M102.0082,9.1479 C103.4842,8.4349 107.5462,6.6269 109.5882,5.3129 C110.8022,4.5309 111.4912,3.1689 110.9032,1.6929 C110.4542,0.5689 109.5352,0.1179 107.6722,0.0469 C106.2302,-0.0081 98.0182,0.0409 97.8242,0.0439 C97.2452,0.0529 97.2092,0.2979 97.2002,0.8429 C97.1982,0.9809 97.1982,2.2199 97.2152,2.4269 C97.2532,2.8799 97.5332,2.9299 97.8292,2.9299 C98.0202,2.9299 105.9612,2.8739 106.5042,2.8759 C106.7592,2.8769 106.8642,2.9679 106.8802,3.1419 C106.8942,3.2919 106.8132,3.3879 106.6252,3.4809 C104.1862,4.6899 100.1032,6.5889 98.8862,7.2249 C97.1122,8.1559 96.7002,9.2359 96.7962,10.3159 C96.9042,11.5179 97.5892,12.5869 100.0982,12.6739 C102.3022,12.7489 108.6122,12.6509 110.1572,12.6099 C110.7162,12.5949 110.7412,12.3759 110.7882,11.9509 C110.8092,11.7719 110.7972,10.8229 110.7962,10.6829 C110.7882,9.9269 110.7162,9.7479 110.1022,9.7529 C109.6252,9.7579 103.4422,9.8879 101.6802,9.8689 C101.4002,9.8649 101.3202,9.7049 101.4142,9.5309 C101.4742,9.4189 101.6572,9.3179 102.0082,9.1479" class="svg-brand" fill="#fff"></path> <path d="M94.1859,0.0556 C93.8239,0.0246 91.6039,0.0236 91.3749,0.0516 C91.0899,0.0866 90.8419,0.1376 90.8419,0.7006 C90.8419,1.0646 90.8439,6.4136 90.8439,7.4496 C90.8439,8.7816 90.6419,9.6756 89.1259,9.7806 C88.2299,9.8416 87.5889,9.8416 86.7399,9.7596 C85.2999,9.6206 85.0249,9.0936 85.0249,7.2356 C85.0249,6.0766 85.0369,1.2726 85.0369,0.8046 C85.0349,0.3336 84.9909,0.0836 84.4639,0.0626 C84.0849,0.0466 81.9979,0.0466 81.7649,0.0606 C81.4849,0.0786 81.2049,0.1426 81.2049,0.7226 C81.2049,1.0676 81.1759,5.0456 81.2059,8.3686 C81.2439,12.6616 83.9689,12.5546 85.2489,12.6726 C86.0249,12.7436 89.4729,12.7586 91.0109,12.6366 C93.8019,12.4146 94.5729,10.8676 94.6359,8.6846 C94.6779,7.2476 94.7119,2.0606 94.6939,0.7906 C94.6859,0.3176 94.6159,0.0916 94.1859,0.0556" class="svg-brand" fill="#fff"></path> <path d="M126.9545,0.7089 C126.9535,0.2839 126.8605,0.0519 126.4395,0.0199 C126.0375,-0.0111 123.9165,-0.0001 123.7255,0.0169 C123.2725,0.0569 123.1585,0.1939 123.1505,0.6469 C123.1435,1.0099 123.1425,6.7339 123.1235,7.7499 C123.0955,9.2469 122.6325,9.4479 121.9635,9.6289 C121.2925,9.8129 119.1225,9.7609 118.8495,9.7229 C118.0075,9.6039 117.4725,9.2449 117.4525,7.7649 C117.4345,6.3339 117.4375,1.1289 117.4375,0.6609 C117.4375,0.2049 117.2615,0.0559 116.8955,0.0339 C116.5745,0.0139 114.5975,0.0049 114.1275,0.0349 C113.5765,0.0699 113.5505,0.3189 113.5445,0.7629 C113.5305,1.6389 113.5145,7.8709 113.6015,8.9109 C113.8085,11.3739 114.9245,12.3759 116.8775,12.5519 C118.6835,12.7149 122.9885,12.7399 124.2915,12.4139 C126.3995,11.8849 126.8295,10.1139 126.9275,7.8819 C126.9785,6.7089 126.9555,1.2469 126.9545,0.7089" class="svg-brand" fill="#fff"></path> <path d="M173.3324,45.7822 L185.1694,45.7822 C185.5764,45.7822 185.7684,45.2422 185.4654,44.9512 L172.7474,32.7422 C172.5174,32.5212 172.5244,32.1332 172.7634,31.9222 L185.3504,20.8072 C185.6684,20.5262 185.4824,19.9712 185.0704,19.9712 L172.0734,19.9712 C171.7654,19.9712 171.4654,20.0822 171.2224,20.2862 L165.5724,25.0252 C165.3064,25.2492 164.9274,25.2362 164.6744,24.9932 L159.7614,20.2772 C159.5564,20.0802 159.2914,19.9712 159.0174,19.9712 L147.5224,19.9712 C147.1134,19.9712 146.9194,20.5122 147.2224,20.8072 L157.6184,30.9122 C157.8454,31.1322 157.8324,31.5192 157.5914,31.7222 L148.1994,39.6012 C147.8844,39.8652 147.4214,39.7202 147.2874,39.3172 L141.0714,20.5962 C140.9474,20.2222 140.6164,19.9712 140.2464,19.9712 L129.3124,19.9712 C128.9784,19.9712 128.6584,20.1252 128.4364,20.3932 L112.5964,39.4942 C112.3294,39.8172 111.8334,39.6442 111.7924,39.2152 L110.0524,20.5942 C110.0194,20.2402 109.7424,19.9712 109.4114,19.9712 L101.7034,19.9712 C101.3784,19.9712 101.0704,20.1282 100.8644,20.3992 L93.4474,30.1502 C93.1894,30.4892 92.6794,30.3102 92.6574,29.8742 L92.1864,20.5942 C92.1684,20.2452 91.8984,19.9712 91.5734,19.9712 L82.4274,19.9712 C82.1224,19.9712 81.8364,20.1282 81.6564,20.3922 L65.0014,44.9492 C64.7664,45.2952 64.9964,45.7822 65.3954,45.7822 L75.1304,45.7822 C75.3584,45.7822 75.5754,45.6702 75.7174,45.4772 L82.4464,36.3822 C82.5894,36.1892 82.8064,36.0762 83.0354,36.0762 L85.3944,36.0762 C85.5494,36.0762 85.6744,36.2122 85.6734,36.3792 L85.6024,45.1592 C85.5994,45.5022 85.8574,45.7822 86.1774,45.7822 L92.8884,45.7822 C93.1164,45.7822 93.3324,45.6702 93.4754,45.4792 L100.2514,36.3852 C100.3964,36.1902 100.6164,36.0762 100.8494,36.0762 L103.0254,36.0762 C103.1884,36.0762 103.3254,36.2092 103.3414,36.3842 L104.1394,45.1622 C104.1714,45.5132 104.4464,45.7822 104.7754,45.7822 L118.9664,45.7822 C119.2124,45.7822 119.4464,45.6732 119.6144,45.4812 L131.3154,32.1152 C131.4824,31.9232 131.7174,31.8152 131.9614,31.8152 L134.2684,31.8152 C134.4504,31.8152 134.6134,31.9352 134.6794,32.1172 L137.1304,38.8932 C137.1964,39.0762 137.1474,39.2842 137.0084,39.4102 L130.9134,44.9502 C130.6014,45.2342 130.7874,45.7822 131.1964,45.7822 L156.6234,45.7822 C156.9104,45.7822 157.1884,45.6752 157.4114,45.4782 L164.9184,38.8492 C165.1794,38.6182 165.5584,38.6292 165.8084,38.8722 L172.6094,45.4832 C172.8084,45.6752 173.0654,45.7822 173.3324,45.7822"  class="svg-brand" fill="#fff"></path> <path d="M62.1683,26.4028 L58.8763,37.1258 C58.7823,37.4328 59.0633,37.7178 59.3413,37.5968 C62.7073,36.1388 67.9553,33.7138 71.4423,31.9648 C71.8033,31.7828 71.8213,31.2408 71.4733,31.0328 C69.1943,29.6768 65.3783,27.4678 62.8763,26.0898 C62.6013,25.9368 62.2653,26.0878 62.1683,26.4028"  class="svg-brand" fill="#fff"></path> <path d="M35.5257,39.4775 L16.2917,39.4775 C16.0927,39.4775 15.9517,39.2705 16.0117,39.0675 L19.8337,26.1415 C19.8877,25.9565 20.0467,25.8315 20.2277,25.8315 L41.7517,25.8315 C42.1957,25.8315 42.6347,25.9395 43.0347,26.1475 L45.5527,27.4605 C45.7027,27.5395 45.7767,27.7225 45.7267,27.8925 L43.5827,35.2815 C43.5067,35.5395 43.3367,35.7535 43.1097,35.8715 L36.7497,39.1765 C36.3677,39.3745 35.9497,39.4775 35.5257,39.4775 M0.4447,45.7825 L40.5227,45.7825 C41.0367,45.7825 41.5427,45.6775 42.0177,45.4725 C46.0537,43.7375 51.3687,41.2385 55.0937,39.3235 C55.5547,39.0865 55.9037,38.6605 56.0627,38.1395 L59.8937,25.6625 C60.0277,25.2245 59.8127,24.7515 59.4097,24.5965 L48.2067,20.2755 C47.6857,20.0745 47.1357,19.9715 46.5837,19.9715 L1.4637,19.9715 C1.0597,19.9715 0.8477,20.4875 1.1217,20.8085 L5.4847,25.9285 C5.6247,26.0915 5.6717,26.3235 5.6077,26.5345 L0.0217,45.1585 C-0.0713,45.4665 0.1437,45.7825 0.4447,45.7825"  class="svg-brand" fill="#fff"></path></svg>