<svg xmlns="http://www.w3.org/2000/svg" width="22" height="37" viewBox="0 0 22 37">
  <defs>
    <style>
      .cls-1 {
        fill: #fff;
        fill-rule: evenodd;
      }
    </style>
  </defs>
  <path id="default" class="cls-1" d="M10.06,9.253H11.94V21.929H10.06V9.253ZM11.683,0H10.317A10.4,10.4,0,0,0,0,10.457V26.542A10.4,10.4,0,0,0,10.317,37h1.366A10.4,10.4,0,0,0,22,26.542V10.457A10.4,10.4,0,0,0,11.683,0Zm0,35.2H10.317a8.6,8.6,0,0,1-8.536-8.653V10.457A8.6,8.6,0,0,1,10.317,1.8h1.366a8.6,8.6,0,0,1,8.536,8.652V26.542A8.6,8.6,0,0,1,11.683,35.2Z"/>
</svg>
