<svg xmlns="http://www.w3.org/2000/svg" width="15" height="14" viewBox="0 0 15 14">
  <defs>
    <style>
      .cls-1 {
        fill: #333;
        fill-rule: evenodd;
      }
    </style>
  </defs>
  <path id="icon" class="cls-1" d="M13.164,13.181H1.336a0.922,0.922,0,0,1-.93-0.913V9.311a0.431,0.431,0,1,1,.862,0v2.957a0.062,0.062,0,0,0,.068.05H13.164a0.062,0.062,0,0,0,.068-0.05V9.311a0.431,0.431,0,1,1,.862,0v2.957A0.922,0.922,0,0,1,13.164,13.181ZM7.25,9.1A0.431,0.431,0,0,1,6.819,8.67V0.75a0.431,0.431,0,1,1,.862,0V8.67A0.431,0.431,0,0,1,7.25,9.1Zm0,0.856a0.431,0.431,0,0,1-.3-0.126L3.257,6.14a0.431,0.431,0,0,1,.609-0.61L7.25,8.916,10.634,5.53a0.431,0.431,0,0,1,.61.61L7.555,9.831A0.431,0.431,0,0,1,7.25,9.957Z"/>
</svg>
