<svg xmlns="http://www.w3.org/2000/svg" width="22" height="37" viewBox="0 0 22 37">
  <defs>
    <style>
      .cls-1 {
        fill: #cd0900;
        fill-rule: evenodd;
      }
    </style>
  </defs>
  <path id="active" class="cls-1" d="M684.06,579.253h1.88v12.676h-1.88V579.253ZM685.683,570h-1.366A10.4,10.4,0,0,0,674,580.457v16.085A10.4,10.4,0,0,0,684.317,607h1.366A10.4,10.4,0,0,0,696,596.542V580.457A10.4,10.4,0,0,0,685.683,570Zm0,35.2h-1.366a8.6,8.6,0,0,1-8.536-8.653V580.457a8.6,8.6,0,0,1,8.536-8.652h1.366a8.6,8.6,0,0,1,8.536,8.652v16.085A8.6,8.6,0,0,1,685.683,605.2Z" transform="translate(-674 -570)"/>
</svg>
