<svg data-v-8ea4a0c6="" width="94px" height="16px" viewBox="0 0 94 16" version="1.1" xmlns="http://www.w3.org/2000/svg" xmlns:xlink="http://www.w3.org/1999/xlink"><g data-v-8ea4a0c6="" stroke="none" stroke-width="1" fill="none" fill-rule="evenodd"><g data-v-8ea4a0c6="" fill="currentColor" fill-rule="nonzero"><path color="red" data-v-8ea4a0c6="" d="M40.5428442,15.945482 C40.872894,15.945482 42.8798274,15.9347722 44.4999954,15.8218996 C46.4579429,15.6852791 47.4670905,15.013911 48.2065361,14.0519799 C49.1236721,12.8614167 49.1177118,10.6289244 49.1165011,8.89169302 C49.1153836,6.95162631 49.1422048,1.3307226 49.1338232,0.829501447 C49.1273041,0.326417713 48.9369481,0.0650041552 48.3616893,0.0697537425 C47.7857785,0.0733857798 46.1619785,0.0697537425 45.6046004,0.0745964589 L44.6115642,0.0697537425 C44.0357466,0.0650972843 43.8459493,0.326417713 43.8376608,0.829501447 L43.8376608,1.36834678 C43.8459493,1.963349 43.829838,7.6343562 43.8274166,8.96396124 L43.8274166,9.55291007 C43.8119572,10.7775585 43.6627643,11.9686805 41.9309344,12.1530763 C41.1837591,12.2318635 40.8413232,12.2670664 39.9156193,12.2670664 C38.9889841,12.2670664 38.6475726,12.2318635 37.8902463,12.1530763 C36.1589752,11.9710088 36.0540186,10.7775585 36.0379072,9.55291007 L36.0379072,8.96396124 C36.0354859,7.6343562 36.0193745,1.963349 36.0265455,1.36834678 L36.0265455,0.829501447 C36.0193745,0.326417713 35.8284598,0.0650041552 35.2537597,0.0697537425 L34.2595128,0.0745964589 C33.7021347,0.0697537425 32.0795453,0.0733857798 31.5030758,0.0697537425 C30.9284689,0.0650972843 30.7380198,0.326417713 30.7315007,0.829501447 C30.7231191,1.3307226 30.7290794,6.95162631 30.7267511,8.89169302 C30.7256336,10.6289244 30.7207909,12.8614167 31.6368093,14.0519799 C32.3743923,15.0140041 33.3697568,15.6852791 35.3211852,15.8218996 C36.9414464,15.9358897 38.888684,15.945482 39.3201514,15.945482 L40.5429373,15.945482 L40.5428442,15.945482 Z">
  &gt;
</path> <path color="red" data-v-8ea4a0c6="" d="M5.34998574,15.2160944 C5.33862398,15.7621107 5.17751053,15.9776116 4.61836304,15.9907428 C4.05735297,16.0068541 1.31283656,15.9979137 0.812826085,15.9937229 C0.315050713,15.9883214 0.00837638218,15.8372659 0.00716570307,15.3032633 C0.00362679491,14.7697263 0.00362679491,1.35502931 -5.24241405e-06,0.845426534 C-0.00121592152,0.338245117 0.238126025,0.0977856203 0.763840146,0.113803836 C1.28843672,0.126376273 3.98396719,0.0995550743 4.69947854,0.112034382 C5.24074523,0.10784357 5.36786654,0.420012521 5.36963599,0.977390557 C5.3827672,1.72689405 5.36311695,14.6730583 5.34998574,15.2160944 L5.34998574,15.2160944 Z">
  &gt;
</path> <path color="red" data-v-8ea4a0c6="" d="M80.132051,9.78936501 C80.1422952,11.0484713 80.4465482,11.8911039 81.8895846,12.1155452 C83.0448518,12.2348437 84.6078386,12.2593366 85.8073422,12.1376168 C86.905335,12.0170146 87.7509478,11.5718572 87.8004925,10.3287691 C87.8559975,9.27911033 87.8607471,9.0982535 87.8643791,7.99122715 C87.8703394,5.30463708 87.8410968,1.40233892 87.8500372,1.01929868 L87.8546937,0.856322646 C87.8458464,0.261413558 88.1173179,0.0101510787 88.6210536,0.0101510787 L88.9224195,0 C89.4959089,0.00484271643 91.8035564,0.0102442078 92.3621451,0.0102442078 C92.8657876,0.0102442078 93.1373523,0.261413558 93.1289707,0.856415775 L93.1217997,1.0420222 C93.1325096,1.60293914 93.1152807,7.54616288 93.1093204,9.29997126 C93.0776565,10.1807869 93.0149806,12.2325154 92.3364415,13.5334367 C91.7456301,14.6625347 90.6882416,15.5307779 88.8901968,15.7092133 C85.4343599,16.0535118 82.2834278,15.9103723 79.8569475,15.8088615 C78.0535944,15.7157324 76.891715,15.3117381 75.9278281,14.2405664 C74.8370063,13.0124722 74.7797318,10.9136203 74.7958432,8.50632454 C74.7749822,3.19451652 74.7588709,1.66384561 74.7671594,1.15712984 L74.7671594,0.856322646 C74.7587778,0.261413558 75.0303424,0.0101510787 75.5339849,0.0101510787 L75.8335814,0 C76.4124723,0.00484271643 78.8066368,0.0102442078 79.3664362,0.0102442078 C79.8683093,0.0102442078 80.1422021,0.261413558 80.132051,0.856415775 C80.1236694,1.45374622 80.1297228,8.25627274 80.132051,9.75472096 L80.132051,9.78936501 Z">
  &gt;
</path> <path color="red" data-v-8ea4a0c6="" d="M53.2508772,0.0571813056 C53.7903744,0.0411630897 63.438835,0.0525248475 66.4554748,0.0691949675 C69.1266054,0.0989962994 70.1142402,0.479149539 70.8393439,1.44955541 C71.6759231,2.57083052 71.7625332,3.9755908 71.0863224,5.13150996 C70.6011195,5.96035951 69.7036337,6.68369371 68.3573586,7.34071995 C67.2886083,7.88980949 65.4170846,8.72284984 63.5880279,9.52785832 C61.1383584,10.6098329 58.9201149,11.5467123 58.5472257,11.741911 C58.0422794,12.0068635 58.2332873,12.4036868 58.6343015,12.3977266 C59.6810733,12.3851541 69.7878225,12.302828 70.3273197,12.3016173 C70.8691452,12.3010585 71.0451593,12.4962572 71.0451593,13.0780351 C71.0440418,13.6867273 71.0499089,14.7274457 71.0511196,15.1995174 C71.0386403,15.7670465 70.8577834,15.9221997 70.3200556,15.9276012 C69.7060551,15.9341203 58.9398583,15.9371004 58.1741503,15.9406393 C56.4722149,15.9365416 54.719524,15.9430607 53.6740561,15.436438 C52.3683852,14.8020422 51.9266736,13.5303635 51.9254629,12.638838 C51.9875801,10.4660415 53.1984454,9.7701804 55.3801823,8.75926335 C57.8060107,7.65819726 64.9671777,4.56044194 65.3938024,4.36226308 C65.9225897,4.11584332 65.7584962,3.63119916 65.2678917,3.64740364 C64.8913705,3.65513336 53.9222453,3.71119711 53.3804198,3.71073147 C52.8402707,3.70886888 52.4966241,3.62169999 52.4966241,3.09775532 C52.4977416,2.57623201 52.4918745,1.2681398 52.4918745,0.729853244 C52.4918745,0.189145328 52.7090517,0.0745964589 53.2508772,0.0572744347 L53.2508772,0.0571813056 Z">
  &gt;
</path> <path color="red" data-v-8ea4a0c6="" d="M24.9220105,8.22796148 C22.4956233,7.22011768 15.415665,4.98054759 14.4763642,4.51564681 C14.0240359,4.32100687 14.0544891,3.7434198 14.6667202,3.7434198 C15.7122814,3.75887924 26.0899433,3.7791814 26.6318619,3.78281344 C27.1730354,3.78402412 27.4011088,3.57327282 27.4011088,2.99028427 C27.403437,2.38215084 27.3992462,1.26627722 27.3920752,0.776324696 C27.3849043,0.278083678 27.2052581,0.0894039957 26.7576794,0.0881933166 C26.3101937,0.0881933166 14.32475,0.102535208 14.32475,0.102535208 C10.979923,0.0948054871 10.1218309,0.587086238 9.17414852,1.7251246 C7.93869706,3.20988283 8.3313296,5.21988954 9.04032192,6.25641711 C9.83881135,7.41587518 11.1571478,7.92845809 13.2546959,8.66250215 C15.7957251,9.48902346 21.7800188,11.5938357 21.7800188,11.5938357 C22.3284564,11.8307562 22.2866414,12.4054563 21.6094062,12.4054563 C21.6094062,12.4054563 10.1939128,12.3027348 9.65320493,12.3016173 C9.11137947,12.3010585 8.84698577,12.5653591 8.84465755,13.088745 C8.84465755,13.6121309 8.83981483,14.5710818 8.8374866,15.1152355 C8.8374866,15.6535221 8.99375733,15.9608483 9.53567593,15.9800329 C10.0739625,15.9985656 19.8894968,15.9615002 22.9079061,15.95554 C25.2042849,15.9495797 27.4224353,15.2400286 27.8777438,12.7038421 C28.1505191,10.5184732 27.2254672,9.16381643 24.9220105,8.22805461 L24.9220105,8.22796148 Z">
  &gt;
</path></g></g></svg>