<?xml version="1.0" encoding="UTF-8"?>
<svg width="500px" height="38px" viewBox="0 0 500 38" version="1.1" xmlns="http://www.w3.org/2000/svg" xmlns:xlink="http://www.w3.org/1999/xlink">
    <!-- Generator: Sketch 61.2 (89653) - https://sketch.com -->
    <title>interior</title>
    <desc>Created with Sketch.</desc>
    <g id="Page-1" stroke="none" stroke-width="1" fill="none" fill-rule="evenodd">
        <g id="Group-3" transform="translate(0.000000, -14.000000)">
            <g id="interior" transform="translate(0.000000, 14.000000)">
                <g id="THE-ABSOLUTE-PERFORM" transform="translate(0.695801, 0.755859)" fill-rule="nonzero">
                    <path d="M10.3515625,25.2441406 L10.3515625,3.89404297 L16.40625,3.89404297 L17.199707,0.439453125 L-5.32907052e-14,0.439453125 L-5.32907052e-14,3.89404297 L6.25,3.89404297 L6.25,25.2441406 L10.3515625,25.2441406 Z M25.7117635,25.2441406 L25.7117635,13.6962891 L34.1590291,13.6962891 L34.1590291,25.2441406 L38.2605916,25.2441406 L38.2605916,0.439453125 L34.1590291,0.439453125 L34.1590291,10.2905273 L25.7117635,10.2905273 L25.7117635,0.439453125 L21.610201,0.439453125 L21.610201,25.2441406 L25.7117635,25.2441406 Z M59.8707927,25.2441406 L59.8707927,21.7407227 L49.6657145,21.7407227 L49.6657145,13.8916016 L58.0031169,13.8916016 L58.0031169,10.4980469 L49.6168864,10.4980469 L49.6168864,3.79638672 L58.9796794,3.79638672 L59.8219645,0.439453125 L45.564152,0.439453125 L45.564152,25.2441406 L59.8707927,25.2441406 Z" id="THE" fill="#222222"></path>
                    <path d="M77.0780111,25.2441406 L79.1287923,18.75 L87.1243978,18.75 L89.1263509,25.2441406 L93.6795736,25.2441406 L85.7205892,0.390625 L80.9720541,0.390625 L72.8299642,25.2441406 L77.0780111,25.2441406 Z M86.2210775,15.2954102 L80.1297689,15.2954102 C80.1948731,15.0919596 80.2904948,14.7827148 80.4166341,14.3676758 C80.5427735,13.9526367 80.6851888,13.4765625 80.8438802,12.9394531 C81.0025716,12.4023438 81.1714356,11.8265788 81.350472,11.2121582 C81.5295085,10.5977376 81.708545,9.98535156 81.8875814,9.375 C82.3026205,7.94270833 82.7502116,6.38427734 83.2303548,4.69970703 L83.2303548,4.69970703 L83.279183,4.69970703 C83.295459,4.82177734 83.3483562,5.05981445 83.4378744,5.41381836 C83.5273926,5.76782227 83.6372559,6.19506836 83.7674642,6.69555664 C83.8976726,7.19604492 84.0441569,7.74536133 84.2069173,8.34350586 C84.3696778,8.94165039 84.5385417,9.54793294 84.7135091,10.1623535 C84.8884766,10.7767741 85.059375,11.3769531 85.2262045,11.9628906 C85.3930339,12.5488281 85.5456218,13.0777995 85.6839681,13.5498047 C85.8223145,14.0218099 85.9382813,14.4144694 86.0318685,14.7277832 C86.1254558,15.041097 86.1885254,15.230306 86.2210775,15.2954102 L86.2210775,15.2954102 Z M104.840556,25.2441406 C106.411194,25.2441406 107.800761,25.1098633 109.009257,24.8413086 C110.217753,24.5727539 111.230937,24.1516113 112.048808,23.5778809 C112.866679,23.0041504 113.485168,22.2717285 113.904277,21.3806152 C114.323385,20.489502 114.532939,19.4254557 114.532939,18.1884766 C114.532939,17.578125 114.451558,16.9555664 114.288798,16.3208008 C114.126038,15.6860352 113.845276,15.0858561 113.446513,14.5202637 C113.04775,13.9546712 112.510641,13.4460449 111.835185,12.9943848 C111.159729,12.5427246 110.309306,12.1907552 109.283915,11.9384766 C109.975647,11.7431641 110.585999,11.4746094 111.11497,11.1328125 C111.643941,10.7910156 112.087463,10.3922526 112.445536,9.93652344 C112.803609,9.48079427 113.074198,8.96606445 113.257304,8.39233398 C113.440409,7.81860352 113.531962,7.20214844 113.531962,6.54296875 C113.531962,5.48502604 113.300029,4.55525716 112.836161,3.75366211 C112.372294,2.95206706 111.672424,2.25016276 110.736552,1.64794922 C110.345927,1.41194661 109.959371,1.21663411 109.576884,1.06201172 C109.194397,0.907389323 108.761047,0.783284505 108.276835,0.689697266 C107.792623,0.596110026 107.22703,0.531005859 106.580058,0.494384766 C105.933085,0.457763672 105.15387,0.439453125 104.242411,0.439453125 L104.242411,0.439453125 L97.6872356,0.439453125 L97.6872356,25.2441406 L104.840556,25.2441406 Z M105.182353,10.5957031 L101.73997,10.5957031 L101.73997,3.79638672 L104.840556,3.79638672 C106.26471,3.79638672 107.345032,4.0629069 108.081523,4.59594727 C108.818014,5.12898763 109.186259,5.99365234 109.186259,7.18994141 C109.186259,7.81656901 109.096741,8.34554036 108.917704,8.77685547 C108.738668,9.20817057 108.478251,9.55810547 108.136454,9.82666016 C107.794657,10.0952148 107.375549,10.2905273 106.87913,10.4125977 C106.382711,10.534668 105.817118,10.5957031 105.182353,10.5957031 L105.182353,10.5957031 Z M105.487529,21.8383789 L101.788798,21.8383789 L101.788798,13.9892578 L105.389872,13.9892578 C106.203674,13.9892578 106.899475,14.0686035 107.477275,14.2272949 C108.055074,14.3859863 108.531148,14.6240234 108.905497,14.9414062 C109.279846,15.2587891 109.554504,15.6595866 109.729472,16.1437988 C109.904439,16.6280111 109.991923,17.195638 109.991923,17.8466797 C109.991923,18.4000651 109.904439,18.9188639 109.729472,19.4030762 C109.554504,19.8872884 109.283915,20.308431 108.917704,20.6665039 C108.551493,21.0245768 108.085592,21.3094076 107.519999,21.5209961 C106.954407,21.7325846 106.276917,21.8383789 105.487529,21.8383789 L105.487529,21.8383789 Z M126.450757,25.6958008 C128.037671,25.6958008 129.433342,25.4760742 130.637769,25.0366211 C131.842196,24.597168 132.847241,24.0112305 133.652905,23.2788086 C134.458569,22.5463867 135.066886,21.7020671 135.477856,20.7458496 C135.888827,19.7896322 136.094312,18.7906901 136.094312,17.7490234 C136.094312,16.8212891 135.945793,15.9810384 135.648755,15.2282715 C135.351717,14.4755046 134.934644,13.8061523 134.397534,13.2202148 C133.860425,12.6342773 133.22159,12.1317546 132.48103,11.7126465 C131.74047,11.2935384 130.926668,10.953776 130.039624,10.6933594 L130.039624,10.6933594 L127.09773,9.83886719 C126.487378,9.65169271 125.970614,9.46044922 125.547437,9.26513672 C125.124259,9.06982422 124.782463,8.85416667 124.522046,8.61816406 C124.261629,8.38216146 124.074455,8.11767578 123.960523,7.82470703 C123.84659,7.53173828 123.789624,7.18994141 123.789624,6.79931641 C123.789624,6.28662109 123.885246,5.8207194 124.076489,5.40161133 C124.267733,4.98250326 124.540356,4.62443034 124.89436,4.32739258 C125.248364,4.03035482 125.67561,3.80045573 126.176099,3.63769531 C126.676587,3.4749349 127.232007,3.39355469 127.842358,3.39355469 C128.33064,3.39355469 128.802645,3.43017578 129.258374,3.50341797 C129.714103,3.57666016 130.173901,3.68855794 130.637769,3.83911133 C131.101636,3.98966471 131.581779,4.18497721 132.078198,4.42504883 C132.574618,4.66512044 133.111727,4.95605469 133.689526,5.29785156 L133.689526,5.29785156 L135.544995,2.39257812 C134.438224,1.61132812 133.211418,1.02539062 131.864575,0.634765625 C130.517733,0.244140625 129.128166,0.048828125 127.695874,0.048828125 C126.442619,0.048828125 125.299227,0.225830078 124.265698,0.579833984 C123.23217,0.933837891 122.343091,1.43229167 121.598462,2.07519531 C120.853833,2.71809896 120.276034,3.49121094 119.865064,4.39453125 C119.454093,5.29785156 119.248608,6.29882812 119.248608,7.39746094 C119.248608,8.30891927 119.405265,9.12272135 119.718579,9.83886719 C120.031893,10.555013 120.45507,11.1836751 120.98811,11.7248535 C121.521151,12.2660319 122.141675,12.7237956 122.849683,13.0981445 C123.55769,13.4724935 124.306388,13.7695312 125.095776,13.9892578 L125.095776,13.9892578 L127.744702,14.7460938 C129.022371,15.0960286 129.958244,15.5680339 130.552319,16.1621094 C131.146395,16.7561849 131.443433,17.5170898 131.443433,18.4448242 C131.443433,19.0551758 131.333569,19.6044922 131.113843,20.0927734 C130.894116,20.5810547 130.576733,20.9960938 130.161694,21.3378906 C129.746655,21.6796875 129.240064,21.9421387 128.641919,22.1252441 C128.043774,22.3083496 127.362215,22.3999023 126.597241,22.3999023 C125.970614,22.3999023 125.362297,22.3490397 124.77229,22.2473145 C124.182284,22.1455892 123.60245,21.9991048 123.032788,21.8078613 C122.463127,21.6166178 121.901603,21.3887533 121.348218,21.1242676 C120.794832,20.8597819 120.245516,20.5647786 119.700269,20.2392578 L119.700269,20.2392578 L118.247632,23.449707 C119.484611,24.1739909 120.800936,24.7294108 122.196606,25.1159668 C123.592277,25.5025228 125.010327,25.6958008 126.450757,25.6958008 Z M151.051681,25.6469727 C152.663009,25.6469727 154.097335,25.3458659 155.354659,24.7436523 C156.611983,24.1414388 157.669926,23.2849121 158.528487,22.1740723 C159.387048,21.0632324 160.040125,19.7224935 160.487716,18.1518555 C160.935307,16.5812174 161.159102,14.827474 161.159102,12.890625 C161.159102,11.0758464 160.949548,9.38924154 160.53044,7.83081055 C160.111332,6.27237956 159.476567,4.91943359 158.626143,3.77197266 C157.77572,2.62451172 156.705571,1.72526042 155.415694,1.07421875 C154.125818,0.423177083 152.606043,0.09765625 150.856368,0.09765625 C149.302006,0.09765625 147.892094,0.376383464 146.626632,0.933837891 C145.361169,1.49129232 144.278813,2.31119792 143.379561,3.39355469 C142.48031,4.47591146 141.784509,5.80851237 141.292159,7.39135742 C140.799809,8.97420247 140.553634,10.7910156 140.553634,12.8417969 C140.553634,14.6809896 140.769291,16.3818359 141.200606,17.9443359 C141.631921,19.5068359 142.284998,20.8597819 143.159835,22.0031738 C144.034672,23.1465658 145.129236,24.0397135 146.443526,24.6826172 C147.757817,25.3255208 149.293868,25.6469727 151.051681,25.6469727 Z M150.954024,22.5463867 C149.90422,22.5463867 149.011072,22.3286947 148.274581,21.8933105 C147.53809,21.4579264 146.939946,20.8170573 146.480147,19.9707031 C146.020349,19.124349 145.684656,18.0847168 145.473067,16.8518066 C145.261479,15.6188965 145.155684,14.2008464 145.155684,12.5976562 C145.155684,11.1083984 145.25741,9.78393555 145.46086,8.62426758 C145.664311,7.46459961 145.991866,6.4860026 146.443526,5.68847656 C146.895186,4.89095052 147.479089,4.28466797 148.195235,3.86962891 C148.911381,3.45458984 149.782149,3.24707031 150.80754,3.24707031 C151.906173,3.24707031 152.817631,3.4769694 153.541915,3.93676758 C154.266199,4.39656576 154.846033,5.05371094 155.281417,5.90820312 C155.716801,6.76269531 156.021977,7.80232747 156.196944,9.02709961 C156.371912,10.2518717 156.459395,11.6251628 156.459395,13.1469727 C156.459395,14.8071289 156.341394,16.2312826 156.105391,17.4194336 C155.869389,18.6075846 155.519454,19.5821126 155.055587,20.3430176 C154.59172,21.1039225 154.017989,21.661377 153.334395,22.0153809 C152.650802,22.3693848 151.857345,22.5463867 150.954024,22.5463867 Z M179.217057,25.2441406 L180.059343,21.8383789 L170.965104,21.8383789 L170.965104,0.439453125 L166.863542,0.439453125 L166.863542,25.2441406 L179.217057,25.2441406 Z M192.84386,25.6958008 C194.211047,25.6958008 195.425647,25.5228678 196.487659,25.177002 C197.54967,24.8311361 198.444853,24.3387858 199.173206,23.6999512 C199.901559,23.0611165 200.454944,22.2859701 200.833362,21.3745117 C201.21178,20.4630534 201.400989,19.4376628 201.400989,18.2983398 L201.400989,18.2983398 L201.400989,0.439453125 L197.299426,0.439453125 L197.299426,17.0898438 C197.299426,18.741862 196.931181,20.0052897 196.19469,20.880127 C195.458199,21.7549642 194.341256,22.1923828 192.84386,22.1923828 C192.078886,22.1923828 191.417672,22.1048991 190.860217,21.9299316 C190.302763,21.7549642 189.84093,21.468099 189.474719,21.0693359 C189.108508,20.6705729 188.837919,20.1456706 188.662952,19.4946289 C188.487984,18.8435872 188.400501,18.0419922 188.400501,17.0898438 L188.400501,17.0898438 L188.400501,0.439453125 L184.298938,0.439453125 L184.298938,18.347168 C184.298938,19.0063477 184.357939,19.6451823 184.47594,20.2636719 C184.593941,20.8821615 184.787219,21.4640299 185.055774,22.0092773 C185.324329,22.5545247 185.678333,23.0529785 186.117786,23.5046387 C186.557239,23.9562988 187.092314,24.3448893 187.72301,24.6704102 C188.353707,24.995931 189.092232,25.2482096 189.938586,25.4272461 C190.784941,25.6062826 191.753365,25.6958008 192.84386,25.6958008 Z M216.456014,25.2441406 L216.456014,3.89404297 L222.510702,3.89404297 L223.304159,0.439453125 L206.104452,0.439453125 L206.104452,3.89404297 L212.354452,3.89404297 L212.354452,25.2441406 L216.456014,25.2441406 Z" id="ABSOLUTE" fill="#009CD7"></path>
                    <path d="M262.280269,25.2441406 L262.280269,15.7958984 L266.479488,15.7958984 C267.602535,15.7958984 268.65234,15.6107585 269.628902,15.2404785 C270.605465,14.8701986 271.451819,14.3412272 272.167965,13.6535645 C272.884111,12.9659017 273.447669,12.1317546 273.858639,11.151123 C274.269609,10.1704915 274.475094,9.06982422 274.475094,7.84912109 C274.475094,6.84814453 274.353023,5.96923828 274.108883,5.21240234 C273.864742,4.45556641 273.522945,3.80452474 273.083492,3.25927734 C272.644039,2.71402995 272.123206,2.25830078 271.520992,1.89208984 C270.918779,1.52587891 270.257564,1.23697917 269.53735,1.02539062 C268.817135,0.813802083 268.054195,0.663248698 267.248531,0.573730469 C266.442867,0.48421224 265.620927,0.439453125 264.782711,0.439453125 L264.782711,0.439453125 L258.178707,0.439453125 L258.178707,25.2441406 L262.280269,25.2441406 Z M265.52734,12.5 L262.280269,12.5 L262.280269,3.79638672 L265.52734,3.79638672 C266.341142,3.81266276 267.02677,3.90421549 267.584225,4.07104492 C268.141679,4.23787435 268.595374,4.49422201 268.945309,4.84008789 C269.295243,5.18595378 269.547522,5.62744141 269.702144,6.16455078 C269.856767,6.70166016 269.934078,7.3445638 269.934078,8.09326172 C269.934078,9.57438151 269.580074,10.6791178 268.872066,11.4074707 C268.164059,12.1358236 267.04915,12.5 265.52734,12.5 L265.52734,12.5 Z M293.643888,25.2441406 L293.643888,21.7407227 L283.43881,21.7407227 L283.43881,13.8916016 L291.776213,13.8916016 L291.776213,10.4980469 L283.389982,10.4980469 L283.389982,3.79638672 L292.752775,3.79638672 L293.59506,0.439453125 L279.337248,0.439453125 L279.337248,25.2441406 L293.643888,25.2441406 Z M311.384461,25.5493164 L315.742371,24.5483398 L312.434265,19.2993164 C312.108744,18.7866211 311.771017,18.2617188 311.421082,17.7246094 C311.071147,17.1875 310.727315,16.6870117 310.389588,16.2231445 C310.05186,15.7592773 309.732442,15.3584798 309.431336,15.020752 C309.130229,14.6830241 308.865743,14.457194 308.637879,14.3432617 C309.598165,14.3432617 310.460795,14.1560872 311.225769,13.7817383 C311.990743,13.4073893 312.635681,12.9048665 313.160584,12.2741699 C313.685486,11.6434733 314.088318,10.9191895 314.36908,10.1013184 C314.649841,9.28344727 314.790222,8.43098958 314.790222,7.54394531 C314.790222,6.56738281 314.631531,5.64982096 314.314148,4.79125977 C313.996765,3.93269857 313.508484,3.17993164 312.849304,2.53295898 C312.190125,1.88598633 311.353943,1.37532552 310.340759,1.00097656 C309.327576,0.626627604 308.129252,0.439453125 306.745789,0.439453125 L306.745789,0.439453125 L299.140808,0.439453125 L299.140808,25.2441406 L303.242371,25.2441406 L303.242371,14.5385742 C303.649272,14.5548503 304.054138,14.6972656 304.45697,14.9658203 C304.859802,15.234375 305.248393,15.5741374 305.622742,15.9851074 C305.997091,16.3960775 306.357198,16.8558757 306.703064,17.364502 C307.04893,17.8731283 307.368347,18.3797201 307.661316,18.8842773 C307.954285,19.3888346 308.216736,19.8628743 308.44867,20.3063965 C308.680603,20.7499186 308.87795,21.1140951 309.040711,21.3989258 L309.040711,21.3989258 L311.384461,25.5493164 Z M305.34198,11.6455078 L303.242371,11.6455078 L303.242371,3.79638672 L305.488464,3.79638672 C306.399923,3.79638672 307.173035,3.87369792 307.8078,4.02832031 C308.442566,4.18294271 308.95933,4.41894531 309.358093,4.73632812 C309.756856,5.05371094 310.045756,5.45043945 310.224793,5.92651367 C310.403829,6.40258789 310.493347,6.95800781 310.493347,7.59277344 C310.493347,8.44726562 310.363139,9.1389974 310.102722,9.66796875 C309.842306,10.1969401 309.482198,10.6079102 309.0224,10.9008789 C308.562602,11.1938477 308.019389,11.3911947 307.392761,11.4929199 C306.766134,11.5946452 306.08254,11.6455078 305.34198,11.6455078 L305.34198,11.6455078 Z M325.35306,25.2441406 L325.401888,13.8916016 L333.73929,13.8916016 L333.73929,10.4980469 L325.35306,10.4980469 L325.35306,3.79638672 L334.715853,3.79638672 L335.558138,0.439453125 L321.300326,0.439453125 L321.300326,25.2441406 L325.35306,25.2441406 Z M349.795292,25.6469727 C351.40662,25.6469727 352.840947,25.3458659 354.098271,24.7436523 C355.355595,24.1414388 356.413538,23.2849121 357.272099,22.1740723 C358.13066,21.0632324 358.783736,19.7224935 359.231327,18.1518555 C359.678919,16.5812174 359.902714,14.827474 359.902714,12.890625 C359.902714,11.0758464 359.69316,9.38924154 359.274052,7.83081055 C358.854944,6.27237956 358.220178,4.91943359 357.369755,3.77197266 C356.519332,2.62451172 355.449182,1.72526042 354.159306,1.07421875 C352.86943,0.423177083 351.349654,0.09765625 349.59998,0.09765625 C348.045618,0.09765625 346.635706,0.376383464 345.370243,0.933837891 C344.104781,1.49129232 343.022424,2.31119792 342.123173,3.39355469 C341.223922,4.47591146 340.528121,5.80851237 340.035771,7.39135742 C339.543421,8.97420247 339.297245,10.7910156 339.297245,12.8417969 C339.297245,14.6809896 339.512903,16.3818359 339.944218,17.9443359 C340.375533,19.5068359 341.028609,20.8597819 341.903447,22.0031738 C342.778284,23.1465658 343.872848,24.0397135 345.187138,24.6826172 C346.501428,25.3255208 348.03748,25.6469727 349.795292,25.6469727 Z M349.697636,22.5463867 C348.647831,22.5463867 347.754684,22.3286947 347.018193,21.8933105 C346.281702,21.4579264 345.683557,20.8170573 345.223759,19.9707031 C344.763961,19.124349 344.428268,18.0847168 344.216679,16.8518066 C344.00509,15.6188965 343.899296,14.2008464 343.899296,12.5976562 C343.899296,11.1083984 344.001021,9.78393555 344.204472,8.62426758 C344.407922,7.46459961 344.735478,6.4860026 345.187138,5.68847656 C345.638798,4.89095052 346.222701,4.28466797 346.938847,3.86962891 C347.654993,3.45458984 348.525761,3.24707031 349.551152,3.24707031 C350.649784,3.24707031 351.561243,3.4769694 352.285527,3.93676758 C353.009811,4.39656576 353.589645,5.05371094 354.025029,5.90820312 C354.460413,6.76269531 354.765589,7.80232747 354.940556,9.02709961 C355.115523,10.2518717 355.203007,11.6251628 355.203007,13.1469727 C355.203007,14.8071289 355.085006,16.2312826 354.849003,17.4194336 C354.613001,18.6075846 354.263066,19.5821126 353.799199,20.3430176 C353.335331,21.1039225 352.761601,21.661377 352.078007,22.0153809 C351.394413,22.3693848 350.600956,22.5463867 349.697636,22.5463867 Z M377.850806,25.5493164 L382.208716,24.5483398 L378.90061,19.2993164 C378.57509,18.7866211 378.237362,18.2617188 377.887427,17.7246094 C377.537492,17.1875 377.193661,16.6870117 376.855933,16.2231445 C376.518205,15.7592773 376.198788,15.3584798 375.897681,15.020752 C375.596574,14.6830241 375.332088,14.457194 375.104224,14.3432617 C376.06451,14.3432617 376.92714,14.1560872 377.692114,13.7817383 C378.457088,13.4073893 379.102027,12.9048665 379.626929,12.2741699 C380.151831,11.6434733 380.554663,10.9191895 380.835425,10.1013184 C381.116187,9.28344727 381.256568,8.43098958 381.256568,7.54394531 C381.256568,6.56738281 381.097876,5.64982096 380.780493,4.79125977 C380.46311,3.93269857 379.974829,3.17993164 379.31565,2.53295898 C378.65647,1.88598633 377.820288,1.37532552 376.807105,1.00097656 C375.793921,0.626627604 374.595597,0.439453125 373.212134,0.439453125 L373.212134,0.439453125 L365.607153,0.439453125 L365.607153,25.2441406 L369.708716,25.2441406 L369.708716,14.5385742 C370.115617,14.5548503 370.520484,14.6972656 370.923316,14.9658203 C371.326148,15.234375 371.714738,15.5741374 372.089087,15.9851074 C372.463436,16.3960775 372.823543,16.8558757 373.169409,17.364502 C373.515275,17.8731283 373.834693,18.3797201 374.127661,18.8842773 C374.42063,19.3888346 374.683081,19.8628743 374.915015,20.3063965 C375.146948,20.7499186 375.344295,21.1140951 375.507056,21.3989258 L375.507056,21.3989258 L377.850806,25.5493164 Z M371.808325,11.6455078 L369.708716,11.6455078 L369.708716,3.79638672 L371.95481,3.79638672 C372.866268,3.79638672 373.63938,3.87369792 374.274146,4.02832031 C374.908911,4.18294271 375.425676,4.41894531 375.824439,4.73632812 C376.223202,5.05371094 376.512101,5.45043945 376.691138,5.92651367 C376.870174,6.40258789 376.959693,6.95800781 376.959693,7.59277344 C376.959693,8.44726562 376.829484,9.1389974 376.569068,9.66796875 C376.308651,10.1969401 375.948543,10.6079102 375.488745,10.9008789 C375.028947,11.1938477 374.485734,11.3911947 373.859107,11.4929199 C373.232479,11.5946452 372.548885,11.6455078 371.808325,11.6455078 L371.808325,11.6455078 Z M391.013741,25.2441406 L392.112374,10.1928711 C392.153064,9.80224609 392.189685,9.38110352 392.222237,8.92944336 C392.254789,8.4777832 392.281238,8.03833008 392.301583,7.61108398 C392.321928,7.18383789 392.338204,6.79117839 392.350411,6.43310547 C392.362618,6.07503255 392.368722,5.79427083 392.368722,5.59082031 C392.401274,5.79427083 392.456205,6.07096354 392.533517,6.42089844 C392.610828,6.77083333 392.700346,7.15535482 392.802071,7.57446289 C392.903797,7.99357096 393.011625,8.43098958 393.125558,8.88671875 C393.23949,9.34244792 393.353422,9.77783203 393.467354,10.1928711 L393.467354,10.1928711 L397.520089,25.2441406 L401.060128,25.2441406 L405.515694,9.49707031 C405.743559,8.69140625 405.940906,7.94881185 406.107735,7.26928711 C406.274565,6.58976237 406.394601,6.04654948 406.467843,5.63964844 C406.467843,5.82682292 406.473946,6.07706706 406.486153,6.39038086 C406.49836,6.70369466 406.512602,7.04752604 406.528878,7.421875 C406.545154,7.79622396 406.565499,8.18684896 406.589913,8.59375 C406.614327,9.00065104 406.638741,9.39941406 406.663155,9.79003906 L406.663155,9.79003906 L407.871651,25.2441406 L411.912179,25.2441406 L409.666085,0.439453125 L404.160714,0.439453125 L400.315499,14.5996094 C400.201567,15.0390625 400.097807,15.4602051 400.00422,15.8630371 C399.910632,16.2658691 399.827218,16.6422526 399.753976,16.9921875 C399.680733,17.3421224 399.615629,17.6574707 399.558663,17.9382324 C399.501697,18.2189941 399.452869,18.4529622 399.412179,18.6401367 C399.363351,18.2657878 399.271798,17.7469889 399.13752,17.0837402 C399.003243,16.4204915 398.797758,15.5721029 398.521065,14.5385742 L398.521065,14.5385742 L394.7613,0.439453125 L389.268136,0.439453125 L386.961007,25.2441406 L391.013741,25.2441406 Z M419.276774,25.2441406 L421.327555,18.75 L429.323161,18.75 L431.325114,25.2441406 L435.878337,25.2441406 L427.919352,0.390625 L423.170817,0.390625 L415.028727,25.2441406 L419.276774,25.2441406 Z M428.419841,15.2954102 L422.328532,15.2954102 C422.393636,15.0919596 422.489258,14.7827148 422.615397,14.3676758 C422.741537,13.9526367 422.883952,13.4765625 423.042643,12.9394531 C423.201335,12.4023438 423.370199,11.8265788 423.549235,11.2121582 C423.728272,10.5977376 423.907308,9.98535156 424.086345,9.375 C424.501384,7.94270833 424.948975,6.38427734 425.429118,4.69970703 L425.429118,4.69970703 L425.477946,4.69970703 C425.494222,4.82177734 425.547119,5.05981445 425.636638,5.41381836 C425.726156,5.76782227 425.836019,6.19506836 425.966227,6.69555664 C426.096436,7.19604492 426.24292,7.74536133 426.40568,8.34350586 C426.568441,8.94165039 426.737305,9.54793294 426.912272,10.1623535 C427.08724,10.7767741 427.258138,11.3769531 427.424968,11.9628906 C427.591797,12.5488281 427.744385,13.0777995 427.882731,13.5498047 C428.021078,14.0218099 428.137044,14.4144694 428.230632,14.7277832 C428.324219,15.041097 428.387289,15.230306 428.419841,15.2954102 L428.419841,15.2954102 Z M443.889905,25.2441406 L443.889905,12.9394531 L443.535901,6.29882812 L443.633557,6.18896484 C443.74749,6.55517578 443.912285,7.01497396 444.127942,7.56835938 C444.3436,8.12174479 444.591809,8.72599284 444.872571,9.38110352 C445.153333,10.0362142 445.458508,10.7218424 445.788098,11.4379883 C446.117688,12.1541341 446.449313,12.8580729 446.782971,13.5498047 L446.782971,13.5498047 L452.337171,25.2441406 L456.731702,25.2441406 L456.731702,0.439453125 L452.740003,0.439453125 L452.740003,11.7919922 C452.740003,12.1744792 452.748141,12.5874837 452.764417,13.0310059 C452.780693,13.474528 452.803072,13.9241536 452.831555,14.3798828 C452.860038,14.835612 452.890556,15.2872721 452.923108,15.7348633 C452.95566,16.1824544 452.988212,16.6056315 453.020764,17.0043945 C453.053316,17.4031576 453.083834,17.7652995 453.112317,18.0908203 C453.1408,18.4163411 453.16318,18.6848958 453.179456,18.8964844 L453.179456,18.8964844 L453.081799,18.9941406 C452.992281,18.7093099 452.858004,18.3227539 452.678967,17.8344727 C452.499931,17.3461914 452.292411,16.809082 452.056409,16.2231445 C451.820406,15.637207 451.562024,15.0309245 451.281262,14.4042969 C451.000501,13.7776693 450.717704,13.1754557 450.432874,12.5976562 L450.432874,12.5976562 L444.536878,0.439453125 L439.788342,0.439453125 L439.788342,25.2441406 L443.889905,25.2441406 Z M472.88536,25.6469727 C474.236271,25.6469727 475.47325,25.4679362 476.596297,25.1098633 C477.719344,24.7517904 478.769149,24.1984049 479.745711,23.449707 L479.745711,23.449707 L477.536239,21.0449219 C477.226994,21.2727865 476.915715,21.4701335 476.602401,21.6369629 C476.289087,21.8037923 475.961532,21.9441732 475.619735,22.0581055 C475.277938,22.1720378 474.915796,22.257487 474.533309,22.3144531 C474.150822,22.3714193 473.735783,22.3999023 473.288192,22.3999023 C472.685978,22.3999023 472.114282,22.3266602 471.573104,22.1801758 C471.031926,22.0336914 470.529403,21.8159993 470.065536,21.5270996 C469.601668,21.2381999 469.180526,20.8740234 468.802108,20.4345703 C468.42369,19.9951172 468.104273,19.4824219 467.843856,18.8964844 C467.681096,18.5465495 467.53868,18.1722005 467.41661,17.7734375 C467.29454,17.3746745 467.194849,16.9291178 467.117538,16.4367676 C467.040226,15.9444173 466.98326,15.3971354 466.946639,14.7949219 C466.910018,14.1927083 466.891708,13.5091146 466.891708,12.7441406 C466.891708,11.2711589 466.993433,9.99755859 467.196883,8.92333984 C467.400334,7.84912109 467.713648,6.93766276 468.136825,6.18896484 C468.69021,5.23681641 469.381942,4.50846354 470.21202,4.00390625 C471.042098,3.49934896 471.986109,3.24707031 473.044051,3.24707031 C473.434676,3.24707031 473.802922,3.26741536 474.148788,3.30810547 C474.494653,3.34879557 474.834416,3.41796875 475.168075,3.515625 C475.501734,3.61328125 475.829289,3.74552409 476.150741,3.91235352 C476.472193,4.07918294 476.803817,4.28873698 477.145614,4.54101562 L477.145614,4.54101562 L479.245223,1.89208984 C478.879012,1.59098307 478.463973,1.32446289 478.000106,1.0925293 C477.536239,0.860595703 477.03575,0.663248698 476.498641,0.500488281 C475.961532,0.337727865 475.400008,0.213623047 474.814071,0.128173828 C474.228133,0.0427246094 473.638127,0 473.044051,0 C471.8559,0 470.765405,0.172932943 469.772567,0.518798828 C468.779728,0.864664714 467.884546,1.34073893 467.08702,1.94702148 C466.289494,2.55330404 465.591659,3.27351888 464.993514,4.10766602 C464.39537,4.94181315 463.894881,5.84716797 463.492049,6.82373047 C463.089217,7.80029297 462.788111,8.8297526 462.588729,9.91210938 C462.389348,10.9944661 462.289657,12.0890299 462.289657,13.1958008 C462.289657,14.3025716 462.391382,15.3788249 462.594833,16.4245605 C462.798283,17.4702962 463.09939,18.4549967 463.498153,19.3786621 C463.896916,20.3023275 464.39537,21.1466471 464.993514,21.9116211 C465.591659,22.6765951 466.281356,23.3357747 467.062606,23.8891602 C467.843856,24.4425456 468.720728,24.8738607 469.693221,25.1831055 C470.665715,25.4923503 471.729761,25.6469727 472.88536,25.6469727 Z M498.755815,25.2441406 L498.755815,21.7407227 L488.550737,21.7407227 L488.550737,13.8916016 L496.888139,13.8916016 L496.888139,10.4980469 L488.501909,10.4980469 L488.501909,3.79638672 L497.864702,3.79638672 L498.706987,0.439453125 L484.449174,0.439453125 L484.449174,25.2441406 L498.755815,25.2441406 Z" id="PERFORMANCE" fill="#222222"></path>
                </g>
                <rect id="Rectangle" fill="#009CD7" x="0" y="36" width="500" height="2"></rect>
                <g id="Group-2" transform="translate(228.000000, 1.000000)" fill="#009CD7">
                    <path d="M15.9,21.032 L15.9,25 L0.4,25 L0.4,21.032 L15.9,21.032 Z M15.9,10.616 L15.9,14.584 L0.4,14.584 L0.4,10.616 L15.9,10.616 Z M15.9,0.2 L15.9,4.168 L0.4,4.168 L0.4,0.2 L15.9,0.2 Z" id="Combined-Shape"></path>
                </g>
            </g>
        </g>
    </g>
</svg>