<?xml version="1.0" encoding="utf-8"?>
<!-- Generator: Adobe Illustrator 23.1.1, SVG Export Plug-In . SVG Version: 6.00 Build 0)  -->
<svg version="1.1" id="Layer_1" xmlns="http://www.w3.org/2000/svg" xmlns:xlink="http://www.w3.org/1999/xlink" x="0px" y="0px"
	 viewBox="0 0 100 16.9" style="enable-background:new 0 0 100 16.9;" xml:space="preserve">
<style type="text/css">
	.st0{fill-rule:evenodd;clip-rule:evenodd;fill:#EC1D24;}
	.st1{fill-rule:evenodd;clip-rule:evenodd;fill:#FEFEFE;}
</style>
<title>Group 18</title>
<desc>Created with Sketch.</desc>
<g id="Page-1">
	<g id="Group-18">
		<path id="Fill-1" class="st0" d="M99.3,0H14.3c-0.5,0-1,0.2-1.4,0.6L0.2,15.5c-0.4,0.4-0.1,1.3,0.5,1.4h85.1c0.5,0,1-0.2,1.4-0.6
			L99.8,1.4C100.2,0.9,99.9,0,99.3,0"/>
		<path id="Fill-4" class="st1" d="M19.1,8.2l0.5-1.7l-3.9,0l-0.5,1.7L19.1,8.2z M20.9,12.2l-3,0l0.7-2.3l-3.9,0L14,12.2l-3,0
			l1.8-6.3L15,4.8l6.3,0l1.4,1.1L20.9,12.2z"/>
		<polygon id="Fill-6" class="st1" points="31,12.2 22.7,12.2 24.8,4.8 27.8,4.8 26.1,10.5 31.5,10.5 		"/>
		<polygon id="Fill-8" class="st1" points="40.4,12.2 32.1,12.2 34.2,4.8 37.2,4.8 35.5,10.5 40.9,10.5 		"/>
		<polygon id="Fill-10" class="st1" points="47,9.8 42.3,9.8 42.7,8.7 47.3,8.7 		"/>
		<polygon id="Fill-12" class="st1" points="58.1,12.2 55.1,12.2 52,8.2 50.9,12.2 48,12.2 50.2,4.8 52.5,4.8 56.2,9.1 57.4,4.8 
			60.3,4.8 		"/>
		<polygon id="Fill-14" class="st1" points="70,12.2 59.9,12.2 62.1,4.8 72,4.8 71.5,6.5 65.1,6.5 64.8,7.6 70.2,7.6 68,9.1 
			64.4,9.1 64,10.5 70.5,10.5 		"/>
		<polygon id="Fill-16" class="st1" points="85.1,12.2 71.5,12.2 73.7,4.8 76.6,4.8 75,10.5 77.3,10.5 79,4.8 82,4.8 80.3,10.5 
			82.7,10.5 84.3,4.8 87.3,4.8 		"/>
	</g>
</g>
</svg>
