<?xml version="1.0" encoding="UTF-8"?>
<svg width="500px" height="38px" viewBox="0 0 500 38" version="1.1" xmlns="http://www.w3.org/2000/svg" xmlns:xlink="http://www.w3.org/1999/xlink">
    <!-- Generator: Sketch 61.2 (89653) - https://sketch.com -->
    <title>interior</title>
    <desc>Created with Sketch.</desc>
    <g id="Page-1" stroke="none" stroke-width="1" fill="none" fill-rule="evenodd">
        <g id="Group-3" transform="translate(0.000000, -14.000000)">
            <g id="interior" transform="translate(0.000000, 14.000000)">
                <g id="THE-ABSOLUTE-SAFETY" transform="translate(0.695801, 0.755859)" fill-rule="nonzero">
                    <path d="M10.3515625,25.2441406 L10.3515625,3.89404297 L16.40625,3.89404297 L17.199707,0.439453125 L-5.32907052e-14,0.439453125 L-5.32907052e-14,3.89404297 L6.25,3.89404297 L6.25,25.2441406 L10.3515625,25.2441406 Z M25.7117635,25.2441406 L25.7117635,13.6962891 L34.1590291,13.6962891 L34.1590291,25.2441406 L38.2605916,25.2441406 L38.2605916,0.439453125 L34.1590291,0.439453125 L34.1590291,10.2905273 L25.7117635,10.2905273 L25.7117635,0.439453125 L21.610201,0.439453125 L21.610201,25.2441406 L25.7117635,25.2441406 Z M59.8707927,25.2441406 L59.8707927,21.7407227 L49.6657145,21.7407227 L49.6657145,13.8916016 L58.0031169,13.8916016 L58.0031169,10.4980469 L49.6168864,10.4980469 L49.6168864,3.79638672 L58.9796794,3.79638672 L59.8219645,0.439453125 L45.564152,0.439453125 L45.564152,25.2441406 L59.8707927,25.2441406 Z" id="THE" fill="#FFFFFF"></path>
                    <path d="M77.0780111,25.2441406 L79.1287923,18.75 L87.1243978,18.75 L89.1263509,25.2441406 L93.6795736,25.2441406 L85.7205892,0.390625 L80.9720541,0.390625 L72.8299642,25.2441406 L77.0780111,25.2441406 Z M86.2210775,15.2954102 L80.1297689,15.2954102 C80.1948731,15.0919596 80.2904948,14.7827148 80.4166341,14.3676758 C80.5427735,13.9526367 80.6851888,13.4765625 80.8438802,12.9394531 C81.0025716,12.4023438 81.1714356,11.8265788 81.350472,11.2121582 C81.5295085,10.5977376 81.708545,9.98535156 81.8875814,9.375 C82.3026205,7.94270833 82.7502116,6.38427734 83.2303548,4.69970703 L83.2303548,4.69970703 L83.279183,4.69970703 C83.295459,4.82177734 83.3483562,5.05981445 83.4378744,5.41381836 C83.5273926,5.76782227 83.6372559,6.19506836 83.7674642,6.69555664 C83.8976726,7.19604492 84.0441569,7.74536133 84.2069173,8.34350586 C84.3696778,8.94165039 84.5385417,9.54793294 84.7135091,10.1623535 C84.8884766,10.7767741 85.059375,11.3769531 85.2262045,11.9628906 C85.3930339,12.5488281 85.5456218,13.0777995 85.6839681,13.5498047 C85.8223145,14.0218099 85.9382813,14.4144694 86.0318685,14.7277832 C86.1254558,15.041097 86.1885254,15.230306 86.2210775,15.2954102 L86.2210775,15.2954102 Z M104.840556,25.2441406 C106.411194,25.2441406 107.800761,25.1098633 109.009257,24.8413086 C110.217753,24.5727539 111.230937,24.1516113 112.048808,23.5778809 C112.866679,23.0041504 113.485168,22.2717285 113.904277,21.3806152 C114.323385,20.489502 114.532939,19.4254557 114.532939,18.1884766 C114.532939,17.578125 114.451558,16.9555664 114.288798,16.3208008 C114.126038,15.6860352 113.845276,15.0858561 113.446513,14.5202637 C113.04775,13.9546712 112.510641,13.4460449 111.835185,12.9943848 C111.159729,12.5427246 110.309306,12.1907552 109.283915,11.9384766 C109.975647,11.7431641 110.585999,11.4746094 111.11497,11.1328125 C111.643941,10.7910156 112.087463,10.3922526 112.445536,9.93652344 C112.803609,9.48079427 113.074198,8.96606445 113.257304,8.39233398 C113.440409,7.81860352 113.531962,7.20214844 113.531962,6.54296875 C113.531962,5.48502604 113.300029,4.55525716 112.836161,3.75366211 C112.372294,2.95206706 111.672424,2.25016276 110.736552,1.64794922 C110.345927,1.41194661 109.959371,1.21663411 109.576884,1.06201172 C109.194397,0.907389323 108.761047,0.783284505 108.276835,0.689697266 C107.792623,0.596110026 107.22703,0.531005859 106.580058,0.494384766 C105.933085,0.457763672 105.15387,0.439453125 104.242411,0.439453125 L104.242411,0.439453125 L97.6872356,0.439453125 L97.6872356,25.2441406 L104.840556,25.2441406 Z M105.182353,10.5957031 L101.73997,10.5957031 L101.73997,3.79638672 L104.840556,3.79638672 C106.26471,3.79638672 107.345032,4.0629069 108.081523,4.59594727 C108.818014,5.12898763 109.186259,5.99365234 109.186259,7.18994141 C109.186259,7.81656901 109.096741,8.34554036 108.917704,8.77685547 C108.738668,9.20817057 108.478251,9.55810547 108.136454,9.82666016 C107.794657,10.0952148 107.375549,10.2905273 106.87913,10.4125977 C106.382711,10.534668 105.817118,10.5957031 105.182353,10.5957031 L105.182353,10.5957031 Z M105.487529,21.8383789 L101.788798,21.8383789 L101.788798,13.9892578 L105.389872,13.9892578 C106.203674,13.9892578 106.899475,14.0686035 107.477275,14.2272949 C108.055074,14.3859863 108.531148,14.6240234 108.905497,14.9414062 C109.279846,15.2587891 109.554504,15.6595866 109.729472,16.1437988 C109.904439,16.6280111 109.991923,17.195638 109.991923,17.8466797 C109.991923,18.4000651 109.904439,18.9188639 109.729472,19.4030762 C109.554504,19.8872884 109.283915,20.308431 108.917704,20.6665039 C108.551493,21.0245768 108.085592,21.3094076 107.519999,21.5209961 C106.954407,21.7325846 106.276917,21.8383789 105.487529,21.8383789 L105.487529,21.8383789 Z M126.450757,25.6958008 C128.037671,25.6958008 129.433342,25.4760742 130.637769,25.0366211 C131.842196,24.597168 132.847241,24.0112305 133.652905,23.2788086 C134.458569,22.5463867 135.066886,21.7020671 135.477856,20.7458496 C135.888827,19.7896322 136.094312,18.7906901 136.094312,17.7490234 C136.094312,16.8212891 135.945793,15.9810384 135.648755,15.2282715 C135.351717,14.4755046 134.934644,13.8061523 134.397534,13.2202148 C133.860425,12.6342773 133.22159,12.1317546 132.48103,11.7126465 C131.74047,11.2935384 130.926668,10.953776 130.039624,10.6933594 L130.039624,10.6933594 L127.09773,9.83886719 C126.487378,9.65169271 125.970614,9.46044922 125.547437,9.26513672 C125.124259,9.06982422 124.782463,8.85416667 124.522046,8.61816406 C124.261629,8.38216146 124.074455,8.11767578 123.960523,7.82470703 C123.84659,7.53173828 123.789624,7.18994141 123.789624,6.79931641 C123.789624,6.28662109 123.885246,5.8207194 124.076489,5.40161133 C124.267733,4.98250326 124.540356,4.62443034 124.89436,4.32739258 C125.248364,4.03035482 125.67561,3.80045573 126.176099,3.63769531 C126.676587,3.4749349 127.232007,3.39355469 127.842358,3.39355469 C128.33064,3.39355469 128.802645,3.43017578 129.258374,3.50341797 C129.714103,3.57666016 130.173901,3.68855794 130.637769,3.83911133 C131.101636,3.98966471 131.581779,4.18497721 132.078198,4.42504883 C132.574618,4.66512044 133.111727,4.95605469 133.689526,5.29785156 L133.689526,5.29785156 L135.544995,2.39257812 C134.438224,1.61132812 133.211418,1.02539062 131.864575,0.634765625 C130.517733,0.244140625 129.128166,0.048828125 127.695874,0.048828125 C126.442619,0.048828125 125.299227,0.225830078 124.265698,0.579833984 C123.23217,0.933837891 122.343091,1.43229167 121.598462,2.07519531 C120.853833,2.71809896 120.276034,3.49121094 119.865064,4.39453125 C119.454093,5.29785156 119.248608,6.29882812 119.248608,7.39746094 C119.248608,8.30891927 119.405265,9.12272135 119.718579,9.83886719 C120.031893,10.555013 120.45507,11.1836751 120.98811,11.7248535 C121.521151,12.2660319 122.141675,12.7237956 122.849683,13.0981445 C123.55769,13.4724935 124.306388,13.7695312 125.095776,13.9892578 L125.095776,13.9892578 L127.744702,14.7460938 C129.022371,15.0960286 129.958244,15.5680339 130.552319,16.1621094 C131.146395,16.7561849 131.443433,17.5170898 131.443433,18.4448242 C131.443433,19.0551758 131.333569,19.6044922 131.113843,20.0927734 C130.894116,20.5810547 130.576733,20.9960938 130.161694,21.3378906 C129.746655,21.6796875 129.240064,21.9421387 128.641919,22.1252441 C128.043774,22.3083496 127.362215,22.3999023 126.597241,22.3999023 C125.970614,22.3999023 125.362297,22.3490397 124.77229,22.2473145 C124.182284,22.1455892 123.60245,21.9991048 123.032788,21.8078613 C122.463127,21.6166178 121.901603,21.3887533 121.348218,21.1242676 C120.794832,20.8597819 120.245516,20.5647786 119.700269,20.2392578 L119.700269,20.2392578 L118.247632,23.449707 C119.484611,24.1739909 120.800936,24.7294108 122.196606,25.1159668 C123.592277,25.5025228 125.010327,25.6958008 126.450757,25.6958008 Z M151.051681,25.6469727 C152.663009,25.6469727 154.097335,25.3458659 155.354659,24.7436523 C156.611983,24.1414388 157.669926,23.2849121 158.528487,22.1740723 C159.387048,21.0632324 160.040125,19.7224935 160.487716,18.1518555 C160.935307,16.5812174 161.159102,14.827474 161.159102,12.890625 C161.159102,11.0758464 160.949548,9.38924154 160.53044,7.83081055 C160.111332,6.27237956 159.476567,4.91943359 158.626143,3.77197266 C157.77572,2.62451172 156.705571,1.72526042 155.415694,1.07421875 C154.125818,0.423177083 152.606043,0.09765625 150.856368,0.09765625 C149.302006,0.09765625 147.892094,0.376383464 146.626632,0.933837891 C145.361169,1.49129232 144.278813,2.31119792 143.379561,3.39355469 C142.48031,4.47591146 141.784509,5.80851237 141.292159,7.39135742 C140.799809,8.97420247 140.553634,10.7910156 140.553634,12.8417969 C140.553634,14.6809896 140.769291,16.3818359 141.200606,17.9443359 C141.631921,19.5068359 142.284998,20.8597819 143.159835,22.0031738 C144.034672,23.1465658 145.129236,24.0397135 146.443526,24.6826172 C147.757817,25.3255208 149.293868,25.6469727 151.051681,25.6469727 Z M150.954024,22.5463867 C149.90422,22.5463867 149.011072,22.3286947 148.274581,21.8933105 C147.53809,21.4579264 146.939946,20.8170573 146.480147,19.9707031 C146.020349,19.124349 145.684656,18.0847168 145.473067,16.8518066 C145.261479,15.6188965 145.155684,14.2008464 145.155684,12.5976562 C145.155684,11.1083984 145.25741,9.78393555 145.46086,8.62426758 C145.664311,7.46459961 145.991866,6.4860026 146.443526,5.68847656 C146.895186,4.89095052 147.479089,4.28466797 148.195235,3.86962891 C148.911381,3.45458984 149.782149,3.24707031 150.80754,3.24707031 C151.906173,3.24707031 152.817631,3.4769694 153.541915,3.93676758 C154.266199,4.39656576 154.846033,5.05371094 155.281417,5.90820312 C155.716801,6.76269531 156.021977,7.80232747 156.196944,9.02709961 C156.371912,10.2518717 156.459395,11.6251628 156.459395,13.1469727 C156.459395,14.8071289 156.341394,16.2312826 156.105391,17.4194336 C155.869389,18.6075846 155.519454,19.5821126 155.055587,20.3430176 C154.59172,21.1039225 154.017989,21.661377 153.334395,22.0153809 C152.650802,22.3693848 151.857345,22.5463867 150.954024,22.5463867 Z M179.217057,25.2441406 L180.059343,21.8383789 L170.965104,21.8383789 L170.965104,0.439453125 L166.863542,0.439453125 L166.863542,25.2441406 L179.217057,25.2441406 Z M192.84386,25.6958008 C194.211047,25.6958008 195.425647,25.5228678 196.487659,25.177002 C197.54967,24.8311361 198.444853,24.3387858 199.173206,23.6999512 C199.901559,23.0611165 200.454944,22.2859701 200.833362,21.3745117 C201.21178,20.4630534 201.400989,19.4376628 201.400989,18.2983398 L201.400989,18.2983398 L201.400989,0.439453125 L197.299426,0.439453125 L197.299426,17.0898438 C197.299426,18.741862 196.931181,20.0052897 196.19469,20.880127 C195.458199,21.7549642 194.341256,22.1923828 192.84386,22.1923828 C192.078886,22.1923828 191.417672,22.1048991 190.860217,21.9299316 C190.302763,21.7549642 189.84093,21.468099 189.474719,21.0693359 C189.108508,20.6705729 188.837919,20.1456706 188.662952,19.4946289 C188.487984,18.8435872 188.400501,18.0419922 188.400501,17.0898438 L188.400501,17.0898438 L188.400501,0.439453125 L184.298938,0.439453125 L184.298938,18.347168 C184.298938,19.0063477 184.357939,19.6451823 184.47594,20.2636719 C184.593941,20.8821615 184.787219,21.4640299 185.055774,22.0092773 C185.324329,22.5545247 185.678333,23.0529785 186.117786,23.5046387 C186.557239,23.9562988 187.092314,24.3448893 187.72301,24.6704102 C188.353707,24.995931 189.092232,25.2482096 189.938586,25.4272461 C190.784941,25.6062826 191.753365,25.6958008 192.84386,25.6958008 Z M216.456014,25.2441406 L216.456014,3.89404297 L222.510702,3.89404297 L223.304159,0.439453125 L206.104452,0.439453125 L206.104452,3.89404297 L212.354452,3.89404297 L212.354452,25.2441406 L216.456014,25.2441406 Z" id="ABSOLUTE" fill="#009CD7"></path>
                    <path d="M264.233394,25.6958008 C265.820309,25.6958008 267.215979,25.4760742 268.420406,25.0366211 C269.624833,24.597168 270.629879,24.0112305 271.435543,23.2788086 C272.241207,22.5463867 272.849524,21.7020671 273.260494,20.7458496 C273.671464,19.7896322 273.876949,18.7906901 273.876949,17.7490234 C273.876949,16.8212891 273.72843,15.9810384 273.431393,15.2282715 C273.134355,14.4755046 272.717281,13.8061523 272.180172,13.2202148 C271.643062,12.6342773 271.004228,12.1317546 270.263668,11.7126465 C269.523108,11.2935384 268.709306,10.953776 267.822262,10.6933594 L267.822262,10.6933594 L264.880367,9.83886719 C264.270016,9.65169271 263.753251,9.46044922 263.330074,9.26513672 C262.906897,9.06982422 262.5651,8.85416667 262.304684,8.61816406 C262.044267,8.38216146 261.857092,8.11767578 261.74316,7.82470703 C261.629228,7.53173828 261.572262,7.18994141 261.572262,6.79931641 C261.572262,6.28662109 261.667883,5.8207194 261.859127,5.40161133 C262.05037,4.98250326 262.322994,4.62443034 262.676998,4.32739258 C263.031002,4.03035482 263.458248,3.80045573 263.958736,3.63769531 C264.459225,3.4749349 265.014644,3.39355469 265.624996,3.39355469 C266.113277,3.39355469 266.585282,3.43017578 267.041012,3.50341797 C267.496741,3.57666016 267.956539,3.68855794 268.420406,3.83911133 C268.884273,3.98966471 269.364417,4.18497721 269.860836,4.42504883 C270.357255,4.66512044 270.894365,4.95605469 271.472164,5.29785156 L271.472164,5.29785156 L273.327633,2.39257812 C272.220862,1.61132812 270.994055,1.02539062 269.647213,0.634765625 C268.30037,0.244140625 266.910803,0.048828125 265.478512,0.048828125 C264.225256,0.048828125 263.081865,0.225830078 262.048336,0.579833984 C261.014807,0.933837891 260.125728,1.43229167 259.3811,2.07519531 C258.636471,2.71809896 258.058671,3.49121094 257.647701,4.39453125 C257.236731,5.29785156 257.031246,6.29882812 257.031246,7.39746094 C257.031246,8.30891927 257.187903,9.12272135 257.501217,9.83886719 C257.814531,10.555013 258.237708,11.1836751 258.770748,11.7248535 C259.303788,12.2660319 259.924312,12.7237956 260.63232,13.0981445 C261.340328,13.4724935 262.089026,13.7695312 262.878414,13.9892578 L262.878414,13.9892578 L265.52734,14.7460938 C266.805009,15.0960286 267.740881,15.5680339 268.334957,16.1621094 C268.929032,16.7561849 269.22607,17.5170898 269.22607,18.4448242 C269.22607,19.0551758 269.116207,19.6044922 268.89648,20.0927734 C268.676754,20.5810547 268.359371,20.9960938 267.944332,21.3378906 C267.529293,21.6796875 267.022701,21.9421387 266.424557,22.1252441 C265.826412,22.3083496 265.144853,22.3999023 264.379879,22.3999023 C263.753251,22.3999023 263.144934,22.3490397 262.554928,22.2473145 C261.964921,22.1455892 261.385087,21.9991048 260.815426,21.8078613 C260.245764,21.6166178 259.684241,21.3887533 259.130855,21.1242676 C258.57747,20.8597819 258.028154,20.5647786 257.482906,20.2392578 L257.482906,20.2392578 L256.030269,23.449707 C257.267249,24.1739909 258.583574,24.7294108 259.979244,25.1159668 C261.374915,25.5025228 262.792965,25.6958008 264.233394,25.6958008 Z M280.741056,25.2441406 L282.791838,18.75 L290.787443,18.75 L292.789396,25.2441406 L297.342619,25.2441406 L289.383635,0.390625 L284.635099,0.390625 L276.49301,25.2441406 L280.741056,25.2441406 Z M289.884123,15.2954102 L283.792814,15.2954102 C283.857918,15.0919596 283.95354,14.7827148 284.079679,14.3676758 C284.205819,13.9526367 284.348234,13.4765625 284.506926,12.9394531 C284.665617,12.4023438 284.834481,11.8265788 285.013517,11.2121582 C285.192554,10.5977376 285.37159,9.98535156 285.550627,9.375 C285.965666,7.94270833 286.413257,6.38427734 286.8934,4.69970703 L286.8934,4.69970703 L286.942228,4.69970703 C286.958504,4.82177734 287.011401,5.05981445 287.10092,5.41381836 C287.190438,5.76782227 287.300301,6.19506836 287.43051,6.69555664 C287.560718,7.19604492 287.707202,7.74536133 287.869963,8.34350586 C288.032723,8.94165039 288.201587,9.54793294 288.376554,10.1623535 C288.551522,10.7767741 288.72242,11.3769531 288.88925,11.9628906 C289.056079,12.5488281 289.208667,13.0777995 289.347013,13.5498047 C289.48536,14.0218099 289.601327,14.4144694 289.694914,14.7277832 C289.788501,15.041097 289.851571,15.230306 289.884123,15.2954102 L289.884123,15.2954102 Z M305.403015,25.2441406 L305.451843,13.8916016 L313.789246,13.8916016 L313.789246,10.4980469 L305.403015,10.4980469 L305.403015,3.79638672 L314.765808,3.79638672 L315.608093,0.439453125 L301.350281,0.439453125 L301.350281,25.2441406 L305.403015,25.2441406 Z M335.05765,25.2441406 L335.05765,21.7407227 L324.852572,21.7407227 L324.852572,13.8916016 L333.189974,13.8916016 L333.189974,10.4980469 L324.803744,10.4980469 L324.803744,3.79638672 L334.166537,3.79638672 L335.008822,0.439453125 L320.751009,0.439453125 L320.751009,25.2441406 L335.05765,25.2441406 Z M348.501347,25.2441406 L348.501347,3.89404297 L354.556034,3.89404297 L355.349492,0.439453125 L338.149784,0.439453125 L338.149784,3.89404297 L344.399784,3.89404297 L344.399784,25.2441406 L348.501347,25.2441406 Z M368.304907,25.2441406 L368.304907,15.246582 L376.166235,0.439453125 L371.356665,0.439453125 L367.609107,8.34960938 C367.446346,8.69140625 367.28562,9.04134115 367.126929,9.39941406 C366.968237,9.75748698 366.823788,10.0911458 366.693579,10.4003906 C366.547095,10.7584635 366.40468,11.1083984 366.266333,11.4501953 C366.144263,11.1328125 366.009985,10.7991536 365.863501,10.4492188 C365.741431,10.148112 365.599015,9.8063151 365.436255,9.42382812 C365.273495,9.04134115 365.098527,8.64664714 364.911353,8.23974609 L364.911353,8.23974609 L361.066138,0 L356.6594,0.939941406 L364.008032,15.1977539 L364.008032,25.2441406 L368.304907,25.2441406 Z" id="SAFETY" fill="#FFFFFF"></path>
                </g>
                <rect id="Rectangle" fill="#009CD7" x="0" y="36" width="377" height="2"></rect>
                <g id="Group-2" transform="translate(228.000000, 1.000000)" fill="#009CD7">
                    <path d="M15.9,21.032 L15.9,25 L0.4,25 L0.4,21.032 L15.9,21.032 Z M15.9,10.616 L15.9,14.584 L0.4,14.584 L0.4,10.616 L15.9,10.616 Z M15.9,0.2 L15.9,4.168 L0.4,4.168 L0.4,0.2 L15.9,0.2 Z" id="Combined-Shape"></path>
                </g>
            </g>
        </g>
    </g>
</svg>