<?xml version="1.0" encoding="UTF-8"?>
<svg width="700px" height="47px" viewBox="0 0 700 47" version="1.1" xmlns="http://www.w3.org/2000/svg" xmlns:xlink="http://www.w3.org/1999/xlink">
    <!-- Generator: Sketch 61.2 (89653) - https://sketch.com -->
    <title>interior</title>
    <desc>Created with Sketch.</desc>
    <g id="Page-1" stroke="none" stroke-width="1" fill="none" fill-rule="evenodd">
        <g id="interior" transform="translate(86.000000, 0.000000)">
            <g id="THE-ABSOLUTE-SAFETY" transform="translate(0.974121, 0.658203)" fill-rule="nonzero">
                <path d="M14.4921875,35.3417969 L14.4921875,5.45166016 L22.96875,5.45166016 L24.0795898,0.615234375 L1.42108547e-14,0.615234375 L1.42108547e-14,5.45166016 L8.75,5.45166016 L8.75,35.3417969 L14.4921875,35.3417969 Z M35.9964689,35.3417969 L35.9964689,19.1748047 L47.8226408,19.1748047 L47.8226408,35.3417969 L53.5648283,35.3417969 L53.5648283,0.615234375 L47.8226408,0.615234375 L47.8226408,14.4067383 L35.9964689,14.4067383 L35.9964689,0.615234375 L30.2542814,0.615234375 L30.2542814,35.3417969 L35.9964689,35.3417969 Z M83.8191097,35.3417969 L83.8191097,30.4370117 L69.5320003,30.4370117 L69.5320003,19.4482422 L81.2043636,19.4482422 L81.2043636,14.6972656 L69.463641,14.6972656 L69.463641,5.31494141 L82.5715511,5.31494141 L83.7507503,0.615234375 L63.7898128,0.615234375 L63.7898128,35.3417969 L83.8191097,35.3417969 Z" id="THE" fill="#222222"></path>
                <path d="M107.909216,35.3417969 L110.780309,26.25 L121.974157,26.25 L124.776891,35.3417969 L131.151403,35.3417969 L120.008825,0.546875 L113.360876,0.546875 L101.96195,35.3417969 L107.909216,35.3417969 Z M120.709509,21.4135742 L112.181676,21.4135742 C112.272822,21.1287435 112.406693,20.6958008 112.583288,20.1147461 C112.759883,19.5336914 112.959264,18.8671875 113.181432,18.1152344 C113.4036,17.3632812 113.64001,16.5572103 113.890661,15.6970215 C114.141312,14.8368327 114.391963,13.9794922 114.642614,13.125 C115.223669,11.1197917 115.850296,8.93798828 116.522497,6.57958984 L116.522497,6.57958984 L116.590856,6.57958984 C116.613643,6.75048828 116.687699,7.08374023 116.813024,7.5793457 C116.93835,8.07495117 117.092158,8.6730957 117.27445,9.3737793 C117.456742,10.0744629 117.66182,10.8435059 117.889684,11.6809082 C118.117549,12.5183105 118.353958,13.3671061 118.598913,14.2272949 C118.843867,15.0874837 119.083125,15.9277344 119.316686,16.7480469 C119.550247,17.5683594 119.76387,18.3089193 119.957555,18.9697266 C120.15124,19.6305339 120.313594,20.1802572 120.444616,20.6188965 C120.575638,21.0575358 120.663936,21.3224284 120.709509,21.4135742 L120.709509,21.4135742 Z M146.776778,35.3417969 C148.975671,35.3417969 150.921065,35.1538086 152.61296,34.777832 C154.304854,34.4018555 155.723311,33.8122559 156.868331,33.0090332 C158.01335,32.2058105 158.879236,31.1804199 159.465987,29.9328613 C160.052738,28.6853027 160.346114,27.195638 160.346114,25.4638672 C160.346114,24.609375 160.232182,23.737793 160.004317,22.8491211 C159.776453,21.9604492 159.383386,21.1201986 158.825118,20.3283691 C158.26685,19.5365397 157.514897,18.8244629 156.569259,18.1921387 C155.623621,17.5598145 154.433028,17.0670573 152.997481,16.7138672 C153.965906,16.4404297 154.820398,16.0644531 155.560958,15.5859375 C156.301518,15.1074219 156.922449,14.5491536 157.423751,13.9111328 C157.925053,13.273112 158.303878,12.5524902 158.560225,11.7492676 C158.816573,10.9460449 158.944747,10.0830078 158.944747,9.16015625 C158.944747,7.67903646 158.62004,6.37736003 157.970626,5.25512695 C157.321212,4.13289388 156.341394,3.15022786 155.031173,2.30712891 C154.484298,1.97672526 153.943119,1.70328776 153.407638,1.48681641 C152.872156,1.27034505 152.265466,1.09659831 151.587569,0.965576172 C150.909672,0.834554036 150.117843,0.743408203 149.212081,0.692138672 C148.306319,0.640869141 147.215418,0.615234375 145.939376,0.615234375 L145.939376,0.615234375 L136.76213,0.615234375 L136.76213,35.3417969 L146.776778,35.3417969 Z M147.255294,14.8339844 L142.435958,14.8339844 L142.435958,5.31494141 L146.776778,5.31494141 C148.770593,5.31494141 150.283044,5.68806966 151.314132,6.43432617 C152.345219,7.18058268 152.860763,8.39111328 152.860763,10.065918 C152.860763,10.9431966 152.735437,11.6837565 152.484786,12.2875977 C152.234135,12.8914388 151.869552,13.3813477 151.391036,13.7573242 C150.91252,14.1333008 150.325769,14.4067383 149.630782,14.5776367 C148.935795,14.7485352 148.143966,14.8339844 147.255294,14.8339844 L147.255294,14.8339844 Z M147.68254,30.5737305 L142.504317,30.5737305 L142.504317,19.5849609 L147.545821,19.5849609 C148.685144,19.5849609 149.659265,19.6960449 150.468184,19.9182129 C151.277104,20.1403809 151.943608,20.4736328 152.467696,20.9179688 C152.991785,21.3623047 153.376306,21.9234212 153.621261,22.6013184 C153.866215,23.2792155 153.988692,24.0738932 153.988692,24.9853516 C153.988692,25.7600911 153.866215,26.4864095 153.621261,27.1643066 C153.376306,27.8422038 152.997481,28.4318034 152.484786,28.9331055 C151.972091,29.4344076 151.319828,29.8331706 150.527999,30.1293945 C149.736169,30.4256185 148.787683,30.5737305 147.68254,30.5737305 L147.68254,30.5737305 Z M177.03106,35.9741211 C179.252739,35.9741211 181.206678,35.6665039 182.892876,35.0512695 C184.579074,34.4360352 185.986138,33.6157227 187.114067,32.590332 C188.241997,31.5649414 189.093641,30.3828939 189.668999,29.0441895 C190.244357,27.705485 190.532036,26.3069661 190.532036,24.8486328 C190.532036,23.5498047 190.32411,22.3734538 189.908257,21.3195801 C189.492404,20.2657064 188.908501,19.3286133 188.156548,18.5083008 C187.404595,17.6879883 186.510226,16.9844564 185.473442,16.3977051 C184.436659,15.8109538 183.297336,15.3352865 182.055474,14.9707031 L182.055474,14.9707031 L177.936821,13.7744141 C177.082329,13.5123698 176.358859,13.2446289 175.766411,12.9711914 C175.173963,12.6977539 174.695448,12.3958333 174.330864,12.0654297 C173.966281,11.735026 173.704237,11.3647461 173.544732,10.9545898 C173.385226,10.5444336 173.305474,10.065918 173.305474,9.51904297 C173.305474,8.80126953 173.439344,8.14900716 173.707085,7.56225586 C173.974826,6.97550456 174.356499,6.47420247 174.852105,6.05834961 C175.34771,5.64249674 175.945855,5.32063802 176.646538,5.09277344 C177.347222,4.86490885 178.12481,4.75097656 178.979302,4.75097656 C179.662896,4.75097656 180.323703,4.80224609 180.961724,4.90478516 C181.599745,5.00732422 182.243462,5.16398112 182.892876,5.37475586 C183.54229,5.5855306 184.214491,5.8589681 184.909478,6.19506836 C185.604465,6.53116862 186.356418,6.93847656 187.165337,7.41699219 L187.165337,7.41699219 L189.762993,3.34960938 C188.213514,2.25585938 186.495985,1.43554688 184.610405,0.888671875 C182.724826,0.341796875 180.779432,0.068359375 178.774224,0.068359375 C177.019666,0.068359375 175.418918,0.316162109 173.971978,0.811767578 C172.525038,1.30737305 171.280327,2.00520833 170.237847,2.90527344 C169.195366,3.80533854 168.386447,4.88769531 167.811089,6.15234375 C167.235731,7.41699219 166.948052,8.81835938 166.948052,10.3564453 C166.948052,11.632487 167.167371,12.7718099 167.606011,13.7744141 C168.04465,14.7770182 168.637098,15.6571452 169.383355,16.4147949 C170.129611,17.1724447 170.998345,17.8133138 171.989556,18.3374023 C172.980767,18.8614909 174.028944,19.2773437 175.134087,19.5849609 L175.134087,19.5849609 L178.842583,20.6445312 C180.63132,21.1344401 181.941541,21.7952474 182.773247,22.6269531 C183.604953,23.4586589 184.020806,24.5239258 184.020806,25.8227539 C184.020806,26.6772461 183.866997,27.4462891 183.55938,28.1298828 C183.251763,28.8134766 182.807427,29.3945312 182.226372,29.8730469 C181.645317,30.3515625 180.936089,30.7189941 180.098687,30.9753418 C179.261284,31.2316895 178.307101,31.3598633 177.236138,31.3598633 C176.358859,31.3598633 175.507215,31.2886556 174.681206,31.1462402 C173.855197,31.0038249 173.043429,30.7987467 172.245903,30.5310059 C171.448377,30.263265 170.662245,29.9442546 169.887505,29.5739746 C169.112765,29.2036947 168.343722,28.7906901 167.580376,28.3349609 L167.580376,28.3349609 L165.546685,32.8295898 C167.278455,33.8435872 169.12131,34.6211751 171.075249,35.1623535 C173.029188,35.7035319 175.014458,35.9741211 177.03106,35.9741211 Z M211.472353,35.9057617 C213.728212,35.9057617 215.736269,35.4842122 217.496523,34.6411133 C219.256777,33.7980143 220.737896,32.598877 221.939882,31.0437012 C223.141868,29.4885254 224.056174,27.6114909 224.682802,25.4125977 C225.30943,23.2137044 225.622743,20.7584635 225.622743,18.046875 C225.622743,15.5061849 225.329368,13.1449382 224.742616,10.9631348 C224.155865,8.78133138 223.267193,6.88720703 222.076601,5.28076172 C220.886008,3.67431641 219.387799,2.41536458 217.581972,1.50390625 C215.776145,0.592447917 213.64846,0.13671875 211.198915,0.13671875 C209.022809,0.13671875 207.048932,0.526936849 205.277284,1.30737305 C203.505637,2.08780924 201.990338,3.23567708 200.731386,4.75097656 C199.472434,6.26627604 198.498313,8.13191732 197.809023,10.3479004 C197.119732,12.5638835 196.775087,15.1074219 196.775087,17.9785156 C196.775087,20.5533854 197.077008,22.9345703 197.680849,25.1220703 C198.28469,27.3095703 199.198997,29.2036947 200.423769,30.8044434 C201.648541,32.4051921 203.18093,33.655599 205.020937,34.5556641 C206.860943,35.4557292 209.011415,35.9057617 211.472353,35.9057617 Z M211.335634,31.5649414 C209.865907,31.5649414 208.615501,31.2601725 207.584413,30.6506348 C206.553326,30.041097 205.715924,29.1438802 205.072206,27.9589844 C204.428489,26.7740885 203.958518,25.3186035 203.662294,23.5925293 C203.36607,21.8664551 203.217958,19.8811849 203.217958,17.6367188 C203.217958,15.5517578 203.360374,13.6975098 203.645204,12.0739746 C203.930035,10.4504395 204.388613,9.08040365 205.020937,7.96386719 C205.653261,6.84733073 206.470725,5.99853516 207.473329,5.41748047 C208.475934,4.83642578 209.695009,4.54589844 211.130556,4.54589844 C212.668642,4.54589844 213.944684,4.86775716 214.958681,5.51147461 C215.972678,6.15519206 216.784446,7.07519531 217.393984,8.27148438 C218.003521,9.46777344 218.430767,10.9232585 218.675722,12.6379395 C218.920676,14.3526204 219.043154,16.2752279 219.043154,18.4057617 C219.043154,20.7299805 218.877952,22.7237956 218.547548,24.387207 C218.217144,26.0506185 217.727236,27.4149577 217.077822,28.4802246 C216.428407,29.5454915 215.625185,30.3259277 214.668154,30.8215332 C213.711122,31.3171387 212.600282,31.5649414 211.335634,31.5649414 Z M250.90388,35.3417969 L252.08308,30.5737305 L239.351146,30.5737305 L239.351146,0.615234375 L233.608958,0.615234375 L233.608958,35.3417969 L250.90388,35.3417969 Z M269.981404,35.9741211 C271.895466,35.9741211 273.595906,35.732015 275.082722,35.2478027 C276.569539,34.7635905 277.822794,34.0743001 278.842488,33.1799316 C279.862182,32.2855632 280.636921,31.2003581 281.166707,29.9243164 C281.696492,28.6482747 281.961384,27.2127279 281.961384,25.6176758 L281.961384,25.6176758 L281.961384,0.615234375 L276.219197,0.615234375 L276.219197,23.9257812 C276.219197,26.2386068 275.703653,28.0074056 274.672566,29.2321777 C273.641479,30.4569499 272.077758,31.0693359 269.981404,31.0693359 C268.91044,31.0693359 267.98474,30.9468587 267.204304,30.7019043 C266.423868,30.4569499 265.777302,30.0553385 265.264607,29.4970703 C264.751912,28.9388021 264.373087,28.2039388 264.128132,27.2924805 C263.883178,26.3810221 263.760701,25.2587891 263.760701,23.9257812 L263.760701,23.9257812 L263.760701,0.615234375 L258.018513,0.615234375 L258.018513,25.6860352 C258.018513,26.6088867 258.101114,27.5032552 258.266316,28.3691406 C258.431518,29.235026 258.702107,30.0496419 259.078084,30.8129883 C259.45406,31.5763346 259.949666,32.2741699 260.5649,32.9064941 C261.180134,33.5388184 261.929239,34.0828451 262.812214,34.5385742 C263.69519,34.9943034 264.729125,35.3474935 265.914021,35.5981445 C267.098917,35.8487956 268.454711,35.9741211 269.981404,35.9741211 Z M303.03842,35.3417969 L303.03842,5.45166016 L311.514982,5.45166016 L312.625822,0.615234375 L288.546232,0.615234375 L288.546232,5.45166016 L297.296232,5.45166016 L297.296232,35.3417969 L303.03842,35.3417969 Z" id="ABSOLUTE" fill="#009CD7"></path>
                <path d="M369.926752,35.9741211 C372.148432,35.9741211 374.102371,35.6665039 375.788569,35.0512695 C377.474767,34.4360352 378.88183,33.6157227 380.00976,32.590332 C381.13769,31.5649414 381.989334,30.3828939 382.564692,29.0441895 C383.14005,27.705485 383.427729,26.3069661 383.427729,24.8486328 C383.427729,23.5498047 383.219802,22.3734538 382.80395,21.3195801 C382.388097,20.2657064 381.804194,19.3286133 381.052241,18.5083008 C380.300287,17.6879883 379.405919,16.9844564 378.369135,16.3977051 C377.332351,15.8109538 376.193028,15.3352865 374.951166,14.9707031 L374.951166,14.9707031 L370.832514,13.7744141 C369.978022,13.5123698 369.254552,13.2446289 368.662104,12.9711914 C368.069656,12.6977539 367.59114,12.3958333 367.226557,12.0654297 C366.861974,11.735026 366.599929,11.3647461 366.440424,10.9545898 C366.280919,10.5444336 366.201166,10.065918 366.201166,9.51904297 C366.201166,8.80126953 366.335037,8.14900716 366.602778,7.56225586 C366.870519,6.97550456 367.252192,6.47420247 367.747797,6.05834961 C368.243403,5.64249674 368.841547,5.32063802 369.542231,5.09277344 C370.242914,4.86490885 371.020502,4.75097656 371.874994,4.75097656 C372.558588,4.75097656 373.219395,4.80224609 373.857416,4.90478516 C374.495437,5.00732422 375.139155,5.16398112 375.788569,5.37475586 C376.437983,5.5855306 377.110183,5.8589681 377.80517,6.19506836 C378.500157,6.53116862 379.25211,6.93847656 380.06103,7.41699219 L380.06103,7.41699219 L382.658686,3.34960938 C381.109207,2.25585938 379.391677,1.43554688 377.506098,0.888671875 C375.620519,0.341796875 373.675125,0.068359375 371.669916,0.068359375 C369.915359,0.068359375 368.31461,0.316162109 366.86767,0.811767578 C365.42073,1.30737305 364.17602,2.00520833 363.133539,2.90527344 C362.091059,3.80533854 361.28214,4.88769531 360.706782,6.15234375 C360.131423,7.41699219 359.843744,8.81835938 359.843744,10.3564453 C359.843744,11.632487 360.063064,12.7718099 360.501703,13.7744141 C360.940343,14.7770182 361.532791,15.6571452 362.279047,16.4147949 C363.025304,17.1724447 363.894037,17.8133138 364.885248,18.3374023 C365.876459,18.8614909 366.924636,19.2773437 368.02978,19.5849609 L368.02978,19.5849609 L371.738276,20.6445312 C373.527013,21.1344401 374.837234,21.7952474 375.66894,22.6269531 C376.500645,23.4586589 376.916498,24.5239258 376.916498,25.8227539 C376.916498,26.6772461 376.76269,27.4462891 376.455073,28.1298828 C376.147455,28.8134766 375.703119,29.3945312 375.122065,29.8730469 C374.54101,30.3515625 373.831782,30.7189941 372.994379,30.9753418 C372.156977,31.2316895 371.202794,31.3598633 370.13183,31.3598633 C369.254552,31.3598633 368.402908,31.2886556 367.576899,31.1462402 C366.75089,31.0038249 365.939122,30.7987467 365.141596,30.5310059 C364.34407,30.263265 363.557937,29.9442546 362.783198,29.5739746 C362.008458,29.2036947 361.239415,28.7906901 360.476069,28.3349609 L360.476069,28.3349609 L358.442377,32.8295898 C360.174148,33.8435872 362.017003,34.6211751 363.970942,35.1623535 C365.924881,35.7035319 367.910151,35.9741211 369.926752,35.9741211 Z M393.037479,35.3417969 L395.908573,26.25 L407.10242,26.25 L409.905155,35.3417969 L416.279666,35.3417969 L405.137088,0.546875 L398.489139,0.546875 L387.090213,35.3417969 L393.037479,35.3417969 Z M405.837772,21.4135742 L397.30994,21.4135742 C397.401086,21.1287435 397.534956,20.6958008 397.711551,20.1147461 C397.888146,19.5336914 398.087528,18.8671875 398.309696,18.1152344 C398.531864,17.3632812 398.768273,16.5572103 399.018924,15.6970215 C399.269575,14.8368327 399.520226,13.9794922 399.770877,13.125 C400.351932,11.1197917 400.97856,8.93798828 401.65076,6.57958984 L401.65076,6.57958984 L401.71912,6.57958984 C401.741906,6.75048828 401.815962,7.08374023 401.941288,7.5793457 C402.066613,8.07495117 402.220422,8.6730957 402.402713,9.3737793 C402.585005,10.0744629 402.790083,10.8435059 403.017948,11.6809082 C403.245812,12.5183105 403.482222,13.3671061 403.727176,14.2272949 C403.972131,15.0874837 404.211388,15.9277344 404.44495,16.7480469 C404.678511,17.5683594 404.892134,18.3089193 405.085819,18.9697266 C405.279504,19.6305339 405.441857,20.1802572 405.572879,20.6188965 C405.703902,21.0575358 405.792199,21.3224284 405.837772,21.4135742 L405.837772,21.4135742 Z M427.564221,35.3417969 L427.632581,19.4482422 L439.304944,19.4482422 L439.304944,14.6972656 L427.564221,14.6972656 L427.564221,5.31494141 L440.672132,5.31494141 L441.851331,0.615234375 L421.890393,0.615234375 L421.890393,35.3417969 L427.564221,35.3417969 Z M469.08071,35.3417969 L469.08071,30.4370117 L454.7936,30.4370117 L454.7936,19.4482422 L466.465964,19.4482422 L466.465964,14.6972656 L454.725241,14.6972656 L454.725241,5.31494141 L467.833151,5.31494141 L469.01235,0.615234375 L449.051413,0.615234375 L449.051413,35.3417969 L469.08071,35.3417969 Z M487.901886,35.3417969 L487.901886,5.45166016 L496.378448,5.45166016 L497.489288,0.615234375 L473.409698,0.615234375 L473.409698,5.45166016 L482.159698,5.45166016 L482.159698,35.3417969 L487.901886,35.3417969 Z M515.62687,35.3417969 L515.62687,21.3452148 L526.63273,0.615234375 L519.899331,0.615234375 L514.652749,11.6894531 C514.424885,12.1679688 514.199868,12.6578776 513.9777,13.1591797 C513.755532,13.6604818 513.553303,14.1276042 513.371011,14.5605469 C513.165933,15.061849 512.966551,15.5517578 512.772866,16.0302734 C512.601968,15.5859375 512.41398,15.1188151 512.208902,14.6289062 C512.038003,14.2073568 511.838622,13.7288411 511.610757,13.1933594 C511.382892,12.6578776 511.137938,12.105306 510.875894,11.5356445 L510.875894,11.5356445 L505.492593,0 L499.323159,1.31591797 L509.611245,21.2768555 L509.611245,35.3417969 L515.62687,35.3417969 Z" id="SAFETY" fill="#222222"></path>
            </g>
            <g id="Group-2" transform="translate(320.000000, 1.270000)" fill="#009CD7">
                <polygon id="Fill-9" points="0 34.73 20.838 34.73 20.838 28.7762857 0 28.7762857"></polygon>
                <polygon id="Fill-10" points="0 5.95371429 20.838 5.95371429 20.838 0 0 0"></polygon>
                <polygon id="Fill-11" points="0 20.838 20.838 20.838 20.838 14.8842857 0 14.8842857"></polygon>
            </g>
        </g>
    </g>
</svg>